<?xml version="1.0"?>
<svg xmlns="http://www.w3.org/2000/svg" id="Layer_1" data-name="Layer 1" viewBox="0 0 512 512" width="512" height="512"><title>Atom</title><path d="M420.85,284.19A34.5,34.5,0,1,1,405,313.21,34.286,34.286,0,0,1,420.85,284.19Z" style="fill:#00efd1"/><circle cx="254.5" cy="262.21" r="34.5" style="fill:#00efd1"/><path d="M242.28,37.75A34.5,34.5,0,1,1,214.5,23.71,34.354,34.354,0,0,1,242.28,37.75Z" style="fill:#00efd1"/><path d="M89.02,282.91a34.518,34.518,0,1,1-16.52-4.2A34.524,34.524,0,0,1,89.02,282.91Z" style="fill:#00efd1"/><path d="M254.5,219.71a42.5,42.5,0,1,0,42.5,42.5A42.548,42.548,0,0,0,254.5,219.71Zm0,69a26.5,26.5,0,1,1,26.5-26.5A26.53,26.53,0,0,1,254.5,288.71Z" style="fill:#083863"/><path d="M439.5,270.71a42.37,42.37,0,0,0-16.058,3.174q-4.146-5.832-8.732-11.681c18.821-24,32.069-47.868,38.443-69.327,7.44-25.05,5.513-46.842-5.575-63.02-18.032-26.306-58.282-34.7-111.013-23.407C316.062,56.577,286.384,28.13,254.5,28.13a54.844,54.844,0,0,0-9.225.79,42.488,42.488,0,0,0-63.168,56.79c-3.423,6.452-6.66,13.391-9.676,20.739-52.73-11.294-92.977-2.9-111.01,23.408-11.087,16.178-13.014,37.972-5.572,63.025,6.375,21.463,19.626,45.329,38.448,69.328q-4.254,5.424-8.1,10.779A42.5,42.5,0,0,0,51.937,350.41c-1.956,17.248,1.214,32.08,9.485,44.143,12.8,18.666,36.766,28.321,68.447,28.321a204.657,204.657,0,0,0,42.559-4.9c20.5,49.873,50.182,78.32,82.072,78.32s61.57-28.447,82.072-78.32a204.509,204.509,0,0,0,42.559,4.9c31.677,0,55.654-9.657,68.449-28.322,8.031-11.722,11.258-26.067,9.643-42.7A42.5,42.5,0,0,0,439.5,270.71ZM434.381,138.9c16.105,23.5,4.529,65.386-30.11,110.636a424.209,424.209,0,0,0-43.582-43.3c-3.426-30.535-9.742-59.533-18.417-84.65C387.121,112.392,420.435,118.558,434.381,138.9ZM326.634,399.1a349.368,349.368,0,0,1-54.269-19.8,505.561,505.561,0,0,0,43.918-26.952c9.02-6.182,17.824-12.641,26.33-19.3A365.911,365.911,0,0,1,326.634,399.1Zm-144.268,0a365.972,365.972,0,0,1-15.979-66.056c8.5,6.661,17.31,13.119,26.329,19.3A505.344,505.344,0,0,0,236.635,379.3,349.433,349.433,0,0,1,182.366,399.1Zm.009-273.8a349.087,349.087,0,0,1,54.26,19.808,504.728,504.728,0,0,0-43.915,26.955c-9.027,6.182-17.831,12.638-26.326,19.293A365.316,365.316,0,0,1,182.375,125.306Zm-36.12,169.541a387.912,387.912,0,0,1-31.3-32.637,387.064,387.064,0,0,1,31.3-32.64c-.687,10.777-1.037,21.694-1.037,32.64S145.569,284.058,146.255,294.847Zm55.508,44.3c-13.331-9.137-26.169-18.893-38.22-29.017-1.535-15.675-2.323-31.776-2.323-47.924,0-16.177.791-32.278,2.332-47.925,12.028-10.121,24.861-19.875,38.212-29.017A482.279,482.279,0,0,1,254.5,153.787a482.2,482.2,0,0,1,52.737,31.482c13.38,9.171,26.214,18.923,38.211,29.008,1.541,15.646,2.332,31.75,2.332,47.933,0,16.149-.788,32.252-2.323,47.924-12.053,10.125-24.889,19.881-38.221,29.018a483.664,483.664,0,0,1-52.736,31.48A483.686,483.686,0,0,1,201.763,339.151ZM326.626,125.306a365.061,365.061,0,0,1,15.982,66.059c-8.482-6.642-17.285-13.1-26.324-19.293a504.938,504.938,0,0,0-43.919-26.958A348.985,348.985,0,0,1,326.626,125.306ZM362.743,229.57A389.88,389.88,0,0,1,394.052,262.2a387.8,387.8,0,0,1-31.307,32.648c.686-10.789,1.035-21.707,1.035-32.641S363.43,240.346,362.743,229.57Zm-41.9-119.28A379.433,379.433,0,0,0,254.5,135.878a379.374,379.374,0,0,0-66.347-25.588q3.192-7.56,6.69-14.408a42.512,42.512,0,0,0,59.769-51.749C279.228,44.206,303.1,68.175,320.846,110.29ZM214.5,31.71A26.492,26.492,0,1,1,188,58.21,26.292,26.292,0,0,1,214.5,31.71ZM74.619,138.9c13.946-20.346,47.259-26.512,92.11-17.315-8.676,25.126-14.992,54.127-18.418,84.657a421.331,421.331,0,0,0-43.577,43.3C70.089,204.3,58.511,162.406,74.619,138.9ZM72.5,286.71A26.506,26.506,0,1,1,46,313.21,26.556,26.556,0,0,1,72.5,286.71Zm2.118,98.8c-5.533-8.071-7.9-18.167-7.085-30.092A42.462,42.462,0,0,0,115,313.21a42.509,42.509,0,0,0-14.813-32.239q2.2-3.029,4.551-6.092A422.643,422.643,0,0,0,148.3,318.173c3.434,30.533,9.75,59.531,18.419,84.648C121.877,412.02,88.566,405.853,74.618,385.506ZM254.5,480.29c-24.663,0-48.584-23.986-66.357-66.17A379.791,379.791,0,0,0,254.5,388.54a379.791,379.791,0,0,0,66.357,25.58C303.083,456.3,279.163,480.29,254.5,480.29Zm179.881-94.784c-13.947,20.347-47.257,26.514-92.1,17.315,8.668-25.115,14.985-54.112,18.419-84.647a422.044,422.044,0,0,0,43.57-43.3c1.975,2.581,3.9,5.162,5.736,7.736a42.5,42.5,0,0,0,29.5,73.1c.661,0,1.32-.034,1.979-.065C442.243,367.469,439.872,377.492,434.381,385.506Zm12-46.7a26.5,26.5,0,0,1-21.2-47.885l.011-.007a26.5,26.5,0,1,1,21.194,47.892Z" style="fill:#083863"/></svg>
