<?xml version="1.0" encoding="utf-8"?>
<!-- Generator: Adobe Illustrator 23.0.2, SVG Export Plug-In . SVG Version: 6.00 Build 0)  -->
<svg version="1.1" id="Layer_1" xmlns="http://www.w3.org/2000/svg" xmlns:xlink="http://www.w3.org/1999/xlink" x="0px" y="0px"
	 viewBox="0 0 512 512" style="enable-background:new 0 0 512 512;" xml:space="preserve">
<style type="text/css">
	.st0{fill:#D7DEED;}
	.st1{fill:#EFF2FA;}
	.st2{fill:#00B0F0;}
</style>
<path class="st0" d="M504,127.4v0.1l-376.3,0.6L7.5,128.3l0-16c0-17.6,14.4-32.1,32-32.1l432.4-0.8c17.6,0,32,14.4,32.1,32
	L504,127.4z"/>
<g>
	<path class="st1" d="M471.2,95.9c4.4,0,8,3.6,8,8c0,2.2-0.9,4.2-2.3,5.7c-1.5,1.4-3.5,2.3-5.7,2.3h-8c-4.4,0-8-3.6-8-8
		c0-2.2,0.9-4.2,2.3-5.7c1.5-1.4,3.5-2.3,5.7-2.3H471.2z"/>
	<path class="st1" d="M439.1,95.9c4.4,0,8,3.6,8,8c0,2.2-0.9,4.2-2.3,5.7c-1.5,1.4-3.5,2.3-5.7,2.3h-8c-4.4,0-8-3.6-8-8
		c0-2.2,0.9-4.2,2.3-5.7c1.5-1.4,3.5-2.3,5.7-2.3H439.1z"/>
	<path class="st1" d="M399.1,95.9c4.4,0,8,3.6,8,8c0,2.2-0.9,4.2-2.3,5.7c-1.5,1.4-3.5,2.3-5.7,2.3H206.9c-4.4,0-8-3.6-8-8
		c0-2.2,0.9-4.2,2.3-5.7c1.5-1.4,3.5-2.3,5.7-2.3H399.1z"/>
	<path class="st1" d="M174.9,95.9c4.4,0,8,3.6,8,8c0,2.2-0.9,4.2-2.3,5.7c-1.5,1.4-3.5,2.3-5.7,2.3h-8c-4.4,0-8-3.6-8-8
		c0-2.2,0.9-4.2,2.3-5.7c1.5-1.4,3.5-2.3,5.7-2.3H174.9z"/>
	<path class="st1" d="M142.9,95.9c4.4,0,8,3.6,8,8c0,2.2-0.9,4.2-2.3,5.7c-1.5,1.4-3.5,2.3-5.7,2.3h-8c-4.4,0-8-3.6-8-8
		c0-2.2,0.9-4.2,2.3-5.7c1.5-1.4,3.5-2.3,5.7-2.3H142.9z"/>
	<path class="st1" d="M127.6,128.1l0.6,304.3l-88.1,0.2c-17.6,0-32.1-14.4-32.1-32L7.5,128.3L127.6,128.1z"/>
</g>
<path class="st2" d="M511.5,127.4L511.5,127.4C511.5,127.4,511.5,127.4,511.5,127.4l0-16c0-21.8-17.8-39.5-39.6-39.5L39.5,72.7
	c-10.5,0-20.4,4.2-27.9,11.7C4.1,91.9,0,101.8,0,112.4l0,16c0,0,0,0,0,0v0l0.5,272.2c0,21.8,17.8,39.5,39.5,39.5c0,0,0.1,0,0.1,0
	l432.4-0.8c21.8,0,39.5-17.8,39.5-39.6L511.5,127.4z M40.1,425.1l0,7.5L40.1,425.1c-13.5,0-24.5-11-24.6-24.5l-0.5-264.7l105.1-0.2
	l0.5,289.3L40.1,425.1z M472.5,424.2l-336.8,0.6l-0.5-289.3l312.8-0.6c4.1,0,7.5-3.4,7.5-7.5c0-4.1-3.4-7.5-7.5-7.5c0,0,0,0,0,0
	L15,120.8l0-8.5c0-6.5,2.5-12.7,7.2-17.3c4.6-4.7,10.8-7.2,17.3-7.2l432.4-0.8c13.5,0,24.5,11,24.5,24.5l0,8.5l-16.5,0
	c-4.1,0-7.5,3.4-7.5,7.5c0,4.1,3.4,7.5,7.5,7.5c0,0,0,0,0,0l16.5,0l0.5,264.7C497,413.2,486,424.2,472.5,424.2z"/>
<path class="st2" d="M39.5,96.8c-2,0-3.9,0.8-5.3,2.2c-1.4,1.4-2.2,3.3-2.2,5.3c0,2,0.8,3.9,2.2,5.3c1.4,1.4,3.3,2.2,5.3,2.2
	c2,0,3.9-0.8,5.3-2.2c1.4-1.4,2.2-3.3,2.2-5.3c0-2-0.8-3.9-2.2-5.3C43.4,97.6,41.5,96.8,39.5,96.8z"/>
<path class="st2" d="M63.5,96.7c-2,0-3.9,0.8-5.3,2.2c-1.4,1.4-2.2,3.3-2.2,5.3c0,2,0.8,3.9,2.2,5.3c1.4,1.4,3.3,2.2,5.3,2.2
	s3.9-0.8,5.3-2.2c1.4-1.4,2.2-3.3,2.2-5.3c0-2-0.8-3.9-2.2-5.3C67.5,97.5,65.5,96.7,63.5,96.7z"/>
<path class="st2" d="M87.6,96.7c-2,0-3.9,0.8-5.3,2.2c-1.4,1.4-2.2,3.3-2.2,5.3c0,2,0.8,3.9,2.2,5.3s3.3,2.2,5.3,2.2
	s3.9-0.8,5.3-2.2c1.4-1.4,2.2-3.3,2.2-5.3c0-2-0.8-3.9-2.2-5.3C91.5,97.5,89.5,96.7,87.6,96.7z"/>
<path class="st2" d="M39.6,167.8C39.6,167.8,39.6,167.8,39.6,167.8l56.1-0.1c4.1,0,7.5-3.4,7.5-7.5c0-4.1-3.4-7.5-7.5-7.5
	c0,0,0,0,0,0l-56,0.1c-4.1,0-7.5,3.4-7.5,7.5C32.1,164.5,35.5,167.8,39.6,167.8z"/>
<path class="st2" d="M39.7,199.9C39.7,199.9,39.7,199.9,39.7,199.9l56.1-0.1c4.1,0,7.5-3.4,7.5-7.5c0-4.1-3.4-7.5-7.5-7.5
	c0,0,0,0,0,0l-56,0.1c-4.1,0-7.5,3.4-7.5,7.5C32.2,196.5,35.5,199.9,39.7,199.9z"/>
<path class="st2" d="M95.8,216.8C95.8,216.8,95.8,216.8,95.8,216.8l-56.1,0.1c-4.1,0-7.5,3.4-7.5,7.5c0,4.1,3.4,7.5,7.5,7.5
	c0,0,0,0,0,0l56-0.1c4.1,0,7.5-3.4,7.5-7.5C103.3,220.1,99.9,216.8,95.8,216.8z"/>
<path class="st2" d="M39.8,263.9C39.8,263.9,39.8,263.9,39.8,263.9l32-0.1c4.1,0,7.5-3.4,7.5-7.5c0-4.1-3.4-7.5-7.5-7.5c0,0,0,0,0,0
	l-32,0.1c-4.1,0-7.5,3.4-7.5,7.5C32.3,260.6,35.7,263.9,39.8,263.9z"/>
<path class="st2" d="M71.9,280.9C71.9,280.9,71.9,280.9,71.9,280.9l-32,0.1c-4.1,0-7.5,3.4-7.5,7.5c0,4.1,3.4,7.5,7.5,7.5
	c0,0,0,0,0,0l32-0.1c4.1,0,7.5-3.4,7.5-7.5C79.4,284.2,76,280.9,71.9,280.9z"/>
<path class="st2" d="M47.9,312.9C47.9,312.9,47.9,312.9,47.9,312.9l-8,0c-4.1,0-7.5,3.4-7.5,7.5c0,4.1,3.4,7.5,7.5,7.5c0,0,0,0,0,0
	l8,0c4.1,0,7.5-3.4,7.5-7.5C55.4,316.3,52.1,312.9,47.9,312.9z"/>
<path class="st2" d="M244.7,308.7c-7.6,7.7-17.8,11.9-28.6,11.9c0,0-0.1,0-0.1,0c-10.8,0-21-4.2-28.6-11.8
	c-7.7-7.6-11.9-17.8-11.9-28.6c0-10.8,4.2-21,11.8-28.7c7.6-7.7,17.8-11.9,28.6-11.9c0,0,0.1,0,0.1,0c10.8,0,21,4.2,28.6,11.8
	c2.9,2.9,7.7,2.9,10.6,0c2.9-2.9,2.9-7.7,0-10.6c-21.7-21.6-56.9-21.6-78.6,0.1c-10.5,10.5-16.2,24.5-16.2,39.3s5.8,28.8,16.3,39.2
	c10.5,10.4,24.4,16.2,39.2,16.2c0,0,0.1,0,0.1,0c14.8,0,28.8-5.8,39.2-16.3c2.9-2.9,2.9-7.7,0-10.6
	C252.4,305.8,247.7,305.8,244.7,308.7z"/>
<path class="st2" d="M327.3,300.4c4.7-2,9.1-4.9,12.8-8.6c7.5-7.5,11.5-17.4,11.5-28c0-21.8-17.8-39.5-39.5-39.5c0,0-0.1,0-0.1,0
	c0,0-30.5,0.1-32,0.1c0,0,0,0,0,0c0,0,0,0,0,0c-4.1,0-7.5,3.4-7.5,7.5c0,0.2,0,0.5,0,0.8l0.2,95.3c0,4.1,3.4,7.5,7.5,7.5
	c0,0,0,0,0,0c4.1,0,7.5-3.4,7.5-7.5l-0.2-88.6l24.5,0c0,0,0,0,0,0c13.5,0,24.5,11,24.5,24.5c0,6.6-2.5,12.7-7.1,17.4
	c-4.6,4.6-10.8,7.2-17.3,7.2c-3,0-5.8,1.8-6.9,4.6s-0.5,6,1.6,8.2l32.1,32c2.9,2.9,7.7,2.9,10.6,0c2.9-2.9,2.9-7.7,0-10.6
	L327.3,300.4z"/>
<path class="st2" d="M458,224.3c-3.3-0.9-6.8,0.6-8.4,3.6l-33.4,60.3l-33.6-60.2c-1.7-3-5.1-4.5-8.5-3.6c-3.3,0.9-5.6,3.9-5.6,7.3
	l0.2,96.1c0,4.1,3.4,7.5,7.5,7.5c0,0,0,0,0,0c4.1,0,7.5-3.4,7.5-7.5l-0.1-67.1l26.1,46.7c1.3,2.4,3.8,3.8,6.6,3.8c0,0,0,0,0,0
	c2.7,0,5.2-1.5,6.6-3.9l25.9-46.8l0.1,67.1c0,4.1,3.4,7.5,7.5,7.5c0,0,0,0,0,0c4.1,0,7.5-3.4,7.5-7.5l-0.2-96.1
	C463.7,228.2,461.4,225.2,458,224.3z"/>
</svg>
