<?xml version="1.0" encoding="utf-8"?>
<!-- Generator: Adobe Illustrator 19.1.1, SVG Export Plug-In . SVG Version: 6.00 Build 0)  -->
<svg version="1.1" id="Layer_1" xmlns="http://www.w3.org/2000/svg" xmlns:xlink="http://www.w3.org/1999/xlink" x="0px" y="0px"
	 viewBox="0 0 1366 559.5" style="enable-background:new 0 0 1366 559.5;" xml:space="preserve">
<style type="text/css">
	.st0{fill-rule:evenodd;clip-rule:evenodd;fill:#4A72B8;}
	.st1{fill:none;stroke:#30538F;stroke-width:0.826;stroke-miterlimit:8;}
	.st2{fill-rule:evenodd;clip-rule:evenodd;fill:#FFFFFF;}
	.st3{fill:#010101;}
	.st4{font-family:'Calibri-Bold';}
	.st5{font-size:16px;}
	.st6{letter-spacing:-1;}
	.st7{font-size:14.6462px;}
	.st8{fill:none;stroke:#4A72B8;stroke-width:0.826;stroke-miterlimit:8;}
	.st9{fill:#747476;}
	.st10{fill:#747577;}
	.st11{fill:#757578;}
	.st12{fill:#757678;}
	.st13{fill:#767779;}
	.st14{fill:#77787A;}
</style>
<g>
	<path class="st0" d="M239.6,136.3c0-24.1,20.9-43.6,46.6-43.6c25.7,0,46.6,19.5,46.6,43.6c0,24.1-20.9,43.6-46.6,43.6
		C260.5,179.9,239.6,160.4,239.6,136.3L239.6,136.3z"/>
	<path class="st1" d="M239.6,136.3c0-24.1,20.9-43.6,46.6-43.6c25.7,0,46.6,19.5,46.6,43.6c0,24.1-20.9,43.6-46.6,43.6
		C260.5,179.9,239.6,160.4,239.6,136.3L239.6,136.3z"/>
	<path class="st2" d="M248.1,136.3c0-20.6,17.1-37.4,38.1-37.4c21.1,0,38.1,16.7,38.1,37.4s-17.1,37.4-38.1,37.4
		C265.1,173.7,248.1,157,248.1,136.3L248.1,136.3z"/>
	<path class="st1" d="M248.1,136.3c0-20.6,17.1-37.4,38.1-37.4c21.1,0,38.1,16.7,38.1,37.4s-17.1,37.4-38.1,37.4
		C265.1,173.7,248.1,157,248.1,136.3L248.1,136.3z"/>
	<text transform="matrix(0.9995 0 0 1 221.7691 202.3721)" class="st3 st4 st5">M</text>
	<text transform="matrix(0.9995 0 0 1 234.8687 202.3721)" class="st3 st4 st5">-</text>
	<text transform="matrix(0.9995 0 0 1 239.4878 202.3721)"><tspan x="0" y="0" class="st3 st4 st5">A</tspan><tspan x="10.1" y="0" class="st3 st4 st5">pp</tspan><tspan x="26.9" y="0" class="st3 st4 st5 st6"> </tspan><tspan x="29.5" y="0" class="st3 st4 st5">A</tspan><tspan x="39.6" y="0" class="st3 st4 st5">c</tspan><tspan x="46.3" y="0" class="st3 st4 st5">ti</tspan><tspan x="55.9" y="0" class="st3 st4 st5">v</tspan><tspan x="63.5" y="0" class="st3 st4 st5">i</tspan><tspan x="67.7" y="0" class="st3 st4 st5">t</tspan><tspan x="73.6" y="0" class="st3 st4 st5">y</tspan><tspan x="81.2" y="0" class="st3 st4 st5 st6"> </tspan><tspan x="83.7" y="0" class="st3 st4 st5">D</tspan><tspan x="93.8" y="0" class="st3 st4 st5">a</tspan><tspan x="101.4" y="0" class="st3 st4 st5">t</tspan><tspan x="107.3" y="0" class="st3 st4 st5">a</tspan></text>
	<text transform="matrix(0.9995 0 0 1 345.0464 202.3721)" class="st3 st4 st7"> </text>
	<path class="st0" d="M359.8,56.9c0-21.5,17.6-38.9,39.3-38.9s39.3,17.4,39.3,38.9s-17.6,38.9-39.3,38.9S359.8,78.4,359.8,56.9
		L359.8,56.9z"/>
	<path class="st1" d="M359.8,56.9c0-21.5,17.6-38.9,39.3-38.9s39.3,17.4,39.3,38.9s-17.6,38.9-39.3,38.9S359.8,78.4,359.8,56.9
		L359.8,56.9z"/>
	<path class="st2" d="M366.7,56.5c0-18.3,14.5-33.1,32.4-33.1c17.9,0,32.4,14.8,32.4,33.1s-14.5,33.1-32.4,33.1
		C381.2,89.7,366.7,74.8,366.7,56.5L366.7,56.5z"/>
	<path class="st1" d="M366.7,56.5c0-18.3,14.5-33.1,32.4-33.1c17.9,0,32.4,14.8,32.4,33.1s-14.5,33.1-32.4,33.1
		C381.2,89.7,366.7,74.8,366.7,56.5L366.7,56.5z"/>
	<text transform="matrix(0.9995 0 0 1 353.7231 117.3789)"><tspan x="0" y="0" class="st3 st4 st5 st6">T</tspan><tspan x="6.7" y="0" class="st3 st4 st5">r</tspan><tspan x="12.6" y="0" class="st3 st4 st5">a</tspan><tspan x="20.2" y="0" class="st3 st4 st5">n</tspan><tspan x="28.6" y="0" class="st3 st4 st5">s</tspan><tspan x="35.4" y="0" class="st3 st4 st5">a</tspan><tspan x="43" y="0" class="st3 st4 st5">c</tspan><tspan x="49.7" y="0" class="st3 st4 st5">ti</tspan><tspan x="59.3" y="0" class="st3 st4 st5">o</tspan><tspan x="67.8" y="0" class="st3 st4 st5">n</tspan><tspan x="76.2" y="0" class="st3 st4 st5 st6"> </tspan><tspan x="78.7" y="0" class="st3 st4 st5">&amp;</tspan><tspan x="89.7" y="0" class="st3 st4 st5"> </tspan></text>
	<text transform="matrix(0.9995 0 0 1 441.2407 119.3789)" class="st3 st4 st7"> </text>
	<text transform="matrix(0.9995 0 0 1 362.9702 135.1065)"><tspan x="0" y="0" class="st3 st4 st5">S</tspan><tspan x="7.6" y="0" class="st3 st4 st5">t</tspan><tspan x="13.5" y="0" class="st3 st4 st5">o</tspan><tspan x="21.9" y="0" class="st3 st4 st5">r</tspan><tspan x="27.8" y="0" class="st3 st4 st5">e</tspan><tspan x="36.2" y="0" class="st3 st4 st5 st6"> </tspan><tspan x="38.7" y="0" class="st3 st4 st5">D</tspan><tspan x="48.8" y="0" class="st3 st4 st5">a</tspan><tspan x="56.4" y="0" class="st3 st4 st5">t</tspan><tspan x="62.3" y="0" class="st3 st4 st5">a</tspan></text>
	<text transform="matrix(0.9995 0 0 1 428.9146 137.1065)" class="st3 st4 st7"> </text>
	<path class="st0" d="M218,265.4c0-24.3,20.4-43.9,45.5-43.9s45.5,19.7,45.5,43.9s-20.4,43.9-45.5,43.9S218,289.7,218,265.4
		L218,265.4z"/>
	<path class="st1" d="M218,265.4c0-24.3,20.4-43.9,45.5-43.9s45.5,19.7,45.5,43.9s-20.4,43.9-45.5,43.9S218,289.7,218,265.4
		L218,265.4z"/>
	<path class="st2" d="M225.7,265.4c0-20.9,16.7-37.8,37.4-37.8s37.4,16.9,37.4,37.8s-16.7,37.8-37.4,37.8S225.7,286.3,225.7,265.4
		L225.7,265.4z"/>
	<path class="st1" d="M225.7,265.4c0-20.9,16.7-37.8,37.4-37.8s37.4,16.9,37.4,37.8s-16.7,37.8-37.4,37.8S225.7,286.3,225.7,265.4
		L225.7,265.4z"/>
	<text transform="matrix(0.9995 0 0 1 209.3618 332.5098)"><tspan x="0" y="0" class="st3 st4 st5 st6">W</tspan><tspan x="13.5" y="0" class="st3 st4 st5">e</tspan><tspan x="21.9" y="0" class="st3 st4 st5">b</tspan><tspan x="30.3" y="0" class="st3 st4 st5"> </tspan><tspan x="33.7" y="0" class="st3 st4 st5">A</tspan><tspan x="43.8" y="0" class="st3 st4 st5">c</tspan><tspan x="50.5" y="0" class="st3 st4 st5">ti</tspan><tspan x="60.1" y="0" class="st3 st4 st5">v</tspan><tspan x="67.7" y="0" class="st3 st4 st5">i</tspan><tspan x="71.9" y="0" class="st3 st4 st5">t</tspan><tspan x="77.8" y="0" class="st3 st4 st5">y</tspan><tspan x="85.4" y="0" class="st3 st4 st5 st6"> </tspan><tspan x="87.9" y="0" class="st3 st4 st5">D</tspan><tspan x="98" y="0" class="st3 st4 st5">a</tspan><tspan x="105.6" y="0" class="st3 st4 st5">t</tspan><tspan x="111.5" y="0" class="st3 st4 st5">a</tspan></text>
	<text transform="matrix(0.9995 0 0 1 320.7729 332.5098)" class="st3 st4 st7"> </text>
	<path class="st0" d="M219.5,402.3c0-25.3,20.9-45.9,46.6-45.9s46.6,20.5,46.6,45.9s-20.9,45.9-46.6,45.9S219.5,427.6,219.5,402.3
		L219.5,402.3z"/>
	<path class="st1" d="M219.5,402.3c0-25.3,20.9-45.9,46.6-45.9s46.6,20.5,46.6,45.9s-20.9,45.9-46.6,45.9S219.5,427.6,219.5,402.3
		L219.5,402.3z"/>
	<path class="st2" d="M228,402.7c0-21.7,17.1-39.3,38.1-39.3s38.1,17.6,38.1,39.3c0,21.7-17.1,39.3-38.1,39.3S228,424.4,228,402.7
		L228,402.7z"/>
	<path class="st1" d="M228,402.7c0-21.7,17.1-39.3,38.1-39.3s38.1,17.6,38.1,39.3c0,21.7-17.1,39.3-38.1,39.3S228,424.4,228,402.7
		L228,402.7z"/>
	<text transform="matrix(0.9995 0 0 1 202.6314 471.8496)"><tspan x="0" y="0" class="st3 st4 st5">C</tspan><tspan x="8.4" y="0" class="st3 st4 st5">u</tspan><tspan x="16.9" y="0" class="st3 st4 st5">s</tspan><tspan x="23.6" y="0" class="st3 st4 st5">t</tspan><tspan x="29.5" y="0" class="st3 st4 st5">o</tspan><tspan x="37.9" y="0" class="st3 st4 st5">m</tspan><tspan x="50.5" y="0" class="st3 st4 st5">e</tspan><tspan x="58.9" y="0" class="st3 st4 st5">r</tspan><tspan x="64.8" y="0" class="st3 st4 st5 st6"> </tspan><tspan x="67.4" y="0" class="st3 st4 st5">S</tspan><tspan x="74.9" y="0" class="st3 st4 st5">e</tspan><tspan x="83.3" y="0" class="st3 st4 st5">r</tspan><tspan x="89.2" y="0" class="st3 st4 st5">v</tspan><tspan x="96.8" y="0" class="st3 st4 st5">i</tspan><tspan x="101" y="0" class="st3 st4 st5">c</tspan><tspan x="107.7" y="0" class="st3 st4 st5">e</tspan><tspan x="115.3" y="0" class="st3 st4 st5"> </tspan><tspan x="118.7" y="0" class="st3 st4 st5">&amp;</tspan><tspan x="129.6" y="0" class="st3 st4 st5"> </tspan></text>
	<text transform="matrix(0.9995 0 0 1 335.603 472.8496)" class="st3 st4 st7"> </text>
	<text transform="matrix(0.9995 0 0 1 217.2788 489.5772)"><tspan x="0" y="0" class="st3 st4 st5">F</tspan><tspan x="7.6" y="0" class="st3 st4 st5">ee</tspan><tspan x="24.4" y="0" class="st3 st4 st5">db</tspan><tspan x="41.2" y="0" class="st3 st4 st5">a</tspan><tspan x="48.8" y="0" class="st3 st4 st5">c</tspan><tspan x="55.6" y="0" class="st3 st4 st5">k</tspan><tspan x="63.1" y="0" class="st3 st4 st5 st6"> </tspan><tspan x="65.7" y="0" class="st3 st4 st5">D</tspan><tspan x="75.8" y="0" class="st3 st4 st5">a</tspan><tspan x="83.4" y="0" class="st3 st4 st5">t</tspan><tspan x="89.2" y="0" class="st3 st4 st5">a</tspan></text>
	<text transform="matrix(0.9995 0 0 1 317.8765 490.5772)" class="st3 st4 st7"> </text>
	<path class="st0" d="M884.5,57.7C884.5,35.8,904,18,928,18s43.5,17.8,43.5,39.7S952,97.4,928,97.4S884.5,79.6,884.5,57.7
		L884.5,57.7z"/>
	<path class="st1" d="M884.5,57.7C884.5,35.8,904,18,928,18s43.5,17.8,43.5,39.7S952,97.4,928,97.4S884.5,79.6,884.5,57.7
		L884.5,57.7z"/>
	<path class="st2" d="M892.2,57.7c0-18.9,15.9-34.3,35.4-34.3c19.6,0,35.4,15.4,35.4,34.3c0,18.9-15.9,34.3-35.4,34.3
		C908,92,892.2,76.6,892.2,57.7L892.2,57.7z"/>
	<path class="st1" d="M892.2,57.7c0-18.9,15.9-34.3,35.4-34.3c19.6,0,35.4,15.4,35.4,34.3c0,18.9-15.9,34.3-35.4,34.3
		C908,92,892.2,76.6,892.2,57.7L892.2,57.7z"/>
	<text transform="matrix(0.9995 0 0 1 910.0332 117.2188)"><tspan x="0" y="0" class="st3 st4 st5">S</tspan><tspan x="7.6" y="0" class="st3 st4 st5">M</tspan><tspan x="21.9" y="0" class="st3 st4 st5">S</tspan></text>
	<text transform="matrix(0.9995 0 0 1 940 117.2188)" class="st3 st4 st7"> </text>
	<path class="st0" d="M993.1,111.7c0-24.5,20.9-44.3,46.6-44.3c25.7,0,46.6,19.8,46.6,44.3c0,24.5-20.9,44.3-46.6,44.3
		C1014,156,993.1,136.1,993.1,111.7L993.1,111.7z"/>
	<path class="st1" d="M993.1,111.7c0-24.5,20.9-44.3,46.6-44.3c25.7,0,46.6,19.8,46.6,44.3c0,24.5-20.9,44.3-46.6,44.3
		C1014,156,993.1,136.1,993.1,111.7L993.1,111.7z"/>
	<path class="st2" d="M1001.6,112c0-20.9,17.2-37.8,38.5-37.8c21.3,0,38.5,16.9,38.5,37.8c0,20.9-17.2,37.8-38.5,37.8
		C1018.8,149.8,1001.6,132.9,1001.6,112L1001.6,112z"/>
	<path class="st1" d="M1001.6,112c0-20.9,17.2-37.8,38.5-37.8c21.3,0,38.5,16.9,38.5,37.8c0,20.9-17.2,37.8-38.5,37.8
		C1018.8,149.8,1001.6,132.9,1001.6,112L1001.6,112z"/>
	<text transform="matrix(0.9995 0 0 1 1021.3574 175.749)"><tspan x="0" y="0" class="st3 st4 st5">E</tspan><tspan x="7.6" y="0" class="st3 st4 st5">m</tspan><tspan x="20.2" y="0" class="st3 st4 st5">a</tspan><tspan x="27.8" y="0" class="st3 st4 st5">i</tspan><tspan x="32" y="0" class="st3 st4 st5">l</tspan></text>
	<text transform="matrix(0.9995 0 0 1 1055.4902 175.749)" class="st3 st4 st7"> </text>
	<path class="st0" d="M1024.7,246.9c0-25.1,20.9-45.5,46.6-45.5c25.7,0,46.6,20.4,46.6,45.5s-20.9,45.5-46.6,45.5
		C1045.6,292.4,1024.7,272.1,1024.7,246.9L1024.7,246.9z"/>
	<path class="st1" d="M1024.7,246.9c0-25.1,20.9-45.5,46.6-45.5c25.7,0,46.6,20.4,46.6,45.5s-20.9,45.5-46.6,45.5
		C1045.6,292.4,1024.7,272.1,1024.7,246.9L1024.7,246.9z"/>
	<path class="st2" d="M1032.4,247.3c0-21.5,17.2-38.9,38.5-38.9c21.3,0,38.5,17.4,38.5,38.9s-17.2,38.9-38.5,38.9
		C1049.7,286.3,1032.4,268.8,1032.4,247.3L1032.4,247.3z"/>
	<path class="st1" d="M1032.4,247.3c0-21.5,17.2-38.9,38.5-38.9c21.3,0,38.5,17.4,38.5,38.9s-17.2,38.9-38.5,38.9
		C1049.7,286.3,1032.4,268.8,1032.4,247.3L1032.4,247.3z"/>
	<text transform="matrix(0.9995 0 0 1 1012.2637 314.3379)"><tspan x="0" y="0" class="st3 st4 st5">P</tspan><tspan x="8.4" y="0" class="st3 st4 st5">u</tspan><tspan x="16.9" y="0" class="st3 st4 st5">s</tspan><tspan x="23.6" y="0" class="st3 st4 st5">h</tspan><tspan x="32" y="0" class="st3 st4 st5"> </tspan><tspan x="35.4" y="0" class="st3 st4 st5">N</tspan><tspan x="46.3" y="0" class="st3 st4 st5">o</tspan><tspan x="54.8" y="0" class="st3 st4 st5">tifi</tspan><tspan x="73.5" y="0" class="st3 st4 st5">ca</tspan><tspan x="80.3" y="0" class="st3 st4 st5">t</tspan><tspan x="87.9" y="0" class="st3 st4 st5">i</tspan><tspan x="97.5" y="0" class="st3 st4 st5">o</tspan><tspan x="105.9" y="0" class="st3 st4 st5">n</tspan><tspan x="114.4" y="0" class="st3 st4 st5">s</tspan></text>
	<text transform="matrix(0.9995 0 0 1 1127.2148 314.3379)" class="st3 st4 st7"> </text>
	<path class="st0" d="M1024.7,389.2c0-24.1,21-43.6,47-43.6c26,0,47,19.5,47,43.6s-21,43.6-47,43.6
		C1045.7,432.7,1024.7,413.2,1024.7,389.2L1024.7,389.2z"/>
	<path class="st1" d="M1024.7,389.2c0-24.1,21-43.6,47-43.6c26,0,47,19.5,47,43.6s-21,43.6-47,43.6
		C1045.7,432.7,1024.7,413.2,1024.7,389.2L1024.7,389.2z"/>
	<path class="st2" d="M1033.2,389.2c0-20.6,17.2-37.4,38.5-37.4c21.3,0,38.5,16.7,38.5,37.4c0,20.6-17.2,37.4-38.5,37.4
		C1050.4,426.5,1033.2,409.8,1033.2,389.2L1033.2,389.2z"/>
	<path class="st1" d="M1033.2,389.2c0-20.6,17.2-37.4,38.5-37.4c21.3,0,38.5,16.7,38.5,37.4c0,20.6-17.2,37.4-38.5,37.4
		C1050.4,426.5,1033.2,409.8,1033.2,389.2L1033.2,389.2z"/>
	<text transform="matrix(0.9995 0 0 1 1006.8418 455.1309)"><tspan x="0" y="0" class="st3 st4 st5">B</tspan><tspan x="9.3" y="0" class="st3 st4 st5">r</tspan><tspan x="15.1" y="0" class="st3 st4 st5">o</tspan><tspan x="23.6" y="0" class="st3 st4 st5">w</tspan><tspan x="35.4" y="0" class="st3 st4 st5">se</tspan><tspan x="50.5" y="0" class="st3 st4 st5">r</tspan><tspan x="56.4" y="0" class="st3 st4 st5 st6"> </tspan><tspan x="58.9" y="0" class="st3 st4 st5">N</tspan><tspan x="69.8" y="0" class="st3 st4 st5">o</tspan><tspan x="78.3" y="0" class="st3 st4 st5">tif</tspan><tspan x="87.9" y="0" class="st3 st4 st5">i</tspan><tspan x="96.2" y="0" class="st3 st4 st5">ca</tspan><tspan x="102.9" y="0" class="st3 st4 st5">t</tspan><tspan x="110.5" y="0" class="st3 st4 st5">i</tspan><tspan x="119.3" y="0" class="st3 st4 st5">o</tspan><tspan x="127.8" y="0" class="st3 st4 st5">n</tspan><tspan x="136.2" y="0" class="st3 st4 st5">s</tspan></text>
	<text transform="matrix(0.9995 0 0 1 1143.5918 455.1309)" class="st3 st4 st7"> </text>
	<path class="st0" d="M887.6,469.3c0-22.4,20.9-40.5,46.6-40.5s46.6,18.1,46.6,40.5c0,22.4-20.9,40.5-46.6,40.5
		S887.6,491.7,887.6,469.3L887.6,469.3z"/>
	<path class="st1" d="M887.6,469.3c0-22.4,20.9-40.5,46.6-40.5s46.6,18.1,46.6,40.5c0,22.4-20.9,40.5-46.6,40.5
		S887.6,491.7,887.6,469.3L887.6,469.3z"/>
	<path class="st2" d="M897.6,470.5c0-19.2,15.9-34.7,35.4-34.7c19.6,0,35.4,15.5,35.4,34.7c0,19.2-15.9,34.7-35.4,34.7
		C913.4,505.2,897.6,489.6,897.6,470.5L897.6,470.5z"/>
	<path class="st1" d="M897.6,470.5c0-19.2,15.9-34.7,35.4-34.7c19.6,0,35.4,15.5,35.4,34.7c0,19.2-15.9,34.7-35.4,34.7
		C913.4,505.2,897.6,489.6,897.6,470.5L897.6,470.5z"/>
	<text transform="matrix(0.9995 0 0 1 867.6836 534.6787)"><tspan x="0" y="0" class="st3 st4 st5 st6">W</tspan><tspan x="13.5" y="0" class="st3 st4 st5">e</tspan><tspan x="21.9" y="0" class="st3 st4 st5">b</tspan><tspan x="30.3" y="0" class="st3 st4 st5">s</tspan><tspan x="37" y="0" class="st3 st4 st5">i</tspan><tspan x="41.2" y="0" class="st3 st4 st5">t</tspan><tspan x="47.1" y="0" class="st3 st4 st5">e</tspan><tspan x="55.5" y="0" class="st3 st4 st5 st6"> </tspan><tspan x="58.1" y="0" class="st3 st4 st5">E</tspan><tspan x="65.6" y="0" class="st3 st4 st5">n</tspan><tspan x="74.1" y="0" class="st3 st4 st5">g</tspan><tspan x="81.7" y="0" class="st3 st4 st5">a</tspan><tspan x="89.3" y="0" class="st3 st4 st5">g</tspan><tspan x="96.8" y="0" class="st3 st4 st5">e</tspan><tspan x="105.2" y="0" class="st3 st4 st5">m</tspan><tspan x="117.9" y="0" class="st3 st4 st5">e</tspan><tspan x="126.3" y="0" class="st3 st4 st5">n</tspan><tspan x="134.7" y="0" class="st3 st4 st5">t</tspan></text>
	<text transform="matrix(0.9995 0 0 1 1002.5801 534.6787)" class="st3 st4 st7"> </text>
	<text transform="matrix(0.9995 0 0 1 710.3828 257.3555)"><tspan x="0" y="0" class="st3 st4 st5">M</tspan><tspan x="14.3" y="0" class="st3 st4 st5">a</tspan><tspan x="21.9" y="0" class="st3 st4 st5">r</tspan><tspan x="27.8" y="0" class="st3 st4 st5">k</tspan><tspan x="34.5" y="0" class="st3 st4 st5">e</tspan><tspan x="42.9" y="0" class="st3 st4 st5">ti</tspan><tspan x="52.6" y="0" class="st3 st4 st5">n</tspan><tspan x="61" y="0" class="st3 st4 st5">g</tspan><tspan x="68.6" y="0" class="st3 st4 st5 st6"> </tspan><tspan x="71.1" y="0" class="st3 st4 st5">A</tspan><tspan x="81.2" y="0" class="st3 st4 st5">u</tspan><tspan x="89.6" y="0" class="st3 st4 st5">t</tspan><tspan x="95.5" y="0" class="st3 st4 st5">o</tspan><tspan x="103.9" y="0" class="st3 st4 st5">m</tspan><tspan x="116.6" y="0" class="st3 st4 st5">at</tspan><tspan x="124.2" y="0" class="st3 st4 st5">i</tspan><tspan x="133.8" y="0" class="st3 st4 st5">o</tspan><tspan x="142.2" y="0" class="st3 st4 st5">n</tspan><tspan x="150.7" y="0" class="st3 st4 st5"> </tspan></text>
	<text transform="matrix(0.9995 0 0 1 851.3789 257.3555)" class="st3 st4 st7"> </text>
	<text transform="matrix(0.9995 0 0 1 709.6094 275.0889)"><tspan x="0" y="0" class="st3 st4 st5">P</tspan><tspan x="8.4" y="0" class="st3 st4 st5">l</tspan><tspan x="12.6" y="0" class="st3 st4 st5">a</tspan><tspan x="20.2" y="0" class="st3 st4 st5">tf</tspan><tspan x="30.4" y="0" class="st3 st4 st5">o</tspan><tspan x="38.8" y="0" class="st3 st4 st5">r</tspan><tspan x="44.7" y="0" class="st3 st4 st5">m</tspan><tspan x="57.3" y="0" class="st3 st4 st5">s</tspan><tspan x="64" y="0" class="st3 st4 st5 st6"> </tspan><tspan x="66.6" y="0" class="st3 st4 st5">&amp;</tspan><tspan x="77.5" y="0" class="st3 st4 st5"> </tspan><tspan x="80.9" y="0" class="st3 st4 st5">M</tspan><tspan x="95.2" y="0" class="st3 st4 st5">ess</tspan><tspan x="117.1" y="0" class="st3 st4 st5">a</tspan><tspan x="124.7" y="0" class="st3 st4 st5">g</tspan><tspan x="132.2" y="0" class="st3 st4 st5">i</tspan><tspan x="136.5" y="0" class="st3 st4 st5">n</tspan><tspan x="144.9" y="0" class="st3 st4 st5">g </tspan></text>
	<text transform="matrix(0.9995 0 0 1 749.6758 292.0498)"><tspan x="0" y="0" class="st3 st4 st5">G</tspan><tspan x="10.1" y="0" class="st3 st4 st5">a</tspan><tspan x="17.7" y="0" class="st3 st4 st5">t</tspan><tspan x="23.6" y="0" class="st3 st4 st5">e</tspan><tspan x="32" y="0" class="st3 st4 st5">w</tspan><tspan x="43.8" y="0" class="st3 st4 st5">a</tspan><tspan x="51.4" y="0" class="st3 st4 st5">ys</tspan></text>
	<text transform="matrix(0.9995 0 0 1 809.7676 292.0498)" class="st3 st4 st7"> </text>
	<path class="st0" d="M363.6,474.7c0-21.5,17.4-38.9,38.9-38.9c21.5,0,38.9,17.4,38.9,38.9s-17.4,38.9-38.9,38.9
		C381,513.7,363.6,496.2,363.6,474.7L363.6,474.7z"/>
	<path class="st1" d="M363.6,474.7c0-21.5,17.4-38.9,38.9-38.9c21.5,0,38.9,17.4,38.9,38.9s-17.4,38.9-38.9,38.9
		C381,513.7,363.6,496.2,363.6,474.7L363.6,474.7z"/>
	<path class="st2" d="M370.6,474.3c0-18.3,14.3-33.1,32-33.1s32,14.8,32,33.1c0,18.3-14.3,33.1-32,33.1S370.6,492.6,370.6,474.3
		L370.6,474.3z"/>
	<path class="st1" d="M370.6,474.3c0-18.3,14.3-33.1,32-33.1s32,14.8,32,33.1c0,18.3-14.3,33.1-32,33.1S370.6,492.6,370.6,474.3
		L370.6,474.3z"/>
	<text transform="matrix(0.9995 0 0 1 341.3237 537.0576)"><tspan x="0" y="0" class="st3 st4 st5">P</tspan><tspan x="8.4" y="0" class="st3 st4 st5">r</tspan><tspan x="14.3" y="0" class="st3 st4 st5">o</tspan><tspan x="22.7" y="0" class="st3 st4 st5">du</tspan><tspan x="39.6" y="0" class="st3 st4 st5">c</tspan><tspan x="46.3" y="0" class="st3 st4 st5">t</tspan><tspan x="52.2" y="0" class="st3 st4 st5 st6"> </tspan><tspan x="54.7" y="0" class="st3 st4 st5">M</tspan><tspan x="69" y="0" class="st3 st4 st5">e</tspan><tspan x="77.4" y="0" class="st3 st4 st5">t</tspan><tspan x="83.3" y="0" class="st3 st4 st5">a</tspan><tspan x="90.9" y="0" class="st3 st4 st5">d</tspan><tspan x="99.3" y="0" class="st3 st4 st5">a</tspan><tspan x="106.9" y="0" class="st3 st4 st5">t</tspan><tspan x="112.8" y="0" class="st3 st4 st5">a</tspan></text>
	<text transform="matrix(0.9995 0 0 1 455.5015 537.0576)" class="st3 st4 st7"> </text>
	<line class="st8" x1="396.8" y1="145.2" x2="491.7" y2="220.5"/>
	<polygon class="st0" points="492.8,217.4 495.7,223.7 488.9,222.3 492.8,217.4 	"/>
	<line class="st8" x1="374.4" y1="198.4" x2="479" y2="246"/>
	<polygon class="st0" points="479.4,242.7 483.7,248.1 476.8,248.3 479.4,242.7 	"/>
	<line class="st8" x1="332.8" y1="272.4" x2="470" y2="272.4"/>
	<polygon class="st0" points="469,269.3 475.1,272.4 469,275.5 469,269.3 	"/>
	<line class="st8" x1="370.6" y1="356.3" x2="478.6" y2="312.1"/>
	<polygon class="st0" points="478.8,315.3 483.4,310.2 476.5,309.6 478.8,315.3 	"/>
	<line class="st8" x1="446.8" y1="426.5" x2="508.7" y2="355.7"/>
	<polygon class="st0" points="510.3,358.5 512.1,351.8 505.7,354.4 510.3,358.5 	"/>
	<line class="st8" x1="613.3" y1="267.8" x2="686.2" y2="267.8"/>
	<polygon class="st0" points="685.2,264.7 691.4,267.8 685.2,270.8 685.2,264.7 	"/>
	<line class="st8" x1="846" y1="219.4" x2="923.4" y2="153.2"/>
	<polygon class="st0" points="924.6,156.2 927.3,149.8 920.6,151.5 924.6,156.2 	"/>
	<line class="st8" x1="865.2" y1="235.6" x2="992.2" y2="173.7"/>
	<polygon class="st0" points="992.6,176.9 996.8,171.4 989.9,171.3 992.6,176.9 	"/>
	<line class="st8" x1="876.8" y1="259.5" x2="1010.5" y2="254.8"/>
	<polygon class="st0" points="1009.6,257.9 1015.6,254.7 1009.3,251.8 1009.6,257.9 	"/>
	<line class="st8" x1="872.9" y1="300.1" x2="1007.8" y2="365.5"/>
	<polygon class="st0" points="1008.2,362.3 1012.4,367.8 1005.5,367.9 1008.2,362.3 	"/>
	<line class="st8" x1="834.4" y1="318.6" x2="901.8" y2="414.1"/>
	<polygon class="st0" points="903.7,411.4 904.8,418.3 898.7,415 903.7,411.4 	"/>
	<g>
		<path class="st9" d="M1041.3,92.1l-19.4,14.5v23h38.7v-23L1041.3,92.1z M1035.9,102.4c0.6-1,1.4-1.8,2.3-2.3
			c1-0.5,2.1-0.8,3.4-0.8c1.1,0,2,0.2,2.9,0.6c0.8,0.4,1.5,1,1.9,1.8c0.4,0.8,0.7,1.6,0.7,2.5c0,1.1-0.3,2.1-1,3
			c-0.8,1.1-1.9,1.7-3.3,1.7c-0.4,0-0.6-0.1-0.8-0.2c-0.2-0.1-0.3-0.3-0.4-0.5c-0.5,0.5-1.1,0.7-1.7,0.7c-0.7,0-1.3-0.2-1.8-0.7
			c-0.5-0.5-0.7-1.1-0.7-2c0-1,0.3-1.9,0.8-2.8c0.7-1,1.6-1.5,2.6-1.5c0.8,0,1.3,0.3,1.7,0.9l0.2-0.7h1.7l-1,4.6
			c-0.1,0.3-0.1,0.5-0.1,0.6c0,0.1,0,0.2,0.1,0.2c0,0.1,0.1,0.1,0.2,0.1c0.2,0,0.5-0.1,0.8-0.4c0.4-0.3,0.8-0.8,1.1-1.3
			c0.3-0.5,0.4-1.1,0.4-1.7c0-1.1-0.4-1.9-1.1-2.7c-0.8-0.7-1.8-1.1-3.2-1.1c-1.2,0-2.2,0.2-3,0.7c-0.8,0.5-1.4,1.1-1.8,2
			c-0.4,0.9-0.6,1.8-0.6,2.7c0,0.9,0.2,1.7,0.7,2.5c0.5,0.7,1.1,1.3,1.9,1.6c0.8,0.3,1.8,0.5,2.8,0.5c1,0,1.9-0.1,2.6-0.4
			c0.7-0.3,1.3-0.7,1.8-1.3h1.4c-0.4,0.9-1.1,1.6-2,2.1c-1,0.6-2.3,0.8-3.7,0.8c-1.4,0-2.6-0.2-3.7-0.7c-1-0.5-1.8-1.2-2.3-2.1
			c-0.5-0.9-0.7-2-0.7-3.1C1035.1,104.6,1035.3,103.4,1035.9,102.4z M1023.3,107l14.3,9.6l-14.3,11.1V107z M1024.4,128.4l16.9-13.1
			l16.9,13.1H1024.4z M1059.3,127.6l-14.3-11.1l14.3-9.6L1059.3,127.6L1059.3,127.6z M1042,103.4c0.2,0.3,0.3,0.6,0.3,1.1
			c0,0.4-0.1,0.9-0.2,1.4c-0.2,0.5-0.4,0.9-0.6,1.1c-0.2,0.2-0.3,0.3-0.5,0.4c-0.2,0.1-0.4,0.2-0.7,0.2c-0.3,0-0.6-0.1-0.8-0.4
			c-0.2-0.3-0.3-0.7-0.3-1.2c0-0.4,0.1-0.9,0.2-1.4c0.2-0.5,0.4-0.9,0.7-1.2c0.3-0.3,0.7-0.4,1-0.4
			C1041.5,103,1041.8,103.2,1042,103.4z"/>
	</g>
	<g>
		<path class="st9" d="M934.6,60.4c-0.3,0-0.6,0.3-0.6,0.6v6.2h-15.5V51.7h4.7c0.3,0,0.6-0.3,0.6-0.6s-0.3-0.6-0.6-0.6h-4.7v-2.6
			c0-1.1,0.9-2,2-2h0.9c0.3,0,0.6-0.3,0.6-0.6s-0.3-0.6-0.6-0.6h-0.9c-1.8,0-3.2,1.4-3.2,3.2v23.2c0,1.8,1.4,3.2,3.2,3.2H932
			c1.8,0,3.2-1.4,3.2-3.2V61C935.2,60.7,934.9,60.4,934.6,60.4z M932,73h-11.6c-1.1,0-2-0.9-2-2v-2.6H934v2.6
			C934,72.1,933.1,73,932,73z"/>
		<path class="st9" d="M929,45.6c-0.9-0.1-0.9-0.2-0.9-0.4c0-0.3,0.5-0.4,0.8-0.4c0.5,0,0.8,0.2,0.8,0.3c0.1,0.3,0.5,0.5,0.8,0.4
			c0.3-0.1,0.5-0.5,0.4-0.8c-0.3-0.7-1-1.1-2-1.1c-1.2,0-2.1,0.7-2.1,1.6c0,1.3,1.2,1.5,2,1.6c0.9,0.1,0.9,0.2,0.9,0.4
			c0,0.3-0.5,0.4-0.8,0.4c-0.5,0-0.8-0.2-0.8-0.3c-0.1-0.3-0.5-0.5-0.8-0.4c-0.3,0.1-0.5,0.5-0.4,0.8c0.3,0.7,1,1.1,2,1.1
			c1.2,0,2.1-0.7,2.1-1.6C931,45.9,929.8,45.7,929,45.6z"/>
		<path class="st9" d="M940.3,45.6c-0.9-0.1-0.9-0.2-0.9-0.4c0-0.3,0.5-0.4,0.8-0.4c0.5,0,0.8,0.2,0.8,0.3c0.1,0.3,0.5,0.5,0.8,0.4
			c0.3-0.1,0.5-0.5,0.4-0.8c-0.3-0.7-1-1.1-2-1.1c-1.2,0-2.1,0.7-2.1,1.6c0,1.3,1.2,1.5,2,1.6c0.9,0.1,0.9,0.2,0.9,0.4
			c0,0.3-0.5,0.4-0.8,0.4c-0.5,0-0.8-0.2-0.8-0.3c-0.1-0.3-0.5-0.5-0.8-0.4c-0.3,0.1-0.5,0.5-0.4,0.8c0.3,0.7,1,1.1,2,1.1
			c1.2,0,2.1-0.7,2.1-1.6C942.3,45.9,941.1,45.7,940.3,45.6z"/>
		<path class="st9" d="M936.5,43.6c-0.2-0.1-0.5,0-0.7,0.2l-1.3,1.5l-1.3-1.5c-0.2-0.2-0.4-0.3-0.7-0.2c-0.2,0.1-0.4,0.3-0.4,0.6
			v4.1c0,0.3,0.3,0.6,0.6,0.6s0.6-0.3,0.6-0.6v-2.4l0.7,0.8c0.1,0.1,0.3,0.2,0.5,0.2c0.2,0,0.4-0.1,0.5-0.2l0.7-0.8v2.4
			c0,0.3,0.3,0.6,0.6,0.6c0.3,0,0.6-0.3,0.6-0.6v-4.1C937,43.9,936.8,43.7,936.5,43.6z"/>
		<path class="st9" d="M942.6,39.6c-2.2-1.7-5-2.7-8.1-2.7s-5.9,0.9-8.1,2.7c-2.2,1.7-3.4,4.1-3.4,6.6c0,4.4,3.8,8.1,9,9
			c0.1,1.4-0.4,2.7-1.4,3.7c-0.2,0.2-0.2,0.4-0.1,0.7c0.1,0.2,0.3,0.4,0.6,0.4c2.8,0,5.2-2,5.8-4.7c5.3-0.9,9.1-4.6,9.1-9
			C946.1,43.7,944.8,41.4,942.6,39.6z M936.4,54.1c-0.3,0-0.6,0.3-0.5,0.7c0,0,0,0,0,0c-0.3,1.8-1.6,3.3-3.2,3.8
			c0.6-1.1,0.9-2.5,0.7-3.8c0,0,0,0,0,0c0-0.3-0.2-0.6-0.5-0.7c-4.9-0.7-8.5-4-8.5-7.9c0-4.4,4.6-8,10.2-8c5.6,0,10.2,3.6,10.2,8
			C944.8,50.1,941.3,53.4,936.4,54.1z"/>
	</g>
	<g>
		<path class="st10" d="M1088.5,251.4h-1.2v-6.9c0-3.2-2.2-5.9-5.1-6.6c0.3-0.4,0.5-0.9,0.5-1.4c0-1.3-1-2.3-2.3-2.3s-2.3,1-2.3,2.3
			c0,0.5,0.2,1,0.5,1.4c-2.9,0.8-5.1,3.5-5.1,6.6v6.9h-1.2c-0.6,0-1.2,0.5-1.2,1.2s0.5,1.2,1.2,1.2h16.1c0.6,0,1.2-0.5,1.2-1.2
			S1089.2,251.4,1088.5,251.4z"/>
		<path class="st10" d="M1080.5,258.3c1.5,0,2.8-1,3.2-2.3h-6.5C1077.7,257.3,1079,258.3,1080.5,258.3z"/>
		<path class="st10" d="M1074.8,256h-2.4c-1.9,0-3.5-1.5-3.5-3.5c0-1.5,1-2.8,2.3-3.3v-4.8c0-3.4,1.9-6.3,4.6-7.9c0,0,0-0.1,0-0.1
			c0-0.4,0.1-0.8,0.2-1.2h-16.3v23h16.1C1075.4,257.6,1075,256.8,1074.8,256z"/>
		<path class="st10" d="M1071.3,261.7c0,0.6-0.5,1.2-1.2,1.2s-1.2-0.5-1.2-1.2v-1.2h-9.2v5.8c0,0.6,0.5,1.2,1.2,1.2h18.4
			c0.6,0,1.2-0.5,1.2-1.2v-5.8h-9.2V261.7z"/>
		<path class="st10" d="M1080.5,231.8v-2.4c0-0.6-0.5-1.2-1.2-1.2h-18.4c-0.6,0-1.2,0.5-1.2,1.2v3.5h17.7
			C1078.3,232.2,1079.3,231.8,1080.5,231.8z"/>
	</g>
	<path class="st11" d="M1057.7,377.3c-0.3-0.4-1-0.3-1.1,0.2c-0.1,0.5,0.5,0.9,1,0.6C1057.8,377.9,1057.9,377.5,1057.7,377.3z"/>
	<path class="st11" d="M1061.8,377.3c-0.3-0.4-1-0.3-1.1,0.2c-0.1,0.5,0.5,0.9,1,0.6C1061.9,377.9,1062,377.5,1061.8,377.3z"/>
	<path class="st11" d="M1059.8,377.3c-0.3-0.4-1-0.3-1.1,0.2c-0.1,0.5,0.5,0.9,1,0.6C1059.9,377.9,1059.9,377.5,1059.8,377.3z"/>
	<path class="st11" d="M1091.9,382.7v-2.5c0-0.3-0.3-0.6-0.6-0.6c-0.3,0-0.6,0.3-0.6,0.6v2.5h-13.1v-5.7c0-3.6,2.9-6.6,6.6-6.6
		c3.6,0,6.6,2.9,6.6,6.6v1.2c0,0.3,0.3,0.6,0.6,0.6s0.6-0.3,0.6-0.6v-1.2c0-3.6-2.4-6.6-5.7-7.5v-1.8c0-1-0.8-1.7-1.7-1.7h-0.6
		c-1,0-1.7,0.8-1.7,1.7v1.8c-2.5,0.7-4.5,2.6-5.3,5.1h-20.3c-1.5,0-2.7,1.2-2.7,2.7v20.5c0,0.3,0.3,0.6,0.6,0.6
		c0.3,0,0.6-0.3,0.6-0.6v-17.4h20c0.3,0,0.6-0.3,0.6-0.6c0-0.3-0.3-0.6-0.6-0.6h-20v-1.9c0-0.8,0.7-1.5,1.5-1.5h20
		c-0.1,0.4-0.1,0.8-0.1,1.2v5.7c-1.4,0.3-2.4,1.5-2.4,3c0,1.7,1.4,3,3,3h4c0.3,1.5,1.6,2.7,3.2,2.7s2.9-1.1,3.2-2.7h0.4v15.1
		c0,0.8-0.7,1.5-1.5,1.5h-29.7c-0.8,0-1.5-0.7-1.5-1.5v-4c0-0.3-0.3-0.6-0.6-0.6c-0.3,0-0.6,0.3-0.6,0.6v4c0,1.5,1.2,2.7,2.7,2.7
		h29.7c1.5,0,2.7-1.2,2.7-2.7v-15.1h2.4c1.7,0,3-1.4,3-3C1094.3,384.2,1093.3,382.9,1091.9,382.7z M1083.3,367.7
		c0-0.3,0.2-0.5,0.5-0.5h0.6c0.3,0,0.5,0.2,0.5,0.5v1.5c-0.3,0-0.5,0-0.8,0s-0.6,0-0.8,0L1083.3,367.7L1083.3,367.7z M1084.2,390.1
		c-0.9,0-1.7-0.6-2-1.5h3.9C1085.9,389.5,1085.1,390.1,1084.2,390.1z M1091.3,387.4H1077c-1,0-1.8-0.8-1.8-1.8c0-1,0.8-1.8,1.8-1.8
		c0,0,0,0,0,0c0,0,0,0,0,0h14.3c0,0,0,0,0,0c0,0,0,0,0,0c1,0,1.8,0.8,1.8,1.8C1093.1,386.6,1092.3,387.4,1091.3,387.4z"/>
	<path class="st11" d="M1057.2,392.8v1c0,0.6,0.4,1.2,1,1.4l0.8,6.3c0.2,1.2,1.2,2.1,2.4,2.1h8c1.2,0,2.3-0.9,2.4-2.1l0.8-6.3
		c0.6-0.2,1-0.7,1-1.4v-1c0-0.8-0.6-1.4-1.4-1.4h-4.9v-1.8c0-1.1-0.9-2-2-2c-1.1,0-2,0.9-2,2v1.8h-4.9
		C1057.9,391.4,1057.2,392,1057.2,392.8z M1070.7,401.3c-0.1,0.6-0.6,1.1-1.2,1.1h-8c-0.6,0-1.2-0.5-1.2-1.1l-0.8-6.1h4.1v0.8
		c0,1.1,0.9,2,2,2c1.1,0,2-0.9,2-2v-0.8h4.1L1070.7,401.3z M1072.3,392.6c0.1,0,0.2,0.1,0.2,0.2v1c0,0.1-0.1,0.2-0.2,0.2h-4.9v-1.4
		H1072.3z M1064.7,389.5c0-0.4,0.3-0.8,0.8-0.8c0.4,0,0.8,0.3,0.8,0.8v6.5c0,0.4-0.3,0.8-0.8,0.8c-0.4,0-0.8-0.3-0.8-0.8V389.5z
		 M1058.4,392.8c0-0.1,0.1-0.2,0.2-0.2h4.9v1.4h-4.9c-0.1,0-0.2-0.1-0.2-0.2V392.8z"/>
	<path class="st11" d="M1058.9,383.1h11.4c0.3,0,0.6-0.3,0.6-0.6c0-0.3-0.3-0.6-0.6-0.6h-11.4c-0.3,0-0.6,0.3-0.6,0.6
		C1058.3,382.9,1058.5,383.1,1058.9,383.1z"/>
	<path class="st11" d="M1058.9,386h7.7c0.3,0,0.6-0.3,0.6-0.6c0-0.3-0.3-0.6-0.6-0.6h-7.7c-0.3,0-0.6,0.3-0.6,0.6
		C1058.3,385.7,1058.5,386,1058.9,386z"/>
	<path class="st11" d="M1076.8,397.8h7.7c0.3,0,0.6-0.3,0.6-0.6s-0.3-0.6-0.6-0.6h-7.7c-0.3,0-0.6,0.3-0.6,0.6
		S1076.5,397.8,1076.8,397.8z"/>
	<path class="st11" d="M1076.8,400.7h7.7c0.3,0,0.6-0.3,0.6-0.6c0-0.3-0.3-0.6-0.6-0.6h-7.7c-0.3,0-0.6,0.3-0.6,0.6
		C1076.2,400.4,1076.5,400.7,1076.8,400.7z"/>
	<g>
		<path class="st12" d="M921,456.2c-0.8,0-1.4,0.6-1.4,1.4c0,0.8,0.6,1.4,1.4,1.4c0.8,0,1.4-0.6,1.4-1.4
			C922.5,456.8,921.8,456.2,921,456.2z M921,458.1c-0.3,0-0.5-0.2-0.5-0.5c0-0.3,0.2-0.5,0.5-0.5c0.3,0,0.5,0.2,0.5,0.5
			C921.5,457.9,921.3,458.1,921,458.1z"/>
		<path class="st12" d="M924.7,456.2c-0.8,0-1.4,0.6-1.4,1.4c0,0.8,0.6,1.4,1.4,1.4s1.4-0.6,1.4-1.4
			C926.1,456.8,925.5,456.2,924.7,456.2z M924.7,458.1c-0.3,0-0.5-0.2-0.5-0.5c0-0.3,0.2-0.5,0.5-0.5c0.3,0,0.5,0.2,0.5,0.5
			C925.1,457.9,924.9,458.1,924.7,458.1z"/>
		<path class="st12" d="M928.4,456.2c-0.8,0-1.4,0.6-1.4,1.4c0,0.8,0.6,1.4,1.4,1.4c0.8,0,1.4-0.6,1.4-1.4
			C929.8,456.8,929.1,456.2,928.4,456.2z M928.4,458.1c-0.3,0-0.5-0.2-0.5-0.5c0-0.3,0.2-0.5,0.5-0.5c0.3,0,0.5,0.2,0.5,0.5
			C928.8,457.9,928.6,458.1,928.4,458.1z"/>
		<path class="st12" d="M950.4,464c0.3,0,0.5-0.2,0.5-0.5l0-7c0-1.2-1-2.2-2.2-2.2h-29.2c-1.2,0-2.2,1-2.2,2.2v23.8
			c0,1.1,0.8,2,1.8,2.1c0.1,0,0.2,0,0.3,0h9.6v1.8h-1.5c-1,0-1.8,0.8-1.8,1.8v1.1c0,0.5,0.4,0.8,0.8,0.8h2.3c0.3,0,0.5-0.2,0.5-0.5
			c0-0.3-0.2-0.5-0.5-0.5h-2.2v-0.9c0-0.4,0.4-0.8,0.8-0.8h13.1c0.4,0,0.8,0.4,0.8,0.8v0.9H932c-0.3,0-0.5,0.2-0.5,0.5
			c0,0.3,0.2,0.5,0.5,0.5h9.6c0.5,0,0.8-0.4,0.8-0.8v-1.1c0-1-0.8-1.8-1.8-1.8h-1.5v-1.8h9.6c0.1,0,0.2,0,0.3,0
			c1-0.2,1.8-1.1,1.8-2.1v-13.7c0-0.3-0.2-0.5-0.5-0.5c-0.3,0-0.5,0.2-0.5,0.5v10.8h-15.4V461h15.4v2.5
			C949.9,463.8,950.2,464,950.4,464z M918.4,461h15.2v16.4h-15.2V461z M938.2,484.1h-8.1v-1.8h8.1V484.1z M949.9,478.4v1.9
			c0,0.6-0.5,1.1-1.1,1.2c0,0-0.1,0-0.1,0h-29.2c0,0-0.1,0-0.1,0c-0.6-0.1-1.1-0.6-1.1-1.2v-1.9H949.9z M934.1,460h-15.7v-3.5
			c0-0.7,0.5-1.2,1.2-1.2h29.2c0.7,0,1.2,0.5,1.2,1.2v3.5H934.1z"/>
		<path class="st12" d="M920.5,462.9h2.5c0.3,0,0.5-0.2,0.5-0.5c0-0.3-0.2-0.5-0.5-0.5h-2.5c-0.3,0-0.5,0.2-0.5,0.5
			C920,462.7,920.2,462.9,920.5,462.9z"/>
		<path class="st12" d="M924.7,462.9h1.2c0.3,0,0.5-0.2,0.5-0.5c0-0.3-0.2-0.5-0.5-0.5h-1.2c-0.3,0-0.5,0.2-0.5,0.5
			C924.2,462.7,924.4,462.9,924.7,462.9z"/>
		<path class="st12" d="M924.2,463.7h-1.6c-0.3,0-0.5,0.2-0.5,0.5c0,0.3,0.2,0.5,0.5,0.5h1.6c0.3,0,0.5-0.2,0.5-0.5
			C924.7,463.9,924.5,463.7,924.2,463.7z"/>
		<path class="st12" d="M931.9,465.5h-1.6c-0.3,0-0.5,0.2-0.5,0.5s0.2,0.5,0.5,0.5h1.6c0.3,0,0.5-0.2,0.5-0.5
			S932.2,465.5,931.9,465.5z"/>
		<path class="st12" d="M925.2,464.2c0,0.3,0.2,0.5,0.5,0.5h3.9c0.3,0,0.5-0.2,0.5-0.5c0-0.3-0.2-0.5-0.5-0.5h-3.9
			C925.4,463.7,925.2,463.9,925.2,464.2z"/>
		<path class="st12" d="M923.6,466c0,0.3,0.2,0.5,0.5,0.5h0.9c0.3,0,0.5-0.2,0.5-0.5s-0.2-0.5-0.5-0.5h-0.9
			C923.9,465.5,923.6,465.7,923.6,466z"/>
		<path class="st12" d="M928.8,466.5c0.3,0,0.5-0.2,0.5-0.5s-0.2-0.5-0.5-0.5h-2.4c-0.3,0-0.5,0.2-0.5,0.5s0.2,0.5,0.5,0.5H928.8z"
			/>
		<path class="st12" d="M923.4,472.3c0-0.3-0.2-0.5-0.5-0.5h-2.5c-0.3,0-0.5,0.2-0.5,0.5c0,0.3,0.2,0.5,0.5,0.5h2.5
			C923.2,472.8,923.4,472.6,923.4,472.3z"/>
		<path class="st12" d="M924.7,471.8c-0.3,0-0.5,0.2-0.5,0.5c0,0.3,0.2,0.5,0.5,0.5h1.2c0.3,0,0.5-0.2,0.5-0.5
			c0-0.3-0.2-0.5-0.5-0.5H924.7z"/>
		<path class="st12" d="M924.7,474.1c0-0.3-0.2-0.5-0.5-0.5h-1.6c-0.3,0-0.5,0.2-0.5,0.5c0,0.3,0.2,0.5,0.5,0.5h1.6
			C924.5,474.6,924.7,474.3,924.7,474.1z"/>
		<path class="st12" d="M925,475.4h-0.9c-0.3,0-0.5,0.2-0.5,0.5c0,0.3,0.2,0.5,0.5,0.5h0.9c0.3,0,0.5-0.2,0.5-0.5
			C925.5,475.6,925.3,475.4,925,475.4z"/>
		<path class="st12" d="M931.9,475.4h-1.6c-0.3,0-0.5,0.2-0.5,0.5c0,0.3,0.2,0.5,0.5,0.5h1.6c0.3,0,0.5-0.2,0.5-0.5
			C932.4,475.6,932.2,475.4,931.9,475.4z"/>
		<path class="st12" d="M930.1,474.1c0-0.3-0.2-0.5-0.5-0.5h-3.9c-0.3,0-0.5,0.2-0.5,0.5c0,0.3,0.2,0.5,0.5,0.5h3.9
			C929.9,474.6,930.1,474.3,930.1,474.1z"/>
		<path class="st12" d="M928.8,475.4h-2.4c-0.3,0-0.5,0.2-0.5,0.5c0,0.3,0.2,0.5,0.5,0.5h2.4c0.3,0,0.5-0.2,0.5-0.5
			C929.3,475.6,929.1,475.4,928.8,475.4z"/>
		<path class="st12" d="M920.5,468.7h1.4c0.3,0,0.5-0.2,0.5-0.5c0-0.3-0.2-0.5-0.5-0.5h-1.4c-0.3,0-0.5,0.2-0.5,0.5
			C920,468.5,920.2,468.7,920.5,468.7z"/>
		<path class="st12" d="M928.7,468.2c0-0.3-0.2-0.5-0.5-0.5h-5c-0.3,0-0.5,0.2-0.5,0.5c0,0.3,0.2,0.5,0.5,0.5h5
			C928.5,468.7,928.7,468.5,928.7,468.2z"/>
		<path class="st12" d="M927.8,470c0-0.3-0.2-0.5-0.5-0.5h-4.8c-0.3,0-0.5,0.2-0.5,0.5c0,0.3,0.2,0.5,0.5,0.5h4.8
			C927.6,470.4,927.8,470.2,927.8,470z"/>
		<path class="st12" d="M928.7,470.4h0.9c0.3,0,0.5-0.2,0.5-0.5c0-0.3-0.2-0.5-0.5-0.5h-0.9c-0.3,0-0.5,0.2-0.5,0.5
			C928.2,470.2,928.4,470.4,928.7,470.4z"/>
		<path class="st12" d="M939.9,473.3h-3.1c-0.3,0-0.5,0.2-0.5,0.5c0,0.3,0.2,0.5,0.5,0.5h3.1c0.3,0,0.5-0.2,0.5-0.5
			C940.4,473.5,940.1,473.3,939.9,473.3z"/>
		<path class="st12" d="M947.9,473.3h-6.2c-0.3,0-0.5,0.2-0.5,0.5c0,0.3,0.2,0.5,0.5,0.5h6.2c0.3,0,0.5-0.2,0.5-0.5
			C948.4,473.5,948.1,473.3,947.9,473.3z"/>
		<path class="st12" d="M939.9,475.2h-3.1c-0.3,0-0.5,0.2-0.5,0.5c0,0.3,0.2,0.5,0.5,0.5h3.1c0.3,0,0.5-0.2,0.5-0.5
			C940.4,475.4,940.1,475.2,939.9,475.2z"/>
		<path class="st12" d="M947.9,475.2h-6.2c-0.3,0-0.5,0.2-0.5,0.5c0,0.3,0.2,0.5,0.5,0.5h6.2c0.3,0,0.5-0.2,0.5-0.5
			C948.4,475.4,948.1,475.2,947.9,475.2z"/>
		<path class="st12" d="M948.4,463.2c0-0.7-0.6-1.3-1.3-1.3h-9.6c-0.7,0-1.3,0.6-1.3,1.3v6.7v0v1.2c0,0.7,0.6,1.3,1.3,1.3h9.6
			c0.7,0,1.3-0.6,1.3-1.3V463.2z M947.4,471c0,0.2-0.1,0.3-0.3,0.3h-9.6c-0.2,0-0.3-0.1-0.3-0.3v-1l3.6-3.6l2.5,2.8
			c0.2,0.2,0.5,0.2,0.7,0c0.2-0.2,0.2-0.5,0-0.7l-0.2-0.3l1.1-1.1l2.5,2.8V471z M947.4,468.6l-1.9-2.1c-0.1-0.2-0.3-0.3-0.6-0.3
			c-0.2,0-0.4,0.1-0.6,0.2l-1.2,1.2l-1.7-2c-0.1-0.2-0.3-0.3-0.6-0.3c-0.2,0-0.4,0.1-0.6,0.2l-3.1,3.1v-5.5c0-0.2,0.1-0.3,0.3-0.3
			h9.6c0.2,0,0.3,0.1,0.3,0.3V468.6z"/>
	</g>
	<path class="st12" d="M419.5,466.1c0.3-0.2,0.6-0.5,0.6-0.9c0-0.4-0.2-0.7-0.6-0.9l-15.3-7.6c-1.1-0.5-2.3-0.5-3.4,0l-15.3,7.6
		c-0.3,0.2-0.6,0.5-0.6,0.9c0,0.4,0.2,0.7,0.6,0.9l15.3,7.6c0.5,0.3,1.1,0.4,1.7,0.4c0.6,0,1.2-0.1,1.7-0.4L419.5,466.1z"/>
	<path class="st12" d="M385,468.2v13.4c0,0.9,0.5,1.7,1.3,2.1l14.5,7.2c0.2,0.1,0.4,0.2,0.7,0.3v-15.1c-0.5-0.1-1.1-0.3-1.6-0.5
		L385,468.2z"/>
	<path class="st12" d="M403.6,476.1v15.1c0.2-0.1,0.4-0.1,0.7-0.3l14.5-7.2c0.8-0.4,1.3-1.2,1.3-2.1v-13.4l-14.9,7.4
		C404.6,475.8,404.1,476,403.6,476.1z"/>
	<g>
		<g>
			<path class="st13" d="M266.2,405.4c5.6,0,10.1-4.5,10.1-10.1c0-5.6-4.5-10.1-10.1-10.1c-5.6,0-10.1,4.5-10.1,10.1
				C256.1,400.8,260.6,405.4,266.2,405.4z M270.6,388.8c0.3,2.3,2.1,5.6,3.8,7.2c-0.4,4.2-3.9,7.5-8.2,7.5c-3.3,0-6.1-1.9-7.5-4.7
				c1.4,1.8,3.8,3,6.6,3.2c0.1,0,0.3,0,0.5,0c0,0,0.1,0,0.1,0c0,0,0,0,0,0c0.9,0,1.6-0.4,1.6-0.9c0-0.5-0.8-0.9-1.8-0.9
				s-1.8,0.4-1.8,0.9c0,0,0,0.1,0,0.1c-3.3-0.7-5.9-3.1-6-6.1c0-1.1,0.2-2.1,0.6-3C260.8,391.9,270.1,390.1,270.6,388.8z"/>
			<path class="st13" d="M273.8,403.6c-2,1.8-4.7,2.9-7.6,3v0c0,0,0,0-0.1,0c0,0,0,0-0.1,0v0c-2.9,0-5.6-1.1-7.6-3
				c-3.7,0.7-6.4,3.9-6.4,7.8v8.8h14h0.1h14v-8.8C280.2,407.5,277.4,404.3,273.8,403.6z"/>
		</g>
	</g>
	<g>
		<g>
			<path class="st14" d="M278.1,251.2h-27.7c-1.2,0-2.1,1-2.1,2.1v17.6c0,0.3,0.2,0.5,0.5,0.5h30.9c0.3,0,0.5-0.2,0.5-0.5v-17.6
				C280.2,252.2,279.2,251.2,278.1,251.2z M279.1,270.4h-29.8v-17c0-0.6,0.5-1.1,1.1-1.1h27.7c0.6,0,1.1,0.5,1.1,1.1V270.4z"/>
		</g>
	</g>
	<g>
		<g>
			<path class="st14" d="M279.7,270.4h-30.9c-0.3,0-0.5,0.2-0.5,0.5v2.7c0,1.2,1,2.1,2.1,2.1h27.7c1.2,0,2.1-1,2.1-2.1v-2.7
				C280.2,270.6,279.9,270.4,279.7,270.4z M279.1,273.5c0,0.6-0.5,1.1-1.1,1.1h-27.7c-0.6,0-1.1-0.5-1.1-1.1v-2.1h29.8L279.1,273.5
				L279.1,273.5z"/>
		</g>
	</g>
	<g>
		<g>
			<path class="st14" d="M265.8,272.5h-3.2c-0.3,0-0.5,0.2-0.5,0.5c0,0.3,0.2,0.5,0.5,0.5h3.2c0.3,0,0.5-0.2,0.5-0.5
				C266.3,272.7,266.1,272.5,265.8,272.5z"/>
		</g>
	</g>
	<g>
		<g>
			<path class="st14" d="M277.5,253.3h-26.6c-0.3,0-0.5,0.2-0.5,0.5v17c0,0.3,0.2,0.5,0.5,0.5h26.6c0.3,0,0.5-0.2,0.5-0.5v-17
				C278.1,253.6,277.8,253.3,277.5,253.3z M277,270.4h-25.5v-16H277V270.4L277,270.4z"/>
		</g>
	</g>
	<g>
		<g>
			<path class="st14" d="M271.1,278.9h-13.8c-0.9,0-1.6,0.7-1.6,1.6s0.7,1.6,1.6,1.6h13.8c0.9,0,1.6-0.7,1.6-1.6
				S272,278.9,271.1,278.9z M271.1,281h-13.8c-0.3,0-0.5-0.2-0.5-0.5s0.2-0.5,0.5-0.5h13.8c0.3,0,0.5,0.2,0.5,0.5
				S271.4,281,271.1,281z"/>
		</g>
	</g>
	<g>
		<g>
			<path class="st14" d="M270.1,278.9c-1.8,0-2.7-1.3-2.7-3.7c0-0.3-0.2-0.5-0.5-0.5h-5.3c-0.3,0-0.5,0.2-0.5,0.5
				c0,2.5-0.9,3.7-2.7,3.7c-0.3,0-0.5,0.2-0.5,0.5c0,0.3,0.2,0.5,0.5,0.5h11.7c0.3,0,0.5-0.2,0.5-0.5
				C270.6,279.1,270.4,278.9,270.1,278.9z M261,278.9c0.7-0.7,1-1.8,1.1-3.2h4.3c0.1,1.4,0.5,2.5,1.1,3.2H261z"/>
		</g>
	</g>
	<g>
		<g>
			<path class="st14" d="M273.7,266.9l-1.3-1.3l0.7-0.7c0.1-0.1,0.2-0.3,0.1-0.5c0-0.2-0.2-0.3-0.4-0.4l-5.3-1.6
				c-0.2-0.1-0.4,0-0.5,0.1c-0.1,0.1-0.2,0.3-0.1,0.5l1.6,5.3c0.1,0.2,0.2,0.3,0.4,0.4c0.2,0,0.4,0,0.5-0.1l0.8-0.8l1.3,1.3
				c0.1,0.1,0.2,0.2,0.4,0.2c0.1,0,0.3-0.1,0.4-0.2l1.5-1.5C273.9,267.4,273.9,267.1,273.7,266.9z M271.8,268l-1.2-1.2
				c-0.1-0.1-0.3-0.2-0.5-0.2c-0.2,0-0.4,0.1-0.5,0.2l-0.4,0.4l-1.1-3.5l3.5,1.1l-0.4,0.4c-0.1,0.1-0.2,0.3-0.2,0.4
				c0,0.2,0.1,0.3,0.2,0.4l1.2,1.2L271.8,268z"/>
		</g>
	</g>
	<g>
		<g>
			<path class="st14" d="M270.6,255.5h-14.9c-0.3,0-0.5,0.2-0.5,0.5v2.7c0,0.3,0.2,0.5,0.5,0.5h14.9c0.3,0,0.5-0.2,0.5-0.5V256
				C271.1,255.7,270.9,255.5,270.6,255.5z M270.1,258.1h-13.8v-1.6h13.8V258.1z"/>
		</g>
	</g>
	<g>
		<g>
			<path class="st14" d="M262.1,261.3h-4.3c-0.3,0-0.5,0.2-0.5,0.5v2.1c0,0.3,0.2,0.5,0.5,0.5h4.3c0.3,0,0.5-0.2,0.5-0.5v-2.1
				C262.6,261.5,262.4,261.3,262.1,261.3z M261.6,263.4h-3.2v-1.1h3.2V263.4z"/>
		</g>
	</g>
	<g>
		<g>
			<path class="st14" d="M270.6,255.5h-14.9c-0.3,0-0.5,0.2-0.5,0.5v10.1c0,0.3,0.2,0.5,0.5,0.5h12.7c0.2,0,0.3-0.1,0.4-0.2
				c0.1-0.1,0.1-0.3,0.1-0.5l-0.7-2.2l2.2,0.7c0.2,0,0.3,0,0.5-0.1c0.1-0.1,0.2-0.3,0.2-0.4V256
				C271.1,255.7,270.9,255.5,270.6,255.5z M270.1,263.1l-2.5-0.8c-0.2-0.1-0.4,0-0.5,0.1c-0.1,0.1-0.2,0.3-0.1,0.5l0.8,2.5h-11.4v-9
				h13.8V263.1z"/>
		</g>
	</g>
	<g id="outline">
		<path class="st14" d="M276.3,159.8h18.8v-1.6c0-0.2-0.1-0.4-0.2-0.5c-1.7-2.1-1.9-5.1-0.6-7.4l0.6-1.1c0.2-0.3,0.1-0.7-0.1-0.9
			l-6.7-6.7c-0.8-0.8-0.7-2.1,0-2.8c0.8-0.7,2-0.7,2.8,0l8.2,8.2l1.1-1.1l-1.3-1.3v-7.7l2.2,2.6c1.1,1.3,1.7,2.9,1.7,4.7v15.7h1.6
			v-15.7c0-2.1-0.8-4.1-2.1-5.7l-3.4-4.1v-17.8c0-2.2-1.8-3.9-3.9-3.9h-18.8c-2.2,0-3.9,1.8-3.9,3.9v39.3
			C272.4,158.1,274.2,159.8,276.3,159.8z M274,155.9v-0.8h18.1c0.2,1.1,0.7,2.2,1.3,3.1h-17.1C275,158.3,274,157.2,274,155.9z
			 M295.8,141.3c0.1-0.3,0.2-0.7,0.2-1.1v-3.9c0-1.7-1.4-3.1-3.1-3.1H285c-0.9,0-1.6-0.7-1.6-1.6s0.7-1.6,1.6-1.6h5.5v-1.6H285
			c-1.7,0-3.1,1.4-3.1,3.1s1.4,3.1,3.1,3.1h7.9c0.9,0,1.6,0.7,1.6,1.6v3.6l-2.2-2.2c-1.4-1.4-3.6-1.4-5,0c-1.1,1.1-1.4,2.7-0.7,4.1
			h-6.2c-0.9,0-1.6-0.7-1.6-1.6v-1.6h-1.6v1.6c0,1.7,1.4,3.1,3.1,3.1h7.5l5.6,5.6l-0.3,0.6c-0.7,1.2-1.1,2.6-1.1,4h-18V119h23.6v24
			L295.8,141.3z M276.3,114.3h18.8c1.3,0,2.4,1.1,2.4,2.4v0.8H274v-0.8C274,115.4,275,114.3,276.3,114.3z"/>
		<path class="st14" d="M277.9,131.6c-1.3,0-2.4,1.1-2.4,2.4c0,0.7,0.3,1.4,0.8,1.9l1,1c0.3,0.3,0.8,0.3,1.1,0l1-1
			c0.5-0.5,0.8-1.2,0.8-1.9C280.3,132.6,279.2,131.6,277.9,131.6z M278.4,134.7l-0.5,0.5l-0.5-0.5c-0.2-0.2-0.3-0.5-0.3-0.8
			c0-0.4,0.4-0.8,0.8-0.8c0.4,0,0.8,0.4,0.8,0.8C278.7,134.2,278.6,134.5,278.4,134.7z"/>
		<path class="st14" d="M290.5,121.4c-1.3,0-2.4,1.1-2.4,2.4c0,0.7,0.3,1.4,0.8,1.9l1,1c0.3,0.3,0.8,0.3,1.1,0l1-1
			c0.5-0.5,0.8-1.2,0.8-1.9C292.8,122.4,291.8,121.4,290.5,121.4z M290.9,124.5l-0.5,0.5l-0.5-0.5c-0.2-0.2-0.3-0.5-0.3-0.8
			c0-0.4,0.4-0.8,0.8-0.8c0.4,0,0.8,0.4,0.8,0.8C291.3,124,291.1,124.3,290.9,124.5z"/>
		<rect x="294.4" y="120.6" class="st14" width="1.6" height="1.6"/>
		<rect x="275.5" y="120.6" class="st14" width="1.6" height="1.6"/>
		<rect x="278.7" y="120.6" class="st14" width="1.6" height="1.6"/>
		<rect x="281.8" y="120.6" class="st14" width="1.6" height="1.6"/>
		<rect x="275.5" y="146.5" class="st14" width="14.1" height="1.6"/>
		<rect x="275.5" y="149.6" class="st14" width="1.6" height="1.6"/>
		<rect x="278.7" y="149.6" class="st14" width="1.6" height="1.6"/>
		<rect x="283.4" y="149.6" class="st14" width="1.6" height="1.6"/>
		<rect x="286.5" y="149.6" class="st14" width="1.6" height="1.6"/>
	</g>
	<path class="st14" d="M410.3,58.4c-0.7,0-1.4-0.3-1.9-0.9c-0.5,0.6-1.2,0.9-1.9,0.9s-1.4-0.3-1.9-0.9c-0.5,0.6-1.2,0.9-1.9,0.9
		c-0.7,0-1.4-0.3-1.9-0.9c-0.5,0.6-1.2,0.9-1.9,0.9s-1.4-0.3-1.9-0.9c-0.5,0.6-1.2,0.9-1.9,0.9c-0.7,0-1.4-0.3-1.9-0.9
		c-0.5,0.6-1.2,0.9-1.9,0.9s-1.4-0.3-1.9-0.9c-0.5,0.6-1.2,0.9-1.9,0.9c-0.7,0-1.4-0.3-1.9-0.9c-0.3,0.4-0.8,0.7-1.3,0.8v16.4h1.3
		V64.1c0-0.3,0.3-0.6,0.6-0.6h6.3c0.3,0,0.6,0.3,0.6,0.6v10.7h20.1V58.3c-0.5-0.1-0.9-0.4-1.3-0.8C411.7,58.1,411,58.4,410.3,58.4z
		 M412.2,71c0,0.3-0.3,0.6-0.6,0.6h-15.1c-0.3,0-0.6-0.3-0.6-0.6v-10c0-0.3,0.3-0.6,0.6-0.6h15.1c0.3,0,0.6,0.3,0.6,0.6V71z"/>
	<path class="st14" d="M385,42.7l-3.3,8.2h34.5l-3.3-8.2H385z M389.6,45.9h-1.3v1.3h-1.3v-1.3h-1.3v-1.3h1.3v-1.3h1.3v1.3h1.3V45.9z
		 M412.2,45.9h-1.3v1.3h-1.3v-1.3h-1.3v-1.3h1.3v-1.3h1.3v1.3h1.3V45.9z"/>
	<path class="st14" d="M385.2,55.9v-3.8h-2.5v3.8c0,0.7,0.6,1.3,1.3,1.3C384.6,57.2,385.2,56.6,385.2,55.9z"/>
	<path class="st14" d="M389,55.9v-3.8h-2.5v3.8c0,0.7,0.6,1.3,1.3,1.3C388.4,57.2,389,56.6,389,55.9z"/>
	<path class="st14" d="M392.7,55.9v-3.8h-2.5v3.8c0,0.7,0.6,1.3,1.3,1.3C392.2,57.2,392.7,56.6,392.7,55.9z"/>
	<path class="st14" d="M396.5,55.9v-3.8H394v3.8c0,0.7,0.6,1.3,1.3,1.3C395.9,57.2,396.5,56.6,396.5,55.9z"/>
	<path class="st14" d="M400.3,55.9v-3.8h-2.5v3.8c0,0.7,0.6,1.3,1.3,1.3S400.3,56.6,400.3,55.9z"/>
	<path class="st14" d="M404,55.9v-3.8h-2.5v3.8c0,0.7,0.6,1.3,1.3,1.3C403.5,57.2,404,56.6,404,55.9z"/>
	<path class="st14" d="M407.8,55.9v-3.8h-2.5v3.8c0,0.7,0.6,1.3,1.3,1.3C407.2,57.2,407.8,56.6,407.8,55.9z"/>
	<path class="st14" d="M411.5,55.9v-3.8H409v3.8c0,0.7,0.6,1.3,1.3,1.3C411,57.2,411.5,56.6,411.5,55.9z"/>
	<path class="st14" d="M412.8,55.9c0,0.7,0.6,1.3,1.3,1.3c0.7,0,1.3-0.6,1.3-1.3v-3.8h-2.5V55.9z"/>
	<path class="st14" d="M397.1,61.6h13.8v8.8h-13.8V61.6z"/>
	<path class="st14" d="M387.1,74.7h5v-10h-5V74.7z M390.2,69.1h1.3v1.3h-1.3V69.1z"/>
	<path class="st14" d="M416.6,39.6v-1.3h-1.3v1.3h-1.3v1.3h1.3v1.3h1.3v-1.3h1.3v-1.3H416.6z"/>
	<path class="st14" d="M382.7,42.1v-1.3h1.3v-1.3h-1.3v-1.3h-1.3v1.3h-1.3v1.3h1.3v1.3H382.7z"/>
</g>
<g>
	<path class="st3" d="M579.1,279.3c-0.2-1.3-0.4-2.6-0.7-3.9c-0.3-1.2-0.6-2.4-0.9-3.6c-0.9-3.2-2.2-6.5-3.7-9.8
		c-0.7-1.5-1.4-2.9-2.1-4.4c-0.7-1.3-1.4-2.6-2.1-3.9c-0.7-1.3-1.5-2.5-2.3-3.8c-0.9-1.4-1.8-2.7-2.7-4c-2.1-3-4.4-5.7-6.6-8.1
		c-0.9-0.9-1.7-1.8-2.6-2.6c-1-0.9-2-1.8-3-2.6c-6.5-5.2-12.4-6.7-16.4-4.4c-4.1,2.4-5.7,8.2-4.4,16.4c0.2,1.3,0.4,2.6,0.7,3.9
		c0.3,1.2,0.6,2.4,0.9,3.6c0.9,3.2,2.2,6.5,3.7,9.8c0.7,1.5,1.4,2.9,2.1,4.4c0.7,1.3,1.4,2.6,2.1,3.9c0.7,1.3,1.5,2.5,2.3,3.8
		c0.9,1.4,1.8,2.7,2.7,4c2.1,3,4.4,5.7,6.6,8.1c0.9,0.9,1.7,1.8,2.6,2.6c1,0.9,2,1.8,3,2.6c2.4,1.9,4.7,3.3,6.9,4.2
		c12.2,3.5,13.2-1.8,14-6.6C579.7,286.3,579.7,283,579.1,279.3z M575.5,288.3c-0.5,2.1-1.4,3.5-2.6,4.2c-1.2,0.7-2.9,0.8-4.9,0.2
		c-2.2-0.7-4.7-2.1-7.4-4.2c-0.9-0.7-1.8-1.5-2.7-2.3c-0.9-0.8-1.7-1.7-2.6-2.6c-1.5-1.6-3-3.3-4.4-5.1c-1-1.2-1.9-2.5-2.8-3.9
		c-1.3-1.9-2.6-4-3.9-6.1c-1.2-2.1-2.4-4.3-3.4-6.4c-0.7-1.5-1.3-2.9-1.9-4.4c-0.9-2.2-1.6-4.3-2.3-6.4c-0.4-1.2-0.7-2.4-0.9-3.6
		c-0.3-1.2-0.5-2.3-0.7-3.5c-0.5-3.3-0.5-6.3,0-8.5c0.5-2.1,1.4-3.5,2.6-4.2c0.7-0.4,1.5-0.6,2.4-0.6c0.8,0,1.6,0.1,2.6,0.4
		c2.2,0.7,4.7,2.1,7.4,4.2c0.9,0.7,1.8,1.5,2.7,2.3c0.9,0.8,1.7,1.7,2.6,2.6c1.5,1.6,3,3.3,4.4,5.1c1,1.2,1.9,2.5,2.8,3.9
		c1.3,1.9,2.6,4,3.9,6.1c1.2,2.1,2.4,4.3,3.4,6.4c0.7,1.5,1.3,2.9,1.9,4.4c0.9,2.2,1.6,4.3,2.3,6.4c0.4,1.2,0.7,2.4,0.9,3.6
		c0.3,1.2,0.5,2.3,0.7,3.5C576,283.2,576,286.1,575.5,288.3z"/>
	<path class="st3" d="M582.1,250c-1.2-0.5-2.4-0.9-3.7-1.3c-1.1-0.3-2.3-0.7-3.6-1c-3.2-0.8-6.7-1.3-10.3-1.7
		c-1.6-0.2-3.2-0.3-4.9-0.3c-1.4-0.1-2.9-0.1-4.4-0.1c-1.5,0-2.9,0-4.4,0.1c-1.6,0.1-3.3,0.2-4.9,0.3c-3.6,0.4-7.1,0.9-10.3,1.7
		c-1.2,0.3-2.4,0.6-3.6,1c-1.3,0.4-2.6,0.8-3.7,1.3c-7.7,3.1-12,7.3-12,12.1s4.3,9,12,12.1c1.2,0.5,2.4,0.9,3.7,1.3
		c1.1,0.3,2.3,0.7,3.6,1c3.2,0.8,6.7,1.3,10.3,1.7c1.6,0.2,3.2,0.3,4.9,0.3c1.4,0.1,2.9,0.1,4.4,0.1c1.5,0,2.9,0,4.4-0.1
		c1.6-0.1,3.3-0.2,4.9-0.3c3.6-0.4,7.1-0.9,10.3-1.7c1.2-0.3,2.4-0.6,3.6-1c1.3-0.4,2.6-0.8,3.7-1.3c7.7-3.1,12-7.3,12-12.1
		C594.1,257.3,589.9,253.1,582.1,250z M588.1,266.4c-1.7,1.6-4.2,3-7.4,4.3c-1.1,0.4-2.2,0.8-3.3,1.2c-1.1,0.4-2.3,0.7-3.6,1
		c-2.1,0.5-4.3,0.9-6.7,1.2c-1.5,0.2-3.1,0.4-4.8,0.5c-2.3,0.2-4.8,0.3-7.2,0.3s-4.9-0.1-7.2-0.3c-1.6-0.1-3.2-0.3-4.8-0.5
		c-2.3-0.3-4.5-0.7-6.7-1.2c-1.2-0.3-2.4-0.6-3.6-1c-1.2-0.4-2.3-0.7-3.3-1.2c-3.1-1.2-5.7-2.7-7.4-4.3c-1.5-1.4-2.3-2.9-2.3-4.3
		s0.8-2.9,2.3-4.3c1.7-1.6,4.2-3,7.4-4.3c1.1-0.4,2.2-0.8,3.3-1.2c1.1-0.4,2.3-0.7,3.6-1c2.1-0.5,4.3-0.9,6.7-1.2
		c1.5-0.2,3.1-0.4,4.8-0.5c2.3-0.2,4.8-0.3,7.2-0.3s4.9,0.1,7.2,0.3c1.6,0.1,3.2,0.3,4.8,0.5c2.3,0.3,4.5,0.7,6.7,1.2
		c1.2,0.3,2.4,0.6,3.6,1c1.2,0.4,2.3,0.7,3.3,1.2c3.1,1.2,5.7,2.7,7.4,4.3c1.5,1.4,2.3,2.9,2.3,4.3
		C590.5,263.5,589.7,265,588.1,266.4z"/>
	<path class="st3" d="M574.7,228.4c-4.1-2.4-9.9-0.8-16.4,4.4c-1,0.8-2,1.7-3,2.6c-0.9,0.8-1.7,1.7-2.6,2.6
		c-2.3,2.4-4.5,5.1-6.6,8.1c-0.9,1.3-1.8,2.6-2.7,4c-0.8,1.2-1.5,2.5-2.3,3.8s-1.4,2.6-2.1,3.9c-0.8,1.5-1.5,2.9-2.1,4.4
		c-1.5,3.3-2.7,6.6-3.7,9.8c-0.4,1.2-0.7,2.4-0.9,3.6c-0.3,1.3-0.6,2.6-0.7,3.9c-0.6,3.7-0.5,7,0,9.6c1.1,4.2,6.3,9.8,14,6.6
		c2.2-0.9,4.5-2.3,6.9-4.2c1-0.8,2-1.7,3-2.6c0.9-0.8,1.7-1.7,2.6-2.6c2.3-2.4,4.5-5.1,6.6-8.1c0.9-1.3,1.8-2.6,2.7-4
		c0.8-1.2,1.5-2.5,2.3-3.8c0.7-1.3,1.4-2.6,2.1-3.9c0.8-1.5,1.5-2.9,2.1-4.4c1.5-3.3,2.7-6.6,3.7-9.8c0.4-1.2,0.7-2.4,0.9-3.6
		c0.3-1.3,0.6-2.6,0.7-3.9C580.4,236.6,578.8,230.7,574.7,228.4z M573.9,251.3c-0.6,2.1-1.4,4.2-2.3,6.4c-0.6,1.4-1.2,2.9-1.9,4.4
		c-1,2.1-2.1,4.3-3.4,6.4c-1.2,2.1-2.5,4.2-3.9,6.1c-0.9,1.3-1.9,2.6-2.8,3.9c-1.4,1.8-2.9,3.6-4.4,5.1c-0.9,0.9-1.7,1.8-2.6,2.6
		c-0.9,0.8-1.8,1.6-2.7,2.3c-2.6,2.1-5.2,3.6-7.4,4.2c-2,0.6-3.7,0.6-4.9-0.2c-1.2-0.7-2.1-2.1-2.6-4.2c-0.5-2.2-0.5-5.2,0-8.5
		c0.2-1.1,0.4-2.3,0.7-3.5c0.3-1.2,0.6-2.3,0.9-3.6c0.6-2.1,1.4-4.2,2.3-6.4c0.6-1.4,1.2-2.9,1.9-4.4c1-2.1,2.1-4.3,3.4-6.4
		c1.2-2.1,2.5-4.2,3.9-6.1c0.9-1.3,1.9-2.6,2.8-3.9c1.4-1.9,2.9-3.6,4.4-5.1c0.9-0.9,1.7-1.8,2.6-2.6c0.9-0.8,1.8-1.6,2.7-2.3
		c2.6-2.1,5.2-3.6,7.4-4.2c0.9-0.3,1.8-0.4,2.6-0.4c0.9,0,1.7,0.2,2.4,0.6c1.3,0.7,2.1,2.1,2.6,4.2c0.5,2.2,0.5,5.2,0,8.5
		c-0.2,1.1-0.4,2.3-0.7,3.5C574.6,248.9,574.3,250.1,573.9,251.3z"/>
	<circle class="st3" cx="555.3" cy="262.1" r="7.3"/>
</g>
<image style="overflow:visible;" width="364" height="110" xlink:href="10BE4897.png"  transform="matrix(0.2637 0 0 0.2637 510.3334 305.1912)">
</image>
</svg>
