<svg height="480pt" viewBox="0 0 480 480" width="480pt" xmlns="http://www.w3.org/2000/svg"><path d="m8 120v336h80v-336zm0 0" fill="#e6e7e8"/><path d="m440 152h-352v304c.027344 8.824219 7.175781 15.972656 16 16h352c8.824219-.027344 15.972656-7.175781 16-16v-304zm0 0" fill="#5aaae7"/><path d="m249.199219 200h-105.199219v80h272v-80zm0 0" fill="#ff9811"/><path d="m456 88h-368v64h384v-48c-.027344-8.824219-7.175781-15.972656-16-16zm0 0" fill="#ff6243"/><path d="m232 120c0 61.855469-50.144531 112-112 112s-112-50.144531-112-112 50.144531-112 112-112 112 50.144531 112 112zm0 0" fill="#00ccb3"/><path d="m120 240c66.273438 0 120-53.726562 120-120s-53.726562-120-120-120-120 53.726562-120 120c.0742188 66.242188 53.757812 119.925781 120 120zm-63.792969-112c.449219 15.726562 2.675781 31.351562 6.632813 46.574219-7.34375 4.011719-14.246094 8.78125-20.601563 14.226562-15.023437-16.898437-24.09375-38.253906-25.832031-60.800781zm55.792969 94.320312c-11.304688-4.535156-22.238281-18.398437-29.824219-39.144531 9.550781-3.730469 19.601563-6.015625 29.824219-6.792969zm-30.296875-5.71875c-10.144531-4.019531-19.59375-9.605468-28-16.5625 4.441406-3.667968 9.179687-6.964843 14.160156-9.855468 3.441407 9.371094 8.09375 18.253906 13.839844 26.417968zm46.296875 5.71875v-45.9375c10.222656.777344 20.273438 3.0625 29.824219 6.792969-7.585938 20.726563-18.519531 34.609375-29.824219 39.144531zm44.160156-32.136718c4.980469 2.890625 9.71875 6.1875 14.160156 9.855468-8.40625 6.957032-17.855468 12.542969-28 16.5625 5.746094-8.164062 10.398438-17.046874 13.839844-26.417968zm-44.160156-29.800782v-32.382812h39.800781c-.402343 13.433594-2.191406 26.789062-5.335937 39.855469-11.054688-4.179688-22.671875-6.699219-34.464844-7.472657zm0-48.382812v-32.382812c11.792969-.773438 23.410156-3.292969 34.464844-7.472657 3.144531 13.066407 4.933594 26.421875 5.335937 39.855469zm0-48.382812v-45.9375c11.304688 4.535156 22.238281 18.398437 29.824219 39.144531-9.550781 3.730469-19.601563 6.015625-29.824219 6.792969zm30.296875-40.21875c10.15625 4.027343 19.613281 9.628906 28.023437 16.601562-4.441406 3.667969-9.179687 6.964844-14.160156 9.855469-3.445312-9.386719-8.105468-18.28125-13.863281-26.457031zm-46.296875-5.71875v45.9375c-10.222656-.78125-20.273438-3.082032-29.824219-6.816407 7.585938-20.703125 18.519531-34.585937 29.824219-39.121093zm-44.160156 32.136718c-4.980469-2.878906-9.714844-6.164062-14.160156-9.816406 8.40625-6.957031 17.855468-12.542969 28-16.558594-5.742188 8.148438-10.394532 17.015625-13.839844 26.375zm44.160156 29.800782v32.382812h-39.800781c.402343-13.433594 2.191406-26.789062 5.335937-39.855469 11.054688 4.179688 22.671875 6.699219 34.464844 7.472657zm0 48.382812v32.382812c-11.792969.773438-23.410156 3.292969-34.464844 7.472657-3.144531-13.066407-4.933594-26.421875-5.335937-39.855469zm85.761719 60.800781c-6.351563-5.457031-13.257813-10.230469-20.601563-14.25 3.957032-15.21875 6.179688-30.832031 6.632813-46.550781h39.800781c-1.738281 22.546875-10.808594 43.902344-25.832031 60.800781zm25.832031-76.800781h-39.800781c-.449219-15.726562-2.675781-31.351562-6.632813-46.574219 7.34375-4.011719 14.246094-8.78125 20.601563-14.226562 15.023437 16.898437 24.09375 38.253906 25.832031 60.800781zm-181.355469-60.800781c6.351563 5.457031 13.257813 10.230469 20.601563 14.25-3.957032 15.21875-6.179688 30.832031-6.632813 46.550781h-39.800781c1.738281-22.546875 10.808594-43.902344 25.832031-60.800781zm0 0"/><path d="m456 80h-160v16h160c4.417969 0 8 3.582031 8 8v40h-168v16h168v296c0 4.417969-3.582031 8-8 8h-352c-4.417969 0-8-3.582031-8-8v-200h-16v192h-64v-240h-16v248c0 4.417969 3.582031 8 8 8h73.472656c3.378906 9.554688 12.394532 15.957031 22.527344 16h352c13.253906 0 24-10.746094 24-24v-352c0-13.253906-10.746094-24-24-24zm0 0"/><path d="m352 112h16v16h-16zm0 0"/><path d="m384 112h16v16h-16zm0 0"/><path d="m416 112h16v16h-16zm0 0"/><path d="m32 248h32v16h-32zm0 0"/><path d="m32 280h32v16h-32zm0 0"/><path d="m32 312h32v16h-32zm0 0"/><path d="m32 344h32v16h-32zm0 0"/><path d="m32 376h32v16h-32zm0 0"/><path d="m120 264v16c63.789062 0 121.484375-37.890625 146.828125-96.425781 25.34375-58.539063 13.5-126.535157-30.148437-173.054688l-11.664063 10.960938c39.273437 41.867187 49.929687 103.0625 27.121094 155.738281-22.8125 52.679688-74.730469 86.777344-132.136719 86.78125zm0 0"/><path d="m424 200c0-4.417969-3.582031-8-8-8h-136v16h128v64h-200v16h208c4.417969 0 8-3.582031 8-8zm0 0"/><path d="m264 232h32v16h-32zm0 0"/><path d="m312 232h32v16h-32zm0 0"/><path d="m136 320h288v16h-288zm0 0"/><path d="m136 368h288v16h-288zm0 0"/><path d="m136 416h288v16h-288zm0 0"/></svg>