<?xml version="1.0" encoding="utf-8"?>
<!-- Generator: Adobe Illustrator 19.1.1, SVG Export Plug-In . SVG Version: 6.00 Build 0)  -->
<svg version="1.1" id="Layer_1" xmlns="http://www.w3.org/2000/svg" xmlns:xlink="http://www.w3.org/1999/xlink" x="0px" y="0px"
	 viewBox="0 0 26 25" style="enable-background:new 0 0 26 25;" xml:space="preserve">
<style type="text/css">
	.st0{fill:none;stroke:#000000;stroke-miterlimit:10;}
</style>
<g>
	<circle cx="13.5" cy="13.1" r="2.1"/>
	<circle class="st0" cx="13.5" cy="13.1" r="6"/>
	<path d="M24.7,12.9v0.3c0,0.4-0.4,0.8-0.8,0.8H3.1c-0.4,0-0.8-0.4-0.8-0.8v-0.3c0-0.4,0.4-0.8,0.8-0.8h20.7
		C24.3,12.1,24.7,12.5,24.7,12.9z"/>
	<path d="M13.3,1.5h0.3c0.4,0,0.8,0.4,0.8,0.8v20.7c0,0.4-0.4,0.8-0.8,0.8h-0.3c-0.4,0-0.8-0.4-0.8-0.8V2.4
		C12.5,1.9,12.9,1.5,13.3,1.5z"/>
</g>
</svg>
