<?xml version="1.0" encoding="iso-8859-1"?>
<!-- Generator: Adobe Illustrator 19.0.0, SVG Export Plug-In . SVG Version: 6.00 Build 0)  -->
<svg version="1.1" id="Capa_1" xmlns="http://www.w3.org/2000/svg" xmlns:xlink="http://www.w3.org/1999/xlink" x="0px" y="0px"
	 viewBox="0 0 512 512" style="enable-background:new 0 0 512 512;" xml:space="preserve">
<rect x="211.496" y="256.383" style="fill:#E3A76F;" width="89.123" height="127.617"/>
<g>
	<rect x="256.052" y="256.383" style="fill:#F2BB88;" width="44.556" height="127.617"/>
	<path style="fill:#F2BB88;" d="M367.942,129.117l-7.115,61.287c0,38.486-49.946,69.761-81.859,85.817
		c-1.79,0.895-3.614,1.695-5.463,2.384c-15.135,5.704-32.11,4.629-46.54-3.089c-30.355-16.253-76.464-47.184-76.464-85.111
		l-7.124-61.287c0-16.855,3.725-32.816,10.324-46.995c16.184-34.769,49.689-58.791,88.165-58.791h27.594
		c2.021,0,4.026,0.068,6.023,0.207c46.711,3.055,84.896,41.514,91.452,90.566C367.599,119.007,367.942,124.023,367.942,129.117z"/>
</g>
<path style="fill:#F2D1A5;" d="M367.942,129.117l-7.115,61.287c0,38.486-49.946,69.761-81.859,85.817
	c-1.79,0.895-3.614,1.695-5.463,2.384c-2.332-0.869-4.62-1.901-6.848-3.089c-30.355-16.253-76.464-47.184-76.464-85.111
	l-7.124-61.287c0-16.855,3.725-32.816,10.324-46.995c15.324-32.928,46.187-56.21,82.091-58.584
	c46.711,3.055,84.896,41.514,91.452,90.566C367.599,119.007,367.942,124.023,367.942,129.117z"/>
<path style="fill:#8CC5DB;" d="M462.75,423.03H49.361c-2.633,0-4.638-2.358-4.233-4.956c4.353-27.989,8.2-46.927,11.013-50.385
	c13.878-16.873,95.729-32.962,118.107-38.692h3.588l78.176,0.034l81.773-0.034c22.38,5.73,104.229,21.82,118.107,38.692
	c2.529,3.115,5.928,18.739,9.782,42.22c0.43,2.625,0.869,5.352,1.308,8.165C467.396,420.673,465.383,423.03,462.75,423.03z"/>
<path style="fill:#A6D2E3;" d="M465.676,409.91H107.542c-2.633,0-4.646-2.349-4.242-4.947c4.353-27.997,8.208-46.927,11.013-50.385
	c7.649-9.301,35.921-18.362,63.523-25.579l78.176,0.034l81.773-0.034c22.38,5.73,104.229,21.82,118.107,38.692
	C458.423,370.804,461.821,386.429,465.676,409.91z"/>
<g>
	<path style="fill:#8CC5DB;" d="M296.236,373.348c-2.754,2.25-6.902,0.849-7.712-2.614c-3.495-14.934-11.188-47.835-13.24-56.748
		c-0.33-1.435,0.664-3.004,2.131-3.123h54.473c6.366,0,12.712,17.064,13.125,18.126
		C346.053,332.238,310.638,361.582,296.236,373.348z"/>
	<path style="fill:#8CC5DB;" d="M237.065,314.021c-1.384,8.028-7.1,41.159-9.732,56.415c-0.613,3.554-4.769,5.175-7.641,2.993
		c-15.406-11.701-53.647-41.157-52.595-44.441c0.413-1.061,6.758-18.126,13.125-18.126h54.818
		C236.389,311.071,237.297,312.676,237.065,314.021z"/>
</g>
<path style="fill:#9C6A53;" d="M366.934,114.099c-0.167-0.254-0.333-0.517-0.5-0.789c-22.627-36.665-70.113-49.435-80.871-51.913
	c-0.978-0.226-1.822,0.701-1.516,1.656l5.624,17.542c0.264,0.822-0.336,1.676-1.2,1.69c-26.325,0.438-56.146-8.97-68.187-13.207
	c-1.295-0.456-2.31,1.159-1.342,2.132l18.686,18.777c0.83,0.834,0.209,2.257-0.966,2.206c-24.218-1.068-60.181-6.377-82.966-10.075
	c16.188-34.77,49.695-58.792,88.167-58.792h27.594C318.881,23.327,360.1,62.957,366.934,114.099z"/>
<g>
	<circle style="fill:#7B5341;" cx="196.206" cy="147.087" r="13.041"/>
	<circle style="fill:#7B5341;" cx="308.399" cy="147.087" r="13.041"/>
	<path style="fill:#7B5341;" d="M177.035,122.774c-2.327,0-4.579-1.24-5.783-3.427c-1.76-3.195-0.575-7.222,2.619-8.981
		c0.802-0.441,19.917-10.694,44.662-0.304c3.363,1.411,4.944,5.282,3.532,8.644c-1.412,3.363-5.285,4.945-8.644,3.532
		c-18.646-7.828-32.633-0.593-33.219-0.281C179.194,122.512,178.107,122.774,177.035,122.774z"/>
	<path style="fill:#7B5341;" d="M289.964,122.774c-2.327,0-4.579-1.24-5.783-3.427c-1.76-3.195-0.575-7.222,2.619-8.981
		c0.802-0.442,19.917-10.695,44.661-0.304c3.363,1.412,4.944,5.282,3.532,8.644c-1.412,3.363-5.284,4.945-8.644,3.532
		c-18.646-7.828-32.633-0.593-33.219-0.281C292.122,122.512,291.034,122.774,289.964,122.774z"/>
	<path style="fill:#7B5341;" d="M261.64,208.342h-14.025c-10.792,0-19.573-8.78-19.573-19.573v-50.795
		c0-3.564,2.889-6.453,6.453-6.453s6.453,2.889,6.453,6.453v50.795c0,3.676,2.991,6.666,6.666,6.666h14.025
		c3.564,0,6.453,2.889,6.453,6.453S265.204,208.342,261.64,208.342z"/>
	<path style="fill:#7B5341;" d="M253.064,247.605c-6.104,0-11.454-0.99-15.891-2.324c-13.875-4.171-22.002-12.552-22.341-12.907
		c-2.463-2.576-2.371-6.66,0.205-9.123c2.569-2.456,6.638-2.372,9.105,0.184c1.08,1.104,25.483,25.273,62.336-0.789
		c2.91-2.059,6.937-1.368,8.995,1.542c2.058,2.91,1.367,6.937-1.542,8.995C278.375,244.182,264.415,247.605,253.064,247.605z"/>
</g>
<g>
	<path style="fill:#3993B7;" d="M369.918,98.44c-5.692-21.517-15.887-39.737-30.302-54.152
		c-22.185-22.184-51.67-34.528-83.023-34.759l-0.87-0.003c-31.583,0-61.376,12.54-83.888,35.312
		c-22.446,22.702-34.807,52.664-34.807,84.366v19.308c0,3.564,2.889,6.453,6.453,6.453s6.453-2.889,6.453-6.453v-19.308
		c0-58.874,47.456-106.771,105.789-106.771l0.773,0.003c27.944,0.205,54.222,11.207,73.994,30.978
		c12.782,12.782,21.85,29.042,26.951,48.326c2.758,10.424,4.157,21.501,4.157,32.924c0,0.454-0.002,0.907-0.007,1.362l-0.12,12.422
		c-0.034,3.564,2.826,6.48,6.39,6.514c0.022,0,0.042,0,0.063,0c3.535,0,6.417-2.848,6.451-6.391l0.12-12.421
		c0.005-0.496,0.007-0.991,0.007-1.488C374.504,122.128,372.96,109.939,369.918,98.44z"/>
	<path style="fill:#3993B7;" d="M205.077,246.067h-8.617c-39,0-70.729-31.729-70.729-70.729v-0.378c0-3.564,2.889-6.453,6.453-6.453
		c3.564,0,6.453,2.889,6.453,6.453v0.378c0,31.884,25.939,57.823,57.823,57.823h8.617c3.564,0,6.453,2.889,6.453,6.453
		S208.641,246.067,205.077,246.067z"/>
</g>
<path style="fill:#4B5055;" d="M262.716,238.044c0,5.042-2.065,9.628-5.386,12.949c-3.321,3.321-7.899,5.386-12.941,5.386h-24.823
	c-10.084,0-18.326-8.251-18.326-18.335c0-5.042,2.057-9.619,5.377-12.941c3.321-3.321,7.907-5.386,12.949-5.386h24.823
	c9.335,0,17.096,7.081,18.189,16.132C262.672,236.564,262.716,237.304,262.716,238.044z"/>
<g>
	<path style="fill:#5A5F64;" d="M262.578,235.85h-22.482c-9.335,0-17.096-7.073-18.189-16.132h22.482
		C253.724,219.718,261.484,226.799,262.578,235.85z"/>
	<path style="fill:#5A5F64;" d="M368.08,88.299l-3.218,3.218l-0.456,0.456c-5.919,5.928-15.883,4.018-19.307-3.622
		c-15.289-34.167-49.611-58.034-89.396-58.034c-39.794,0-74.106,23.867-89.396,58.034c-3.347,7.468-12.931,9.455-18.894,4.018
		c-0.138-0.129-0.275-0.259-0.413-0.396l-3.674-3.674c-3.536-3.528-4.5-8.905-2.384-13.431
		C161.091,31.651,204.955,1.64,255.702,1.64s94.61,30.011,114.761,73.229C372.572,79.394,371.617,84.772,368.08,88.299z"/>
</g>
<g>
	<path style="fill:#4B5055;" d="M364.862,91.518l-0.456,0.456c-5.919,5.928-15.883,4.018-19.307-3.622
		c-15.289-34.167-49.611-58.034-89.396-58.034c-39.794,0-74.106,23.867-89.396,58.034c-3.347,7.468-12.931,9.455-18.894,4.018
		c-0.56-2.375-0.335-4.921,0.749-7.236c18.946-40.628,60.185-68.85,107.895-68.85s88.948,28.222,107.895,68.85
		C364.906,87.173,365.189,89.392,364.862,91.518z"/>
	<path style="fill:#4B5055;" d="M162.564,146.393v35.311c0,4.999-1.377,9.688-3.777,13.706
		c-4.706,7.907-13.345,13.234-23.162,13.234c-7.408,0-14.153-3.029-19.032-7.916c-4.887-4.879-7.916-11.616-7.916-19.024v-35.311
		c0-13.551,10.144-24.866,23.231-26.689c1.213-0.172,2.452-0.259,3.717-0.259C150.441,119.446,162.564,131.578,162.564,146.393z"/>
	<path style="fill:#4B5055;" d="M403.434,146.393v35.311c0,4.999-1.377,9.688-3.777,13.706c-1.153,1.945-2.547,3.725-4.138,5.317
		c-4.879,4.887-11.624,7.916-19.032,7.916c-14.816,0-26.939-12.123-26.939-26.939v-35.312c0-13.56,10.153-24.866,23.231-26.689
		c1.214-0.172,2.452-0.259,3.709-0.259C391.311,119.446,403.434,131.578,403.434,146.393z"/>
</g>
<g>
	<path style="fill:#5A5F64;" d="M162.564,146.393v35.311c0,4.999-1.377,9.688-3.777,13.706c-1.213,0.172-2.452,0.258-3.717,0.258
		c-7.408,0-14.145-3.029-19.024-7.916c-4.887-4.879-7.916-11.624-7.916-19.032v-35.303c0-4.999,1.377-9.688,3.777-13.715
		c1.213-0.172,2.452-0.259,3.717-0.259C150.441,119.446,162.564,131.578,162.564,146.393z"/>
	<path style="fill:#5A5F64;" d="M403.434,146.393v35.311c0,4.999-1.377,9.688-3.777,13.706c-1.213,0.172-2.452,0.258-3.717,0.258
		c-14.816,0-26.939-12.123-26.939-26.948v-35.303c0-4.999,1.377-9.688,3.777-13.715c1.213-0.172,2.452-0.259,3.709-0.259
		C391.311,119.446,403.434,131.578,403.434,146.393z"/>
</g>
<path style="fill:#1B87B3;" d="M467.239,510.36H44.761C20.041,510.36,0,490.319,0,465.599v-2.932
	c0-24.721,20.041-44.761,44.761-44.761h422.477c24.721,0,44.761,20.041,44.761,44.761v2.932
	C512,490.319,491.96,510.36,467.239,510.36z"/>
<g>
	<path style="fill:#FFEA06;" d="M68.442,443.381c4.72,9.565,4.764,10.614,6.738,10.901l10.333,1.501
		c2.306,0.335,3.227,3.169,1.558,4.796c-7.638,7.445-8.623,7.812-8.285,9.776l1.765,10.29c0.394,2.297-2.017,4.048-4.079,2.964
		c-9.441-4.964-10.094-5.786-11.859-4.858l-9.241,4.858c-2.063,1.084-4.473-0.667-4.079-2.964
		c1.803-10.513,2.385-11.387,0.956-12.779l-7.476-7.288c-1.669-1.626-0.748-4.461,1.558-4.796
		c10.555-1.534,11.567-1.252,12.449-3.039l4.621-9.362C64.43,441.292,67.411,441.292,68.442,443.381z"/>
	<path style="fill:#FFEA06;" d="M163.482,443.381c4.72,9.565,4.764,10.614,6.738,10.901l10.333,1.501
		c2.306,0.335,3.227,3.169,1.558,4.796c-7.638,7.445-8.623,7.812-8.285,9.776l1.765,10.29c0.394,2.297-2.017,4.048-4.079,2.964
		c-9.441-4.964-10.094-5.786-11.859-4.858l-9.241,4.858c-2.063,1.084-4.473-0.667-4.079-2.964
		c1.803-10.513,2.385-11.387,0.956-12.779l-7.476-7.288c-1.669-1.626-0.748-4.461,1.558-4.796
		c10.555-1.534,11.567-1.252,12.449-3.039l4.621-9.362C159.47,441.292,162.451,441.292,163.482,443.381z"/>
	<path style="fill:#FFEA06;" d="M258.522,443.381c4.72,9.565,4.764,10.614,6.738,10.901l10.333,1.501
		c2.306,0.335,3.227,3.169,1.558,4.796c-7.638,7.445-8.623,7.812-8.285,9.776l1.765,10.29c0.394,2.297-2.017,4.048-4.079,2.964
		c-9.441-4.964-10.094-5.786-11.859-4.858l-9.241,4.858c-2.063,1.084-4.473-0.667-4.079-2.964
		c1.803-10.513,2.385-11.387,0.956-12.779l-7.476-7.288c-1.669-1.626-0.748-4.461,1.558-4.796
		c10.555-1.534,11.567-1.252,12.449-3.039l4.621-9.362C254.511,441.292,257.49,441.292,258.522,443.381z"/>
	<path style="fill:#FFEA06;" d="M353.561,443.381c4.72,9.565,4.764,10.614,6.738,10.901l10.333,1.501
		c2.306,0.335,3.227,3.169,1.558,4.796c-7.638,7.445-8.623,7.812-8.285,9.776l1.765,10.29c0.394,2.297-2.016,4.048-4.079,2.964
		c-9.441-4.964-10.094-5.786-11.859-4.858l-9.241,4.858c-2.063,1.084-4.473-0.667-4.079-2.964
		c1.803-10.513,2.385-11.387,0.956-12.779l-7.476-7.288c-1.669-1.626-0.748-4.461,1.558-4.796
		c10.555-1.534,11.567-1.252,12.449-3.039l4.621-9.362C349.55,441.292,352.53,441.292,353.561,443.381z"/>
	<path style="fill:#FFEA06;" d="M448.601,443.381c4.72,9.565,4.764,10.614,6.738,10.901l10.333,1.501
		c2.306,0.335,3.227,3.169,1.558,4.796c-7.638,7.445-8.623,7.812-8.285,9.776l1.765,10.29c0.394,2.297-2.017,4.048-4.079,2.964
		c-9.441-4.964-10.094-5.786-11.859-4.858l-9.241,4.859c-2.063,1.084-4.473-0.667-4.079-2.964
		c1.803-10.513,2.385-11.387,0.956-12.779l-7.476-7.288c-1.669-1.626-0.748-4.461,1.558-4.796
		c10.555-1.534,11.567-1.252,12.449-3.039l4.621-9.362C444.59,441.292,447.57,441.292,448.601,443.381z"/>
</g>
<g>
</g>
<g>
</g>
<g>
</g>
<g>
</g>
<g>
</g>
<g>
</g>
<g>
</g>
<g>
</g>
<g>
</g>
<g>
</g>
<g>
</g>
<g>
</g>
<g>
</g>
<g>
</g>
<g>
</g>
</svg>
