<?xml version="1.0" encoding="utf-8"?>
<!-- Generator: Adobe Illustrator 23.0.2, SVG Export Plug-In . SVG Version: 6.00 Build 0)  -->
<svg version="1.1" id="Capa_1" xmlns="http://www.w3.org/2000/svg" xmlns:xlink="http://www.w3.org/1999/xlink" x="0px" y="0px"
	 viewBox="0 0 512 512" style="enable-background:new 0 0 512 512;" xml:space="preserve">
<style type="text/css">
	.st0{fill:#00B0F0;}
</style>
<g>
	<g>
		<path class="st0" d="M392.7,202.9L392.7,202.9c3.3,12.8,15,22.3,28.9,22.3c16.4,0,29.8-13.4,29.8-29.8s-13.4-29.8-29.8-29.8
			c-13.9,0-25.5,9.5-28.9,22.3H285.1c0-0.2-0.1-0.4-0.1-0.5l93.2-53.8c5.7,5.7,13.4,8.9,21.3,8.9c5.1,0,10.2-1.3,14.9-4
			c14.2-8.2,19.1-26.5,10.9-40.8c-8.2-14.2-26.5-19.1-40.8-10.9c-12,6.9-17.4,21-13.8,33.8l-92.8,53.6c-0.2-0.2-0.4-0.4-0.6-0.6
			l16.5-28.6c2.1-3.6,0.8-8.2-2.8-10.3c-3.6-2.1-8.2-0.8-10.3,2.8l-16.4,28.4c-0.3-0.1-0.6-0.2-0.9-0.3V58.7
			c12.8-3.3,22.3-15,22.3-28.9C285.8,13.4,272.5,0,256,0c-16.4,0-29.8,13.4-29.8,29.8c0,13.9,9.5,25.5,22.3,28.9v106.8
			c-0.3,0.1-0.6,0.2-0.9,0.3l-53.4-92.5c9.4-9.3,11.8-24.2,4.9-36.2c-4-6.9-10.4-11.8-18.1-13.9c-7.7-2.1-15.7-1-22.6,3
			c-6.9,4-11.8,10.4-13.9,18.1s-1,15.7,3,22.6c4,6.9,10.4,11.8,18.1,13.9c2.6,0.7,5.2,1,7.8,1c2.7,0,5.3-0.4,7.9-1.1l53.6,92.8
			c-0.2,0.2-0.4,0.4-0.6,0.6l-92.8-53.6c3.5-12.8-1.8-26.8-13.8-33.8c-14.2-8.2-32.5-3.3-40.8,10.9c-8.2,14.2-3.3,32.5,10.9,40.8
			c4.7,2.7,9.8,4,14.9,4c7.9,0,15.6-3.1,21.3-8.9l93.2,53.8c0,0.2-0.1,0.4-0.1,0.5H119.3c-3.3-12.8-15-22.3-28.9-22.3
			c-16.4,0-29.8,13.4-29.8,29.8s13.4,29.8,29.8,29.8c13.9,0,25.5-9.5,28.9-22.3h108.1c0,0.1,0,0.2,0.1,0.3l-93.7,54.1
			c-9.3-9.4-24.2-11.8-36.2-4.9c-14.2,8.2-19.1,26.5-10.9,40.8c4,6.9,10.4,11.8,18.1,13.9c2.6,0.7,5.2,1,7.8,1
			c5.2,0,10.3-1.4,14.9-4c12-6.9,17.4-21,13.8-33.8l88.5-51.1c-0.2,1.3-0.3,2.6-0.3,4l0,3.1l-48.4,83.8c-5.1-1.4-10.4-1.4-15.7,0
			c-7.7,2.1-14.1,7-18.1,13.9c-4,6.9-5,14.9-3,22.6c2.1,7.7,7,14.1,13.9,18.1c4.6,2.7,9.7,4,14.9,4c2.6,0,5.2-0.3,7.8-1
			c7.7-2.1,14.1-7,18.1-13.9c1.2-2.1,2.1-4.3,2.8-6.5c13.3,17,24.3,36.9,32.7,59c6.5,17.2,18.9,31.7,35.2,41.4l-4.2,56.3
			c-0.2,2.1,0.6,4.1,2,5.7c1.4,1.5,3.4,2.4,5.5,2.4h83.5c2.1,0,4.1-0.9,5.5-2.4s2.1-3.6,2-5.7l-4.2-56.3
			c17.7-10.6,31-27.2,36.8-46.2c1.2-4-1-8.2-5-9.4c-4-1.2-8.2,1-9.4,5c-5.1,16.8-17.4,31.2-33.8,39.7c-2.7,1.4-4.2,4.2-4,7.2l4,53
			h-67.3l4-53c0.2-3-1.4-5.8-4-7.2c-15.1-7.9-26.7-20.6-32.4-35.8c-9.4-24.8-21.9-46.9-37.1-65.7l-2.4-3c-3-5.3-1-10.2,1.9-13.1
			c2.8-2.9,7.7-4.8,12.9-1.8c2.8,1.6,4.8,3.9,6.4,6.8c1.6,3.1,5.1,4.6,8.4,3.8c3.4-0.8,5.7-3.8,5.7-7.3l0.1-97.6
			c0-3.3,1.4-6.5,3.9-8.7c2.5-2.3,5.7-3.3,9-3c5.9,0.6,10.6,5.9,10.6,12.1V289v30c0,4.1,3.4,7.5,7.5,7.5s7.5-3.4,7.5-7.5v-30
			c0-6.3,5.8-11.8,12.3-11.8c6.5,0,11.8,5.3,11.8,11.8c0,0,0,0,0,0v30c0,4.1,3.4,7.5,7.5,7.5s7.5-3.4,7.5-7.5v-29.8
			c0-0.1,0-0.2,0-0.3c0-6.5,5.3-11.8,11.8-11.8c5.8,0,10.7,4.3,11.6,10l0.1,31.8c0,4.1,3.4,7.5,7.5,7.5c4.2,0,7.5-3.4,7.5-7.5v-19
			c0.7-5.5,5.5-9.8,11.4-9.8h1.3c6.3,0,11.5,5,11.5,11.1v46.5c0,4.1,3.4,7.5,7.5,7.5s7.5-3.4,7.5-7.5v-39.8c2.4,0,4.8-0.4,7.2-1
			c7.7-2.1,14.1-7,18.1-13.9c8.2-14.2,3.3-32.5-10.9-40.8c-12-6.9-26.9-4.5-36.2,4.9l-93.7-54.1c0-0.1,0-0.2,0.1-0.3L392.7,202.9
			L392.7,202.9z M421.6,180.6c8.2,0,14.8,6.6,14.8,14.8s-6.6,14.8-14.8,14.8c-8.2,0-14.8-6.6-14.8-14.8S413.4,180.6,421.6,180.6z
			 M392,99.8c2.3-1.3,4.8-2,7.4-2c1.3,0,2.6,0.2,3.9,0.5c3.8,1,7,3.5,9,6.9c4.1,7.1,1.6,16.1-5.4,20.2c-3.4,2-7.4,2.5-11.2,1.5
			s-7-3.5-9-6.9C382.5,113,384.9,103.9,392,99.8z M180.6,64.8c-3.4,2-7.4,2.5-11.2,1.5c-3.8-1-7-3.5-9-6.9c-2-3.4-2.5-7.4-1.5-11.2
			c1-3.8,3.5-7,6.9-9c2.3-1.3,4.8-2,7.4-2c1.3,0,2.6,0.2,3.9,0.5c3.8,1,7,3.5,9,6.9C190.1,51.7,187.7,60.8,180.6,64.8z M125.4,120
			c-2,3.4-5.2,5.9-9,6.9c-3.8,1-7.8,0.5-11.2-1.5c-7.1-4.1-9.5-13.2-5.4-20.2c2-3.4,5.2-5.9,9-6.9c1.3-0.3,2.6-0.5,3.9-0.5
			c2.6,0,5.1,0.7,7.4,2C127.1,103.9,129.5,113,125.4,120z M90.4,210.2c-8.2,0-14.8-6.6-14.8-14.8s6.6-14.8,14.8-14.8
			c8.2,0,14.8,6.6,14.8,14.8S98.6,210.2,90.4,210.2z M120,291c-3.4,2-7.4,2.5-11.2,1.5c-3.8-1-7-3.5-9-6.9
			c-4.1-7.1-1.7-16.1,5.4-20.2c7.1-4.1,16.1-1.7,20.2,5.4C129.5,277.9,127.1,287,120,291z M186,346.2c-2,3.4-5.2,5.9-9,6.9
			c-3.8,1-7.8,0.5-11.2-1.5s-5.9-5.2-6.9-9c-1-3.8-0.5-7.8,1.5-11.2c2-3.4,5.2-5.9,9-6.9c3.8-1,7.8-0.5,11.2,1.5
			c3.4,2,5.9,5.2,6.9,9C188.5,338.8,188,342.8,186,346.2z M194.3,317.8c-0.1-0.1-0.1-0.1-0.2-0.2l1.2-2
			C195,316.3,194.6,317,194.3,317.8z M229.5,303.3c-9.8-4.7-21.3-2.7-29.1,5.2c-1.3,1.3-2.5,2.8-3.5,4.3l32.6-56.5L229.5,303.3z
			 M241.2,29.8c0-8.2,6.6-14.8,14.8-14.8s14.8,6.6,14.8,14.8s-6.6,14.8-14.8,14.8C247.8,44.6,241.2,38,241.2,29.8z M269.7,200
			c-3.2-1.9-6.9-3.1-10.8-3.5c-5.8-0.6-11.6,0.8-16.5,3.8c-0.8-1.8-1.2-3.8-1.2-5.9c0-8.2,6.6-14.8,14.8-14.8
			c8.2,0,14.8,6.6,14.8,14.8C270.8,196.4,270.4,198.3,269.7,200z M386.6,270.8c4.1-7.1,13.2-9.5,20.2-5.4c7.1,4.1,9.5,13.2,5.4,20.2
			c-2,3.4-5.2,5.9-9,6.9c-1.6,0.4-3.1,0.6-4.7,0.5c-2.3-6.8-7.4-12.3-13.9-15.3C384.7,275.3,385.3,273,386.6,270.8z M283.1,265.2
			v-7.8l3.6,6.3C285.5,264.1,284.3,264.6,283.1,265.2z M370.7,270.3c-0.5,1.7-0.7,3.3-0.9,5c-4,0.4-7.7,1.6-11,3.5
			c-4.1-9.8-13.7-16.5-24.7-16.5c-7.6,0-14.4,3.2-19.3,8.2c-2.9-3-6.6-5.4-10.6-6.8l-21-36.4v-3.7c0-1.4-0.1-2.7-0.3-4L370.7,270.3z
			"/>
	</g>
</g>
<g>
	<g>
		<path class="st0" d="M367.6,44.3c-2.1-7.7-7-14.1-13.9-18.1c-6.9-4-14.9-5-22.6-3c-7.7,2.1-14.1,7-18.1,13.9
			c-6.9,12-4.5,26.9,4.9,36.2l-10.6,18.4c-2.1,3.6-0.8,8.2,2.8,10.3c1.2,0.7,2.5,1,3.8,1c2.6,0,5.1-1.3,6.5-3.8l10.6-18.4
			c2.6,0.7,5.2,1.1,7.9,1.1c2.6,0,5.2-0.3,7.8-1c7.7-2.1,14.1-7,18.1-13.9S369.7,52,367.6,44.3z M351.6,59.4c-2,3.4-5.2,5.9-9,6.9
			c-3.8,1-7.8,0.5-11.2-1.5c-7.1-4.1-9.5-13.2-5.4-20.2c2-3.4,5.2-5.9,9-6.9c1.3-0.3,2.6-0.5,3.9-0.5c2.6,0,5.1,0.7,7.4,2
			c3.4,2,5.9,5.2,6.9,9C354.1,52,353.6,56,351.6,59.4z"/>
	</g>
</g>
</svg>
