<?xml version="1.0" encoding="utf-8"?>
<!-- Generator: Adobe Illustrator 23.0.2, SVG Export Plug-In . SVG Version: 6.00 Build 0)  -->
<svg version="1.1" id="Layer_1" xmlns="http://www.w3.org/2000/svg" xmlns:xlink="http://www.w3.org/1999/xlink" x="0px" y="0px"
	 viewBox="0 0 496 496" style="enable-background:new 0 0 496 496;" xml:space="preserve">
<style type="text/css">
	.st0{fill:#00B0F0;}
</style>
<path class="st0" d="M401.8,134.3c8.6-7.3,14.2-18.1,14.2-30.3c0-22.1-17.9-40-40-40c-17,0-31.4,10.7-37.2,25.7
	c-3.4-1-7-1.7-10.8-1.7c-3.8,0-7.3,0.7-10.8,1.7C311.4,74.7,297,64,280,64c-22.1,0-40,17.9-40,40c0,12.2,5.6,23,14.2,30.3
	c-17.9,9.3-30.2,28.1-30.2,49.7v48c0,4.4,3.6,8,8,8h40v16c0,4.4,3.6,8,8,8h96c4.4,0,8-3.6,8-8v-16h40c4.4,0,8-3.6,8-8v-48
	C432,162.4,419.7,143.7,401.8,134.3z M376,80c13.2,0,24,10.8,24,24c0,13.2-10.8,24-24,24c-2.8,0-5.5-0.7-8.2-1.6
	c-0.5-11.8-6.1-22.2-14.7-29.2C356.1,87.3,365.2,80,376,80z M352,128c0,13.2-10.8,24-24,24c-13.2,0-24-10.8-24-24
	c0-13.2,10.8-24,24-24C341.2,104,352,114.8,352,128z M256,104c0-13.2,10.8-24,24-24c10.8,0,19.9,7.3,22.9,17.1
	c-8.6,7-14.2,17.4-14.7,29.2c-2.6,1-5.3,1.6-8.2,1.6C266.8,128,256,117.2,256,104z M240,224v-40c0-22.1,17.9-40,40-40
	c4.3,0,8.5,0.7,12.5,2.1c2.4,4.7,5.7,8.9,9.7,12.3c-17.9,9.3-30.2,28.1-30.2,49.7v16H240z M368,248h-80v-40c0-22.1,17.9-40,40-40
	c22.1,0,40,17.9,40,40V248z M416,224h-32v-16c0-21.6-12.3-40.3-30.2-49.7c4-3.4,7.3-7.6,9.7-12.3c4-1.3,8.2-2.1,12.5-2.1
	c22.1,0,40,17.9,40,40V224z"/>
<path class="st0" d="M488,136h-11.5c-3.9-18.3-11.3-35.8-21.6-51.5l14.8-14.8c3.1-3.1,3.1-8.2,0-11.3l-32-32
	c-3.1-3.1-8.2-3.1-11.3,0l-14.8,14.8c-15.7-10.3-33.2-17.7-51.5-21.6V8c0-4.4-3.6-8-8-8h-48c-4.4,0-8,3.6-8,8v11.5
	c-18.3,3.9-35.9,11.3-51.5,21.6l-14.8-14.8c-3.1-3.1-8.2-3.1-11.3,0l-32,32c-3.1,3.1-3.1,8.2,0,11.3l14.8,14.8
	c-0.8,1.1-1.4,2.4-2.1,3.5H168c-61.2,0-111,49.3-112,110.2L0.8,316.6c-1.2,2.5-1,5.4,0.5,7.7c1.5,2.3,4,3.7,6.8,3.7h48v96
	c0,4.4,3.6,8,8,8h80v64h16v-72c0-4.4-3.6-8-8-8H72v-96c0-4.4-3.6-8-8-8H20.6l50.7-108.6c0.5-1.1,0.8-2.2,0.8-3.4
	c0-52.9,43.1-96,96-96h22.5c-4.8,10.3-8.5,21-10.9,32H168c-4.4,0-8,3.6-8,8v48c0,4.4,3.6,8,8,8h11.5c3.9,18.3,11.3,35.8,21.6,51.5
	l-14.8,14.8c-3.1,3.1-3.1,8.2,0,11.3l32,32c3.1,3.1,8.2,3.1,11.3,0l14.8-14.8c14.1,9.3,29.9,16.1,46.2,20.2l-34,73.6
	c-0.5,1-0.7,2.2-0.7,3.4v104h16V393.8l27.4-59.4c1.3,1,2.8,1.6,4.6,1.6h48c4.4,0,8-3.6,8-8v-11.5c18.3-3.9,35.9-11.3,51.5-21.6
	l14.8,14.8c3.1,3.1,8.2,3.1,11.3,0l32-32c3.1-3.1,3.1-8.2,0-11.3l-14.8-14.8c10.3-15.6,17.7-33.2,21.6-51.5H488c4.4,0,8-3.6,8-8v-48
	C496,139.6,492.4,136,488,136z M480,184h-10.2c-3.9,0-7.2,2.8-7.9,6.7c-3.5,20.8-11.6,40-24,57.1c-2.3,3.2-2,7.6,0.8,10.4l13.9,13.9
	L432,292.7l-13.9-13.9c-2.8-2.8-7.2-3.1-10.4-0.8c-17.1,12.4-36.3,20.5-57.1,24c-3.8,0.6-6.7,4-6.7,7.9V320h-32v-10.2
	c0-3.9-2.8-7.2-6.7-7.9c-20.5-3.4-40.2-11.7-57.1-24c-3.2-2.3-7.6-2-10.4,0.8L224,292.7L203.3,272l13.9-13.9
	c2.8-2.8,3.1-7.2,0.8-10.4c-12.3-16.9-20.6-36.6-24-57.1c-0.6-3.8-4-6.7-7.9-6.7H176v-32h10.2c3.9,0,7.2-2.8,7.9-6.7
	c3.5-20.8,11.6-40,24-57.1c2.3-3.2,2-7.6-0.8-10.4L203.3,64L224,43.3l13.9,13.9c2.8,2.8,7.2,3.2,10.4,0.8
	c17.1-12.4,36.3-20.5,57.1-24c3.8-0.6,6.7-4,6.7-7.9V16h32v10.2c0,3.9,2.8,7.2,6.7,7.9c20.5,3.4,40.2,11.7,57.1,24
	c3.2,2.3,7.6,2,10.4-0.8L432,43.3L452.7,64l-13.9,13.9c-2.8,2.8-3.1,7.2-0.8,10.4c12.3,16.9,20.6,36.6,24,57.1
	c0.6,3.8,4,6.7,7.9,6.7H480V184z"/>
</svg>
