<?xml version="1.0" encoding="iso-8859-1"?>
<!-- Generator: Adobe Illustrator 19.0.0, SVG Export Plug-In . SVG Version: 6.00 Build 0)  -->
<svg xmlns="http://www.w3.org/2000/svg" xmlns:xlink="http://www.w3.org/1999/xlink" version="1.1" id="Layer_1" x="0px" y="0px" viewBox="0 0 512 512" style="enable-background:new 0 0 512 512;" xml:space="preserve" width="512" height="512">
<g id="XMLID_997_">
	<path id="XMLID_2949_" style="fill:#C0F0FB;" d="M427.999,147.943L502,196.331v280.044C502,490.527,490.527,502,476.375,502   h-57.376h-89.07H35.625C21.473,502,10,490.527,10,476.374V196.331l73.472-48.387"/>
	<polygon id="XMLID_2843_" style="fill:#00CCF2;" points="417.249,138.261 499,194.392 417.249,276.143  "/>
	<polygon id="XMLID_2842_" style="fill:#00CCF2;" points="96.105,139.519 10.741,198.131 96.105,283.495  "/>
	<path id="XMLID_2982_" style="fill:#5DDEF5;" d="M35.625,502h294.304h89.07h57.376c1.937,0,3.816-0.233,5.63-0.64L309.788,329.143   c-29.708-29.708-77.876-29.708-107.584,0L29.989,501.358C31.805,501.766,33.687,502,35.625,502z"/>
	<path id="XMLID_2844_" style="fill:#F8F8F8;" d="M341.316,360.693l96.68-96.681V30c0-11.046-8.954-20-20-20h-324   c-11.046,0-20,8.954-20,20v234.012l96.746,96.746l32.994-32.549c29.013-28.622,75.639-28.622,104.652,0L341.316,360.693z"/>
	<g id="XMLID_323_">
		<path id="XMLID_324_" d="M367.219,492h-0.117c-5.523,0-10,4.477-10,10s4.477,10,10,10h0.117c5.523,0,10-4.477,10-10    S372.742,492,367.219,492z"/>
		<path id="XMLID_327_" d="M507.649,188.08l-59.653-40.839V30c0-16.542-13.458-30-30-30h-324c-16.542,0-30,13.458-30,30v119.237    L4.543,187.951C1.709,189.796,0,192.949,0,196.331v280.043C0,496.019,15.981,512,35.625,512h291.477c5.523,0,10-4.477,10-10    s-4.477-10-10-10H53.49l126.085-126.085c0.002-0.002,0.003-0.003,0.005-0.005s0.003-0.003,0.005-0.005l29.691-29.691    c12.479-12.479,29.072-19.353,46.721-19.353s34.242,6.873,46.721,19.353L458.503,492h-51.401c-5.523,0-10,4.477-10,10    s4.477,10,10,10h69.272C496.019,512,512,496.019,512,476.375V196.331C512,193.031,510.372,189.944,507.649,188.08z     M486.411,197.778l-38.415,38.415v-64.714L486.411,197.778z M63.996,236.185l-38.204-38.204l38.204-24.877V236.185z M20,476.375    V220.474l138.366,138.366L27.547,489.658c-0.014,0.014-0.025,0.029-0.039,0.043C23.015,486.953,20,482.016,20,476.375z     M255.996,296.862c-22.991,0-44.606,8.953-60.863,25.21l-22.625,22.624l-88.512-88.512V30c0-5.514,4.486-10,10-10h324    c5.514,0,10,4.486,10,10v226.192L339.488,344.7l-22.628-22.628C300.602,305.815,278.987,296.862,255.996,296.862z M484.49,489.702    L353.631,358.843L492,220.474v255.901C492,482.016,488.984,486.954,484.49,489.702z"/>
		<path id="XMLID_332_" d="M325.304,200.951c-4.358-3.392-10.642-2.608-14.033,1.751l-26.61,34.197l-2.346-3.398    c-2.655-5.086-7.379-8.53-12.819-9.29c-5.604-0.786-11.213,1.416-15.004,5.882l-12.988,15.296l-5.58-6.572    c-3.48-4.099-8.439-6.504-13.604-6.599c-5.139-0.106-10.164,2.113-13.768,6.055l-12.611,13.794    c-3.727,4.077-3.443,10.402,0.633,14.128c1.919,1.754,4.335,2.62,6.745,2.62c2.71,0,5.411-1.095,7.384-3.252l11.248-12.304    l4.92,5.795c3.749,4.416,9.083,6.948,14.633,6.948h0c5.551,0,10.885-2.532,14.635-6.948l10.763-12.676l9.046,13.106    c1.81,2.622,4.76,4.224,7.944,4.315c3.195,0.086,6.222-1.341,8.178-3.855l34.985-44.96    C330.446,210.625,329.663,204.342,325.304,200.951z"/>
		<path id="XMLID_826_" d="M322.084,152c0-5.523-4.477-10-10-10H159.916c-5.523,0-10,4.477-10,10s4.477,10,10,10h152.168    C317.607,162,322.084,157.523,322.084,152z"/>
		<path id="XMLID_827_" d="M352.08,142c-2.63,0-5.2,1.07-7.07,2.93c-1.86,1.86-2.93,4.44-2.93,7.07c0,2.63,1.07,5.21,2.93,7.07    c1.87,1.86,4.44,2.93,7.07,2.93c2.64,0,5.21-1.07,7.07-2.93c1.87-1.86,2.93-4.44,2.93-7.07c0-2.63-1.06-5.21-2.93-7.07    C357.29,143.07,354.72,142,352.08,142z"/>
		<path id="XMLID_929_" d="M159.916,118h192.168c5.523,0,10-4.477,10-10s-4.477-10-10-10H159.916c-5.523,0-10,4.477-10,10    S154.393,118,159.916,118z"/>
		<path id="XMLID_951_" d="M159.916,74h34.123c5.523,0,10-4.477,10-10s-4.477-10-10-10h-34.123c-5.523,0-10,4.477-10,10    S154.393,74,159.916,74z"/>
	</g>
</g>















</svg>
