<?xml version="1.0" encoding="iso-8859-1"?>
<!-- Generator: Adobe Illustrator 19.0.0, SVG Export Plug-In . SVG Version: 6.00 Build 0)  -->
<svg version="1.1" id="Capa_1" xmlns="http://www.w3.org/2000/svg" xmlns:xlink="http://www.w3.org/1999/xlink" x="0px" y="0px"
	 viewBox="0 0 512 512" style="enable-background:new 0 0 512 512;" xml:space="preserve">
<path style="fill:#CFD8DC;" d="M458.667,96c-9.658-0.032-18.778-4.451-24.789-12.011V83.84c-2.208-2.76-3.958-5.858-5.184-9.173
	l-0.235-0.747c-1.142-3.185-1.747-6.537-1.792-9.92c0-5.891-4.776-10.667-10.667-10.667H202.667C196.776,53.333,192,58.109,192,64
	c0.091,17.579-14.085,31.903-31.664,31.994c-9.811,0.051-19.097-4.426-25.168-12.132c-3.676-4.561-10.343-5.304-14.933-1.664
	l-40.405,32.277c-4.555,3.683-5.288,10.349-1.643,14.933c4.604,5.622,7.128,12.659,7.147,19.925c0,17.673-14.327,32-32,32
	c-5.891,0-10.667,4.776-10.667,10.667v213.333c0,5.891,4.776,10.667,10.667,10.667c9.658,0.032,18.778,4.451,24.789,12.011v0.149
	c2.208,2.76,3.958,5.858,5.184,9.173l0.235,0.747c1.142,3.185,1.747,6.537,1.792,9.92c0,5.891,4.776,10.667,10.667,10.667h213.333
	c5.891,0,10.667-4.776,10.667-10.667c-0.091-17.579,14.085-31.903,31.664-31.994c9.811-0.051,19.097,4.426,25.168,12.132
	c3.676,4.561,10.343,5.304,14.933,1.664l40.341-32.277c4.555-3.683,5.288-10.349,1.643-14.933
	c-4.581-5.63-7.082-12.667-7.083-19.925c0-17.673,14.327-32,32-32c5.891,0,10.667-4.776,10.667-10.667V106.667
	C469.333,100.776,464.558,96,458.667,96z M406.4,74.667c0.592,1.99,1.305,3.942,2.133,5.845c0.712,2.643,1.632,5.225,2.752,7.723
	l-25.28,20.224c-0.384-0.32-0.811-0.533-1.195-0.832c-1.693-1.352-3.467-2.598-5.312-3.733c-1.109-0.683-2.133-1.237-3.392-1.835
	c-1.602-0.859-3.246-1.635-4.928-2.325c-1.706-0.631-3.443-1.172-5.205-1.621c-1.344-0.363-2.645-0.832-4.011-1.088
	c-3.281-0.658-6.617-1.001-9.963-1.024c-3.403,0.016-6.796,0.359-10.133,1.024c-1.088,0.213-2.133,0.576-3.179,0.853
	c-2.173,0.518-4.31,1.174-6.4,1.963c-1.195,0.469-2.325,1.067-3.477,1.621c-1.787,0.848-3.524,1.795-5.205,2.837
	c-1.131,0.704-2.133,1.472-3.243,2.261c-1.552,1.149-3.04,2.381-4.459,3.691c-0.96,0.896-1.899,1.792-2.795,2.731
	c-1.342,1.458-2.603,2.989-3.776,4.587c-0.747,1.003-1.515,1.963-2.133,3.008c-1.173,1.874-2.227,3.819-3.157,5.824
	c-0.448,0.939-0.981,1.813-1.387,2.773c-1.287,3.071-2.28,6.257-2.965,9.515H170.667v-22.421c0.363,0,0.661-0.299,1.045-0.384
	c4.381-0.986,8.618-2.528,12.608-4.587c0.469-0.256,0.981-0.427,1.451-0.683c3.933-2.226,7.568-4.943,10.816-8.085
	c0.619-0.597,1.216-1.152,1.813-1.771c3.102-3.207,5.79-6.79,8-10.667c0.363-0.64,0.64-1.301,0.981-1.963
	c2.234-4.244,3.878-8.773,4.885-13.461H406.4z M153.109,393.877c-0.299,0-0.576-0.192-0.896-0.277
	c-1.993-0.519-3.929-1.234-5.781-2.133l-0.448-0.235c-4.202-2.107-7.899-5.098-10.837-8.768l-0.171-0.149
	c-4.476-5.575-6.934-12.499-6.976-19.648c0-17.673,14.327-32,32-32s32,14.327,32,32s-14.327,32-32,32
	C157.681,394.661,155.37,394.396,153.109,393.877z M212.267,352L212.267,352c-1.007-4.545-2.614-8.935-4.779-13.056
	c-0.512-1.024-1.045-1.984-1.621-2.965c-4.636-7.949-11.251-14.564-19.2-19.2c-0.981-0.576-1.963-1.109-2.965-1.621
	c-4.116-2.148-8.5-3.74-13.035-4.736l0,0V160h129.067l0,0c1.007,4.545,2.614,8.935,4.779,13.056
	c0.512,1.024,1.045,1.984,1.621,2.965c4.636,7.949,11.251,14.564,19.2,19.2c0.981,0.576,1.963,1.109,2.965,1.621
	c4.116,2.148,8.5,3.74,13.035,4.736l0,0V352H212.267z M352,181.333c-17.673,0-32-14.327-32-32s14.327-32,32-32
	c2.319,0.005,4.63,0.27,6.891,0.789c0.299,0,0.576,0.192,0.896,0.277c1.992,0.519,3.929,1.234,5.781,2.133l0.448,0.235
	c4.202,2.107,7.899,5.098,10.837,8.768l0.171,0.149c4.476,5.575,6.934,12.499,6.976,19.648C384,167.006,369.673,181.333,352,181.333
	z M125.973,104.875c6.729,5.638,14.758,9.51,23.36,11.264v22.528h-43.776c-0.985-4.726-2.622-9.292-4.864-13.568L125.973,104.875z
	 M64,201.6c20.927-4.32,37.28-20.673,41.6-41.6h43.733v150.421c-24.828,5.068-42.662,26.906-42.667,52.245
	c0.06,8.418,2.137,16.7,6.059,24.149l-25.6,20.523c-6.624-5.731-14.572-9.72-23.125-11.605V201.6z M105.6,437.333
	c-0.592-1.99-1.305-3.942-2.133-5.845c-0.712-2.643-1.632-5.225-2.752-7.723l25.28-20.224c0.384,0.32,0.811,0.533,1.195,0.832
	c1.693,1.352,3.467,2.599,5.312,3.733c1.088,0.683,2.133,1.237,3.371,1.835c3.187,1.778,6.604,3.106,10.155,3.947
	c1.344,0.363,2.645,0.832,4.032,1.088c3.274,0.656,6.603,0.999,9.941,1.024c3.403-0.016,6.796-0.359,10.133-1.024
	c1.088-0.213,2.133-0.576,3.179-0.853c2.173-0.518,4.31-1.174,6.4-1.963c1.195-0.469,2.325-1.067,3.477-1.621
	c1.787-0.848,3.524-1.795,5.205-2.837c1.131-0.704,2.133-1.472,3.243-2.261c1.552-1.148,3.041-2.38,4.459-3.691
	c0.96-0.896,1.899-1.792,2.795-2.731c1.343-1.458,2.603-2.989,3.776-4.587c0.747-1.003,1.515-1.963,2.133-3.008
	c1.173-1.874,2.227-3.819,3.157-5.824c0.448-0.939,0.981-1.813,1.387-2.773c1.271-3.065,2.25-6.244,2.923-9.493h129.067v22.4
	c-0.363,0-0.661,0.299-1.045,0.384c-4.381,0.986-8.618,2.528-12.608,4.587c-0.469,0.256-0.981,0.427-1.451,0.683
	c-3.933,2.226-7.568,4.943-10.816,8.085c-0.619,0.597-1.216,1.152-1.813,1.771c-3.102,3.207-5.79,6.79-8,10.667
	c-0.363,0.64-0.64,1.301-0.981,1.963c-2.238,4.229-3.889,8.744-4.907,13.419L105.6,437.333z M386.027,407.125
	c-6.729-5.639-14.758-9.511-23.36-11.264v-22.528h43.776c0.985,4.726,2.622,9.292,4.864,13.568L386.027,407.125z M448,310.4
	c-20.927,4.32-37.28,20.673-41.6,41.6h-43.733V201.579c24.828-5.068,42.662-26.906,42.667-52.245
	c-0.06-8.418-2.137-16.7-6.059-24.149l25.6-20.523c6.624,5.731,14.572,9.72,23.125,11.605V310.4z"/>
<g>
	<circle style="fill:#00BCD4;" cx="352" cy="149.333" r="53.333"/>
	<circle style="fill:#00BCD4;" cx="53.333" cy="149.333" r="53.333"/>
	<circle style="fill:#00BCD4;" cx="53.333" cy="448" r="53.333"/>
	<circle style="fill:#00BCD4;" cx="458.667" cy="64" r="53.333"/>
	<circle style="fill:#00BCD4;" cx="458.667" cy="362.667" r="53.333"/>
	<circle style="fill:#00BCD4;" cx="352" cy="448" r="53.333"/>
	<circle style="fill:#00BCD4;" cx="160" cy="362.667" r="53.333"/>
	<circle style="fill:#00BCD4;" cx="160" cy="64" r="53.333"/>
</g>
<path d="M309.333,160H96c-5.891,0-10.667-4.776-10.667-10.667c-0.033-7.244-2.556-14.257-7.147-19.861
	c-3.645-4.585-2.912-11.251,1.643-14.933l40.341-32.341c4.59-3.64,11.257-2.897,14.933,1.664
	c10.833,13.844,30.837,16.286,44.682,5.453C187.564,83.228,192.077,73.876,192,64c0-5.891,4.776-10.667,10.667-10.667H416
	c5.891,0,10.667,4.776,10.667,10.667c0.033,7.244,2.556,14.257,7.147,19.861c3.645,4.585,2.912,11.251-1.643,14.933l-40.341,32.341
	c-4.59,3.64-11.257,2.897-14.933-1.664c-10.833-13.844-30.837-16.286-44.682-5.453c-7.778,6.086-12.291,15.438-12.214,25.315
	C320,155.224,315.224,160,309.333,160z M105.557,138.667h194.133c5.107-24.813,26.934-42.631,52.267-42.667
	c12.459-0.002,24.515,4.412,34.027,12.459l25.28-20.224c-2.242-4.276-3.879-8.842-4.864-13.568H212.267
	C207.16,99.48,185.333,117.297,160,117.333c-12.459,0.002-24.515-4.412-34.027-12.459l-25.28,20.224
	C102.935,129.374,104.572,133.941,105.557,138.667z"/>
<path d="M309.333,458.667H96c-5.891,0-10.667-4.776-10.667-10.667c-0.033-7.244-2.556-14.257-7.147-19.861
	c-3.645-4.585-2.912-11.251,1.643-14.933l40.341-32.277c4.59-3.64,11.257-2.897,14.933,1.664
	c10.832,13.845,30.837,16.287,44.682,5.455c7.797-6.1,12.311-15.481,12.214-25.38c0-5.891,4.776-10.667,10.667-10.667H416
	c5.891,0,10.667,4.776,10.667,10.667c0.033,7.244,2.556,14.257,7.147,19.861c3.645,4.585,2.912,11.251-1.643,14.933l-40.341,32.277
	c-4.59,3.64-11.257,2.897-14.933-1.664c-10.832-13.845-30.837-16.287-44.682-5.454c-7.797,6.1-12.311,15.481-12.214,25.38
	C320,453.891,315.224,458.667,309.333,458.667z M105.557,437.333h194.133c5.107-24.813,26.934-42.631,52.267-42.667
	c12.459-0.002,24.515,4.412,34.027,12.459l25.28-20.224c-2.242-4.276-3.879-8.842-4.864-13.568H212.267
	C207.16,398.146,185.333,415.964,160,416c-12.459,0.002-24.515-4.412-34.027-12.459l-25.28,20.224
	C102.935,428.041,104.572,432.607,105.557,437.333z"/>
<path d="M416,373.333H202.667c-5.891,0-10.667-4.776-10.667-10.667c0-17.673-14.327-32-32-32c-5.891,0-10.667-4.776-10.667-10.667
	V106.667C149.333,100.776,154.109,96,160,96c17.673,0,32-14.327,32-32c0-5.891,4.776-10.667,10.667-10.667H416
	c5.891,0,10.667,4.776,10.667,10.667c0,17.673,14.327,32,32,32c5.891,0,10.667,4.776,10.667,10.667V320
	c0,5.891-4.776,10.667-10.667,10.667c-17.673,0-32,14.327-32,32C426.667,368.558,421.891,373.333,416,373.333z M212.267,352H406.4
	c4.32-20.927,20.673-37.28,41.6-41.6V116.267c-20.927-4.32-37.28-20.673-41.6-41.6H212.267c-4.32,20.927-20.673,37.28-41.6,41.6
	V310.4C191.594,314.72,207.947,331.073,212.267,352z M352,202.667c-29.455,0-53.333-23.878-53.333-53.333
	C298.667,119.878,322.545,96,352,96c29.455,0,53.333,23.878,53.333,53.333C405.333,178.789,381.455,202.667,352,202.667z
	 M352,117.333c-17.673,0-32,14.327-32,32s14.327,32,32,32s32-14.327,32-32S369.673,117.333,352,117.333z"/>
<path d="M309.333,458.667H96c-5.891,0-10.667-4.776-10.667-10.667c0-17.673-14.327-32-32-32c-5.891,0-10.667-4.776-10.667-10.667
	V192c0-5.891,4.776-10.667,10.667-10.667c17.673,0,32-14.327,32-32c0-5.891,4.776-10.667,10.667-10.667h213.333
	c5.891,0,10.667,4.776,10.667,10.667c0,17.673,14.327,32,32,32c5.891,0,10.667,4.776,10.667,10.667v213.333
	c0,5.891-4.776,10.667-10.667,10.667c-17.673,0-32,14.327-32,32C320,453.891,315.224,458.667,309.333,458.667z M105.6,437.333
	h194.133c4.32-20.927,20.673-37.28,41.6-41.6V201.6c-20.927-4.32-37.28-20.673-41.6-41.6H105.6c-4.32,20.927-20.673,37.28-41.6,41.6
	v194.133C84.927,400.053,101.28,416.406,105.6,437.333z M160,416c-29.455,0-53.333-23.878-53.333-53.333
	s23.878-53.333,53.333-53.333s53.333,23.878,53.333,53.333S189.455,416,160,416z M160,330.667c-17.673,0-32,14.327-32,32
	s14.327,32,32,32s32-14.327,32-32S177.673,330.667,160,330.667z"/>
<path d="M352,501.333c-29.455,0-53.333-23.878-53.333-53.333s23.878-53.333,53.333-53.333c29.455,0,53.333,23.878,53.333,53.333
	S381.455,501.333,352,501.333z M352,416c-17.673,0-32,14.327-32,32s14.327,32,32,32s32-14.327,32-32S369.673,416,352,416z
	 M53.333,501.333C23.878,501.333,0,477.455,0,448s23.878-53.333,53.333-53.333s53.333,23.878,53.333,53.333
	S82.789,501.333,53.333,501.333z M53.333,416c-17.673,0-32,14.327-32,32s14.327,32,32,32s32-14.327,32-32S71.006,416,53.333,416z
	 M458.667,416c-29.455,0-53.333-23.878-53.333-53.333s23.878-53.333,53.333-53.333S512,333.211,512,362.667S488.122,416,458.667,416
	z M458.667,330.667c-17.673,0-32,14.327-32,32s14.327,32,32,32s32-14.327,32-32S476.34,330.667,458.667,330.667z M160,416
	c-29.455,0-53.333-23.878-53.333-53.333s23.878-53.333,53.333-53.333s53.333,23.878,53.333,53.333S189.455,416,160,416z
	 M160,330.667c-17.673,0-32,14.327-32,32s14.327,32,32,32s32-14.327,32-32S177.673,330.667,160,330.667z M352,202.667
	c-29.455,0-53.333-23.878-53.333-53.333C298.667,119.878,322.545,96,352,96c29.455,0,53.333,23.878,53.333,53.333
	C405.333,178.789,381.455,202.667,352,202.667z M352,117.333c-17.673,0-32,14.327-32,32s14.327,32,32,32s32-14.327,32-32
	S369.673,117.333,352,117.333z M53.333,202.667C23.878,202.667,0,178.789,0,149.333C0,119.878,23.878,96,53.333,96
	s53.333,23.878,53.333,53.333C106.667,178.789,82.789,202.667,53.333,202.667z M53.333,117.333c-17.673,0-32,14.327-32,32
	s14.327,32,32,32s32-14.327,32-32S71.006,117.333,53.333,117.333z M458.667,117.333c-29.455,0-53.333-23.878-53.333-53.333
	s23.878-53.333,53.333-53.333S512,34.545,512,64S488.122,117.333,458.667,117.333z M458.667,32c-17.673,0-32,14.327-32,32
	s14.327,32,32,32s32-14.327,32-32S476.34,32,458.667,32z M160,117.333c-29.455,0-53.333-23.878-53.333-53.333
	S130.545,10.667,160,10.667S213.333,34.545,213.333,64S189.455,117.333,160,117.333z M160,32c-17.673,0-32,14.327-32,32
	s14.327,32,32,32s32-14.327,32-32S177.673,32,160,32z"/>
<g>
</g>
<g>
</g>
<g>
</g>
<g>
</g>
<g>
</g>
<g>
</g>
<g>
</g>
<g>
</g>
<g>
</g>
<g>
</g>
<g>
</g>
<g>
</g>
<g>
</g>
<g>
</g>
<g>
</g>
</svg>
