<svg height="436pt" viewBox="0 -13 436.91352 436" width="436pt" xmlns="http://www.w3.org/2000/svg"><path d="m277.386719 225.738281h-41.863281v-34.132812h-34.132813v34.132812h-38.453125c-16.464844 0-33.230469 11.441407-33.230469 25.5625v22.226563h177.496094v-25.152344c0-12.503906-15.238281-22.636719-29.816406-22.636719zm0 0" fill="#999"/><path d="m277.386719 225.738281v-6.824219h-35.035157v-27.308593c0-1.800781-.730468-3.554688-2-4.828125-1.273437-1.269532-3.03125-1.996094-4.828124-1.996094h-34.132813c-1.796875 0-3.558594.726562-4.828125 1.996094-1.269531 1.273437-2 3.027344-2 4.828125v27.308593h-31.625c-9.8125.027344-19.351562 3.308594-26.847656 8.824219-3.746094 2.773438-6.988282 6.144531-9.363282 10.105469-2.371093 3.953125-3.847656 8.5625-3.84375 13.457031v22.226563c0 1.820312.707032 3.535156 2 4.824218 1.289063 1.292969 3.003907 2 4.824219 2h177.496094c1.820313 0 3.535156-.707031 4.824219-2 1.292968-1.289062 2-3.003906 2-4.824218v-25.152344c.007812-4.53125-1.398438-8.773438-3.609375-12.375-3.335938-5.417969-8.371094-9.5625-14.105469-12.484375-5.75-2.902344-12.273438-4.59375-18.929688-4.601563v13.648438c5.710938-.03125 11.972657 2.097656 16.363282 5.328125 2.203125 1.597656 3.925781 3.433594 5.023437 5.230469 1.101563 1.816406 1.601563 3.527344 1.605469 5.25v18.324218h-163.839844v-15.394531c.003906-2.167969.621094-4.285156 1.90625-6.449219 1.910156-3.226562 5.441406-6.414062 9.867188-8.675781 4.410156-2.277343 9.640625-3.617187 14.628906-3.609375h38.449219c1.824219 0 3.539062-.707031 4.828125-2 1.289062-1.289062 2-3 2-4.824218v-27.3125h20.480468v27.3125c0 1.824218.710938 3.535156 2 4.824218 1.289063 1.292969 3.003907 2 4.828126 2h41.859374v-6.828125zm0 0" fill="#54596e"/><path d="m279.894531 167.714844 3.414063-41.667969c0-27.886719-21.210938-50.492187-47.375-50.492187h-34.957032c-26.164062 0-47.375 22.605468-47.375 50.492187l3.414063 41.667969" fill="#bfad88"/><path d="m286.699219 168.269531 3.414062-41.667969.023438-.554687c0-15.6875-5.96875-29.980469-15.726563-40.375-9.734375-10.398437-23.398437-16.953125-38.476562-16.945313h-34.957032c-15.078124-.007812-28.742187 6.546876-38.476562 16.945313-9.757812 10.394531-15.726562 24.6875-15.726562 40.375l.023437.554687 3.414063 41.667969c.308593 3.757813 3.601562 6.554688 7.359374 6.246094 3.757813-.308594 6.554688-3.601563 6.246094-7.359375l-3.410156-41.667969-6.804688.558594h6.824219c0-12.203125 4.636719-23.15625 12.027344-31.035156 7.414063-7.878907 17.433594-12.628907 28.519531-12.636719h34.960938c11.085937.007812 21.109375 4.757812 28.519531 12.636719 7.390625 7.878906 12.027344 18.832031 12.027344 31.035156h6.828125l-6.804688-.558594-3.414062 41.664063c-.308594 3.757812 2.484375 7.054687 6.242187 7.363281 3.757813.308594 7.058594-2.484375 7.367188-6.242187zm0 0" fill="#54596e"/><path d="m195.820312 136.605469c-33.929687 0-38.804687-29.585938-38.804687 3.308593v27.511719c0 14.675781 6.980469 33.921875 18.855469 48.082031 8.996094 10.71875 25.300781 17.058594 42.585937 17.058594 17.285157 0 33.589844-6.339844 42.585938-17.058594 11.875-14.160156 18.855469-33.40625 18.855469-48.082031v-27.511719c-.003907-32.894531-50.144532-3.308593-84.078126-3.308593zm0 0" fill="#ffd578"/><path d="m195.820312 136.605469v-6.824219c-9.621093-.027344-16.21875-2.609375-21.289062-5.304688-2.539062-1.359374-4.644531-2.753906-6.644531-3.992187-1.007813-.621094-1.988281-1.210937-3.152344-1.761719-1.171875-.519531-2.558594-1.132812-4.75-1.167968-1.195313-.007813-2.660156.269531-3.960937.960937-1.136719.589844-2.082032 1.433594-2.75 2.277344-1.175782 1.5-1.660157 2.882812-2.023438 4.175781-.515625 1.953125-.71875 3.882812-.871094 6.285156-.140625 2.386719-.191406 5.210938-.191406 8.660156v27.511719c.011719 8.410157 1.949219 17.589844 5.425781 26.679688 3.488281 9.074219 8.535157 18.042969 15.023438 25.785156v.003906c5.390625 6.410157 12.671875 11.230469 20.894531 14.503907 8.230469 3.269531 17.445312 4.988281 26.921875 4.992187 9.476563-.003906 18.691406-1.722656 26.921875-4.992187 8.222656-3.273438 15.503906-8.09375 20.894531-14.503907v-.003906c6.488281-7.742187 11.535157-16.710937 15.023438-25.785156 3.476562-9.089844 5.414062-18.269531 5.425781-26.679688v-27.511719c0-3.554687-.476562-6.808593-1.585938-9.78125-1.613281-4.476562-4.988281-8.125-8.9375-10.039062-3.945312-1.957031-8.171874-2.527344-12.476562-2.539062-10.304688.054687-21.988281 3.304687-34.046875 6.320312-11.976563 3.0625-24.199219 5.9375-33.855469 5.90625v13.648438c12.15625-.03125 25.089844-3.269532 37.214844-6.320313 12.042969-3.09375 23.40625-5.960937 30.6875-5.90625 2.003906 0 3.65625.203125 4.855469.535156 1.835937.539063 2.515625 1.085938 3.152343 1.960938.621094.886719 1.335938 2.691406 1.339844 6.210937v27.515625c.011719 6.257813-1.539062 14.039063-4.519531 21.785157-2.972656 7.753906-7.351563 15.492187-12.738281 21.910156l.003906-.003906c-3.609375 4.308593-8.976562 8.015624-15.476562 10.59375-6.492188 2.582031-14.074219 4.03125-21.882813 4.027343-7.808594.003907-15.390625-1.445312-21.882813-4.027343-6.5-2.578126-11.867187-6.285157-15.472656-10.59375v.003906c-5.382812-6.417969-9.765625-14.15625-12.738281-21.910156-2.980469-7.746094-4.53125-15.527344-4.519531-21.785157v-27.515625c-.015625-5.726562.195312-9.480468.488281-10.925781l.121094-.515625-3.398438-1.203125 2.347657 2.621094c.882812-.820313 1.039062-1.417969 1.050781-1.417969l-3.398438-1.203125 2.347657 2.621094-3.414063-3.808594v5.128906c.910156.0625 2.5625-.476562 3.414063-1.320312l-3.414063-3.804688v5.125-3.722656l-1.042969 3.59375 1.042969.128906v-3.726562l-1.042969 3.59375.34375-1.191407-.445312 1.160157.101562.035156.34375-1.195313-.445312 1.160157c.0625-.019531 1.554687.824219 3.457031 2.050781 5.859375 3.734375 16.910156 10.402344 33.519531 10.335938v-6.824219zm0 0" fill="#54596e"/><path d="m61.445312 358.273438 48.269532-48.273438c2.664062-2.664062 2.664062-6.992188 0-9.65625-2.667969-2.664062-6.992188-2.664062-9.65625 0l-48.269532 48.273438c-2.667968 2.664062-2.667968 6.988281 0 9.65625 2.664063 2.664062 6.988282 2.664062 9.65625 0" fill="#54596e"/><path d="m53.453125 356.59375c-10.667969-10.660156-27.957031-10.660156-38.617187.007812-10.664063 10.664063-10.660157 27.953126.003906 38.617188 10.664062 10.660156 27.953125 10.65625 38.617187-.007812 10.664063-10.664063 10.660157-27.953126-.003906-38.617188zm0 0" fill="#fff35f"/><path d="m53.445312 395.234375 4.828126 4.820313c6.652343-6.644532 10.003906-15.421876 9.996093-24.132813.007813-8.714844-3.34375-17.492187-10-24.136719l.003907.007813c-6.648438-6.660157-15.425782-10.007813-24.136719-10-8.714844-.007813-17.492188 3.34375-24.140625 9.996093-6.648438 6.648438-10.0039065 15.421876-9.996094 24.132813-.0078125 8.710937 3.347656 17.484375 9.996094 24.136719v.003906c6.648437 6.652344 15.421875 10.003906 24.136718 9.996094 8.714844.007812 17.488282-3.351563 24.136719-9.996094v-.003906l-4.824219-4.824219-4.824218-4.832031c-4.019532 4.015625-9.222656 5.996094-14.484375 6.003906-5.265625-.007812-10.464844-1.988281-14.484375-6.003906v.003906c-4.011719-4.023438-5.992188-9.222656-6-14.484375.007812-5.261719 1.988281-10.460937 6-14.472656 4.015625-4.015625 9.21875-5.996094 14.480468-6.003907 5.265626.007813 10.464844 1.984376 14.480469 6l.007813.003907c4.003906 4.003906 5.984375 9.210937 5.992187 14.472656-.007812 5.261719-1.988281 10.464844-6 14.484375l.003907-.003906zm0 0" fill="#54596e"/><path d="m387.609375 348.617188-48.273437-48.273438c-2.664063-2.664062-6.988282-2.664062-9.652344 0-2.667969 2.664062-2.667969 6.992188 0 9.65625l48.269531 48.273438c2.667969 2.664062 6.992187 2.664062 9.65625 0 2.667969-2.667969 2.667969-6.992188 0-9.65625" fill="#54596e"/><path d="m422.082031 356.65625c-10.664062-10.667969-27.953125-10.667969-38.617187-.007812-10.667969 10.664062-10.667969 27.953124-.007813 38.617187 10.664063 10.667969 27.953125 10.667969 38.617188.007813 10.667969-10.664063 10.667969-27.953126.007812-38.617188zm0 0" fill="#61c5a8"/><path d="m383.464844 395.234375 4.828125-4.828125c-4.011719-4.019531-5.988281-9.222656-5.996094-14.484375.003906-5.265625 1.988281-10.46875 5.992187-14.472656l.003907-.003907c4.019531-4.015624 9.21875-5.992187 14.480469-6 5.265624.007813 10.464843 1.988282 14.484374 6.003907 4.011719 4.011719 5.988282 9.210937 5.996094 14.472656-.007812 5.261719-1.984375 10.460937-6 14.484375l.003906-.003906c-4.019531 4.015625-9.222656 5.996094-14.484374 6.003906-5.261719-.007812-10.464844-1.988281-14.484376-6.003906v.003906l-4.824218 4.828125-4.824219 4.824219c6.644531 6.648437 15.417969 10.007812 24.132813 9.996094 8.714843.011718 17.492187-3.34375 24.140624-9.996094v-.003906c6.648438-6.648438 10.003907-15.421876 9.996094-24.136719v.003906c.007813-8.710937-3.347656-17.484375-10-24.132813-6.648437-6.652343-15.425781-10.003906-24.136718-9.996093-8.710938-.007813-17.488282 3.339843-24.140626 10l.007813-.007813c-6.65625 6.644532-10.007813 15.421875-10.003906 24.136719-.003907 8.710937 3.347656 17.488281 9.996093 24.136719l.003907.003906zm0 0" fill="#54596e"/><path d="m51.679688 59.300781 52.609374 55.101563c2.605469 2.726562 6.925782 2.824218 9.652344.222656 2.726563-2.601562 2.828125-6.929688.222656-9.652344l-52.613281-55.101562c-2.601562-2.726563-6.921875-2.828125-9.648437-.226563-2.726563 2.605469-2.828125 6.929688-.222656 9.65625" fill="#54596e"/><path d="m53.445312 15.292969c-10.664062-10.664063-27.953124-10.667969-38.617187-.003907-10.664063 10.660157-10.667969 27.953126-.003906 38.617188 10.660156 10.664062 27.949219 10.667969 38.617187.003906 10.664063-10.660156 10.664063-27.949218.003906-38.617187zm0 0" fill="#55a6ff"/><path d="m53.445312 15.285156-4.824218 4.828125c4.007812 4.011719 5.988281 9.214844 5.996094 14.476563-.007813 5.261718-1.988282 10.460937-6 14.484375v-.003907c-4.019532 4.011719-9.21875 5.992188-14.480469 6.003907-5.261719-.011719-10.46875-1.992188-14.484375-6.003907v.003907c-4.011719-4.019531-5.992188-9.222657-6-14.484375.007812-5.265625 1.988281-10.46875 5.996094-14.472656l.003906-.007813c4.015625-4.011719 9.214844-5.988281 14.480468-6 5.265626.011719 10.464844 1.992187 14.484376 6.003906l9.65625-9.65625c-6.648438-6.652343-15.425782-10.007812-24.136719-9.996093-8.710938-.011719-17.492188 3.339843-24.140625 10l.003906-.007813c-6.65625 6.644531-10.0078125 15.417969-10 24.136719-.0078125 8.710937 3.34375 17.488281 9.996094 24.132812v.003906c6.648437 6.648438 15.421875 10.007813 24.136718 9.996094 8.714844.011719 17.492188-3.34375 24.136719-9.996094l.003907-.003906c6.648437-6.648437 10.003906-15.421875 9.996093-24.132812.007813-8.710938-3.34375-17.484375-9.996093-24.132813zm0 0" fill="#54596e"/><path d="m377.648438 50.085938-48.273438 55.101562c-2.484375 2.835938-2.199219 7.148438.636719 9.632812 2.835937 2.484376 7.148437 2.199219 9.632812-.636718l48.273438-55.097656c2.484375-2.839844 2.199219-7.152344-.636719-9.636719s-7.148438-2.199219-9.632812.636719" fill="#54596e"/><path d="m419.769531 13.222656c-11.804687-9.386718-28.984375-7.429687-38.371093 4.371094-9.390626 11.804688-7.433594 28.984375 4.371093 38.371094 11.800781 9.390625 28.980469 7.433594 38.371094-4.371094 9.386719-11.804688 7.429687-28.984375-4.371094-38.371094zm0 0" fill="#f4a14e"/><path d="m381.40625 17.59375-5.34375-4.25c-4.980469 6.257812-7.425781 13.792969-7.417969 21.230469-.011719 10.015625 4.425781 20.003906 12.882813 26.730469l.003906.003906c6.261719 4.980468 13.800781 7.414062 21.226562 7.40625 10.023438.011718 20-4.429688 26.730469-12.867188l.007813-.007812c4.980468-6.261719 7.421875-13.800782 7.417968-21.234375.007813-10.019531-4.425781-20.007813-12.890624-26.730469l.003906.003906c-6.257813-4.984375-13.796875-7.429687-21.226563-7.421875-10.023437-.011719-20.007812 4.421875-26.734375 12.886719l5.339844 4.25 5.34375 4.246094c4.054688-5.097656 9.992188-7.722656 16.046875-7.734375 4.480469.007812 8.941406 1.445312 12.730469 4.453125l.003906.003906c5.09375 4.050781 7.71875 9.988281 7.730469 16.039062-.007813 4.488282-1.445313 8.949219-4.453125 12.742188l.003906-.007812c-4.058594 5.085937-10.003906 7.71875-16.054688 7.730468-4.484374-.007812-8.941406-1.441406-12.726562-4.449218l.003906.003906c-5.101562-4.0625-7.726562-9.996094-7.734375-16.046875.003907-4.488281 1.441407-8.945313 4.453125-12.734375zm0 0" fill="#54596e"/><path d="m419.765625 183.886719c-11.800781-9.390625-28.980469-7.433594-38.371094 4.371093-9.386719 11.804688-7.429687 28.984376 4.375 38.371094 11.800781 9.390625 28.980469 7.429688 38.371094-4.371094 9.386719-11.804687 7.429687-28.984374-4.375-38.371093zm0 0" fill="#f99"/><path d="m381.40625 188.261719-5.34375-4.25c-4.980469 6.253906-7.425781 13.792969-7.417969 21.226562-.011719 10.019531 4.425781 20.003907 12.882813 26.734375l.003906.003906c6.261719 4.980469 13.800781 7.414063 21.226562 7.40625 10.023438.011719 20-4.429687 26.730469-12.871093l.007813-.003907c4.980468-6.265624 7.421875-13.800781 7.417968-21.234374.007813-10.019532-4.425781-20.011719-12.890624-26.734376l.003906.003907c-6.257813-4.980469-13.796875-7.425781-21.226563-7.417969-10.023437-.011719-20.007812 4.421875-26.734375 12.886719l5.339844 4.25 5.34375 4.246093c4.054688-5.097656 9.992188-7.722656 16.046875-7.734374 4.480469.007812 8.941406 1.445312 12.730469 4.453124l.003906.003907c5.09375 4.050781 7.71875 9.988281 7.730469 16.039062-.007813 4.484375-1.445313 8.949219-4.453125 12.738281l.003906-.003906c-4.058594 5.085938-10.003906 7.71875-16.054688 7.726563-4.484374-.003907-8.941406-1.4375-12.726562-4.445313l.003906.003906c-5.101562-4.0625-7.726562-9.996093-7.734375-16.050781.003907-4.484375 1.441407-8.941406 4.453125-12.730469zm0 0" fill="#54596e"/><path d="m51.132812 183.882812c-11.800781-9.386718-28.980468-7.429687-38.371093 4.375-9.386719 11.800782-7.429688 28.980469 4.375 38.371094 11.800781 9.386719 28.980469 7.429688 38.371093-4.375 9.386719-11.800781 7.429688-28.980468-4.375-38.371094zm0 0" fill="#9af43b"/><g fill="#54596e"><path d="m12.765625 188.261719-5.339844-4.25c-4.984375 6.253906-7.425781 13.792969-7.42187475 21.226562-.01171875 10.019531 4.42578175 20.003907 12.88281275 26.734375l.003906.003906c6.261719 4.980469 13.800781 7.414063 21.226563 7.40625 10.023437.011719 20-4.429687 26.730468-12.871093l.007813-.003907c4.980469-6.265624 7.421875-13.800781 7.417969-21.234374.007812-10.019532-4.425782-20.011719-12.890626-26.734376l.003907.003907c-6.257813-4.980469-13.796875-7.425781-21.226563-7.417969-10.019531-.011719-20.007812 4.421875-26.734375 12.886719l5.339844 4.25 5.34375 4.246093c4.054687-5.097656 9.992187-7.722656 16.046875-7.734374 4.484375.007812 8.941406 1.445312 12.730469 4.453124l.003906.003907c5.09375 4.050781 7.722656 9.988281 7.730469 16.042969-.007813 4.480468-1.445313 8.945312-4.453125 12.734374l.007812-.003906c-4.058593 5.085938-10.007812 7.71875-16.054687 7.726563-4.488282-.003907-8.945313-1.4375-12.730469-4.445313l.003906.003906c-5.097656-4.0625-7.726562-9.996093-7.734375-16.050781.003906-4.484375 1.445313-8.941406 4.453125-12.730469zm0 0"/><path d="m61.441406 212.085938h61.441406c3.769532 0 6.824219-3.054688 6.824219-6.824219 0-3.773438-3.054687-6.828125-6.824219-6.828125h-61.441406c-3.769531 0-6.828125 3.054687-6.828125 6.828125 0 3.769531 3.058594 6.824219 6.828125 6.824219"/><path d="m314.027344 212.085938h61.441406c3.769531 0 6.828125-3.054688 6.828125-6.824219 0-3.773438-3.058594-6.828125-6.828125-6.828125h-61.441406c-3.769532 0-6.824219 3.054687-6.824219 6.828125 0 3.769531 3.054687 6.824219 6.824219 6.824219"/></g></svg>