<svg height="512pt" viewBox="0 0 512.00002 512" width="512pt" xmlns="http://www.w3.org/2000/svg"><path d="m512 142.125v311.621094c0 32.171875-26.082031 58.25-58.261719 58.25h-395.484375c-32.171875 0-58.24999975-26.078125-58.24999975-58.25v-311.621094" fill="#e6e6e6"/><path d="m479.691406 213.769531h-447.386718c-17.839844 0-32.304688-14.460937-32.304688-32.304687v-67.039063c0-17.839843 14.464844-32.304687 32.304688-32.304687h447.386718c17.84375 0 32.304688 14.464844 32.304688 32.304687v67.039063c0 17.84375-14.460938 32.304687-32.304688 32.304687zm0 0" fill="#ccc"/><path d="m479.691406 180.335938h-447.386718c-17.839844 0-32.304688-14.460938-32.304688-32.304688v-67.039062c0-17.839844 14.464844-32.304688 32.304688-32.304688h447.386718c17.84375 0 32.304688 14.464844 32.304688 32.304688v67.039062c0 17.84375-14.460938 32.304688-32.304688 32.304688zm0 0" fill="#6198ce"/><path d="m29.144531 148.03125v-67.039062c0-17.839844 14.464844-32.304688 32.304688-32.304688h-29.144531c-17.839844 0-32.304688 14.464844-32.304688 32.304688v67.039062c0 17.84375 14.464844 32.304688 32.304688 32.304688h29.144531c-17.839844 0-32.304688-14.460938-32.304688-32.304688zm0 0" fill="#4884b5"/><path d="m149.359375 30.5625v58.085938c0 8.441406-3.425781 16.082031-8.953125 21.617187-5.527344 5.527344-13.175781 8.945313-21.609375 8.945313-16.886719 0-30.5625-13.675782-30.5625-30.5625v-58.085938c0-16.875 13.675781-30.5625 30.5625-30.5625 16.875 0 30.5625 13.6875 30.5625 30.5625zm0 0" fill="#e58e13"/><path d="m423.769531 30.5625v58.085938c0 8.441406-3.425781 16.082031-8.953125 21.617187-5.527344 5.527344-13.179687 8.945313-21.609375 8.945313-16.886719 0-30.5625-13.675782-30.5625-30.5625v-58.085938c0-16.875 13.675781-30.5625 30.5625-30.5625 16.875 0 30.5625 13.6875 30.5625 30.5625zm0 0" fill="#e58e13"/><path d="m149.359375 30.5625v20.429688c0 8.429687-3.425781 16.078124-8.953125 21.605468s-13.175781 8.957032-21.609375 8.957032c-16.886719 0-30.5625-13.6875-30.5625-30.5625v-20.429688c0-16.875 13.675781-30.5625 30.5625-30.5625 16.875 0 30.5625 13.6875 30.5625 30.5625zm0 0" fill="#f7d360"/><path d="m423.769531 30.5625v20.429688c0 8.429687-3.425781 16.078124-8.953125 21.605468s-13.179687 8.957032-21.609375 8.957032c-16.886719 0-30.5625-13.6875-30.5625-30.5625v-20.429688c0-16.875 13.675781-30.5625 30.5625-30.5625 16.875 0 30.5625 13.6875 30.5625 30.5625zm0 0" fill="#f7d360"/><g fill="#6198ce"><path d="m240.042969 258.371094c0 12.695312-10.292969 22.984375-22.988281 22.984375-12.695313 0-22.988282-10.289063-22.988282-22.984375 0-12.699219 10.292969-22.988282 22.988282-22.988282 12.695312 0 22.988281 10.289063 22.988281 22.988282zm0 0"/><path d="m162.15625 258.371094c0 12.695312-10.292969 22.984375-22.988281 22.984375-12.695313 0-22.988281-10.289063-22.988281-22.984375 0-12.699219 10.292968-22.988282 22.988281-22.988282 12.695312 0 22.988281 10.289063 22.988281 22.988282zm0 0"/><path d="m317.933594 258.371094c0 12.695312-10.292969 22.984375-22.988282 22.984375-12.695312 0-22.988281-10.289063-22.988281-22.984375 0-12.699219 10.292969-22.988282 22.988281-22.988282 12.695313 0 22.988282 10.289063 22.988282 22.988282zm0 0"/><path d="m84.265625 345.09375c0 12.695312-10.292969 22.988281-22.988281 22.988281-12.695313 0-22.984375-10.292969-22.984375-22.988281s10.289062-22.984375 22.984375-22.984375c12.695312 0 22.988281 10.289063 22.988281 22.984375zm0 0"/><path d="m240.042969 345.09375c0 12.695312-10.292969 22.988281-22.988281 22.988281-12.695313 0-22.988282-10.292969-22.988282-22.988281s10.292969-22.984375 22.988282-22.984375c12.695312 0 22.988281 10.289063 22.988281 22.984375zm0 0"/><path d="m162.15625 345.09375c0 12.695312-10.292969 22.988281-22.988281 22.988281-12.695313 0-22.988281-10.292969-22.988281-22.988281s10.292968-22.984375 22.988281-22.984375c12.695312 0 22.988281 10.289063 22.988281 22.984375zm0 0"/><path d="m317.933594 345.09375c0 12.695312-10.292969 22.988281-22.988282 22.988281-12.695312 0-22.988281-10.292969-22.988281-22.988281s10.292969-22.984375 22.988281-22.984375c12.695313 0 22.988282 10.289063 22.988282 22.984375zm0 0"/><path d="m84.265625 431.824219c0 12.695312-10.292969 22.984375-22.988281 22.984375-12.695313 0-22.984375-10.289063-22.984375-22.984375 0-12.699219 10.289062-22.988281 22.984375-22.988281 12.695312 0 22.988281 10.289062 22.988281 22.988281zm0 0"/><path d="m240.042969 431.824219c0 12.695312-10.292969 22.984375-22.988281 22.984375-12.695313 0-22.988282-10.289063-22.988282-22.984375 0-12.699219 10.292969-22.988281 22.988282-22.988281 12.695312 0 22.988281 10.289062 22.988281 22.988281zm0 0"/><path d="m162.15625 431.824219c0 12.695312-10.292969 22.984375-22.988281 22.984375-12.695313 0-22.988281-10.289063-22.988281-22.984375 0-12.699219 10.292968-22.988281 22.988281-22.988281 12.695312 0 22.988281 10.289062 22.988281 22.988281zm0 0"/><path d="m317.933594 431.824219c0 12.695312-10.292969 22.984375-22.988282 22.984375-12.695312 0-22.988281-10.289063-22.988281-22.984375 0-12.699219 10.292969-22.988281 22.988281-22.988281 12.695313 0 22.988282 10.289062 22.988282 22.988281zm0 0"/></g><path d="m395.820312 258.371094c0 12.695312-10.292968 22.984375-22.988281 22.984375-12.695312 0-22.988281-10.289063-22.988281-22.984375 0-12.699219 10.292969-22.988282 22.988281-22.988282 12.695313 0 22.988281 10.289063 22.988281 22.988282zm0 0" fill="#fc5f61"/><path d="m473.707031 258.371094c0 12.695312-10.289062 22.984375-22.984375 22.984375-12.695312 0-22.988281-10.289063-22.988281-22.984375 0-12.699219 10.292969-22.988282 22.988281-22.988282 12.695313 0 22.984375 10.289063 22.984375 22.988282zm0 0" fill="#fc5f61"/><path d="m395.820312 345.09375c0 12.695312-10.292968 22.988281-22.988281 22.988281-12.695312 0-22.988281-10.292969-22.988281-22.988281s10.292969-22.984375 22.988281-22.984375c12.695313 0 22.988281 10.289063 22.988281 22.984375zm0 0" fill="#fc5f61"/><path d="m473.707031 345.09375c0 12.695312-10.289062 22.988281-22.984375 22.988281-12.695312 0-22.988281-10.292969-22.988281-22.988281s10.292969-22.984375 22.988281-22.984375c12.695313 0 22.984375 10.289063 22.984375 22.984375zm0 0" fill="#fc5f61"/></svg>