<?xml version="1.0" encoding="utf-8"?>
<!-- Generator: Adobe Illustrator 23.0.2, SVG Export Plug-In . SVG Version: 6.00 Build 0)  -->
<svg version="1.1" id="Layer_1" xmlns="http://www.w3.org/2000/svg" xmlns:xlink="http://www.w3.org/1999/xlink" x="0px" y="0px"
	 viewBox="0 0 512 512" style="enable-background:new 0 0 512 512;" xml:space="preserve">
<style type="text/css">
	.st0{fill:#00B0F0;}
</style>
<path class="st0" d="M319.5,68c-4.5-18.1-21-31.2-40-31.2c-10.2,0-20.1,3.9-27.6,10.7c-7.5-6.8-17.4-10.7-27.6-10.7
	c-19,0-35.5,13.2-40,31.2c-19.4,9.3-31.6,28.6-31.6,50.4c0,14.7,5.8,28.7,15.9,39.1c-0.7,3.1-1,6.2-1,9.4
	c0,23.6,18.8,42.9,42.3,43.7c4.5,10.7,15,17.9,27.1,17.9l0.2,0c5.7,0,10.8-2.2,14.7-5.8c3.9,3.5,9.1,5.7,14.7,5.8l0.3,0
	c12.1,0,22.6-7.2,27.1-17.9c23.4-0.7,42.3-20,42.3-43.7c0-3.2-0.3-6.3-1-9.4c10.2-10.4,15.9-24.4,15.9-39.1
	C351.2,96.7,338.9,77.3,319.5,68z M237.1,213.5c0,0-0.1,0-0.1,0c-4.6,0-8.8-2.2-11.4-5.7c5.1-2,9.8-5,13.9-8.9
	c3-2.8,3.1-7.6,0.3-10.6c-2.8-3-7.6-3.1-10.6-0.3c-4.2,3.9-9.3,6.5-14.7,7.4c-1,0.1-2.1,0.2-3.1,0.2c-15.8,0-28.7-12.9-28.7-28.7
	c0-3.1,0.5-6.2,1.5-9.2c3.3-8.5,10.6-15.1,19.1-17.5c1.4,4.7,3.7,9.1,6.7,12.8c1.5,1.8,3.7,2.8,5.8,2.8c1.7,0,3.3-0.5,4.7-1.7
	c3.2-2.6,3.7-7.3,1.1-10.5c-3.4-4.2-5.2-9.7-5.2-15.6c0-5,1.3-9.8,3.9-13.7c2.2-3.5,1.2-8.1-2.2-10.4c-3.5-2.2-8.1-1.2-10.4,2.2
	c-3.6,5.6-5.7,12.1-6.2,19c-10.5,2.3-19.8,8.5-26.1,17.2c-5-6.9-7.8-15.3-7.8-24c0-17,10.2-31.9,26-38.1c2.5-1,4.3-3.3,4.7-6
	c1.8-12.9,12.9-22.6,25.9-22.6c7.3,0,14.1,2.9,19.1,8.2c0.7,0.7,1.1,1.7,1.1,2.7v12.9c-9.6,0.3-18.8,4-26,10.6
	c-3.1,2.8-3.3,7.5-0.5,10.6c1.5,1.6,3.5,2.4,5.5,2.4c1.8,0,3.6-0.6,5.1-2c4.4-4.1,10-6.4,15.8-6.7v115.2
	C244.4,210,241.1,213.4,237.1,213.5z M328.4,142.4c-6.3-8.8-15.5-15-26.1-17.2c-0.5-6.9-2.6-13.4-6.2-19c-2.2-3.5-6.9-4.5-10.4-2.2
	c-3.5,2.2-4.5,6.9-2.2,10.4c2.5,3.9,3.9,8.7,3.9,13.7c0,5.9-1.9,11.4-5.2,15.6c-2.6,3.2-2.1,7.9,1.1,10.5c1.4,1.1,3.1,1.7,4.7,1.7
	c2.2,0,4.4-1,5.8-2.8c3-3.7,5.3-8.1,6.7-12.8c8.5,2.4,15.8,9,19.1,17.5c1,3,1.5,6,1.5,9.2c0,15.8-12.9,28.7-28.7,28.7
	c-1,0-2-0.1-3.1-0.2c-5.4-0.9-10.5-3.4-14.7-7.4c-3-2.8-7.8-2.7-10.6,0.3c-2.8,3-2.7,7.8,0.3,10.6c4.1,3.9,8.8,6.9,13.9,8.9
	c-2.6,3.5-6.8,5.7-11.4,5.7l-0.1,0c-4.1,0-7.4-3.4-7.4-7.6V90.7c5.8,0.3,11.4,2.6,15.8,6.7c1.4,1.3,3.3,2,5.1,2c2,0,4.1-0.8,5.5-2.4
	c2.8-3.1,2.6-7.8-0.5-10.6c-7.2-6.6-16.4-10.3-26-10.7V62.8c0-1,0.4-2,1.1-2.7c5-5.3,11.8-8.2,19.1-8.2c13,0,24.2,9.7,25.9,22.6
	c0.4,2.7,2.2,5,4.7,6c15.8,6.2,26,21.1,26,38.1C336.2,127.1,333.4,135.5,328.4,142.4z"/>
<path class="st0" d="M405,272.9c-0.7-1.1-1.7-2.1-2.8-2.8l-55.5-30.8c4.3-6.9,8.9-13.7,13.9-20.3c18.2-23.9,27.8-52.5,27.8-82.6
	c0-30.1-9.6-58.6-27.8-82.5c-2.5-3.3-7.2-3.9-10.5-1.4c-3.3,2.5-3.9,7.2-1.4,10.5c16.2,21.3,24.7,46.7,24.7,73.4
	c0,26.8-8.6,52.2-24.8,73.5c-25.6,33.6-42.6,72.5-49.2,112.7h-94.9c-6.6-40.6-23.4-79.2-48.7-112c-17.3-22.4-26.3-50.4-25.2-78.9
	C132.9,69.3,183.6,18.1,246,15.1c29.4-1.4,58.2,7.8,81.1,26c3.2,2.6,8,2,10.5-1.2c2.6-3.2,2-8-1.2-10.5C310.7,9,278.3-1.4,245.3,0.2
	c-34,1.6-66.1,15.9-90.3,40.4c-24.2,24.4-38.2,56.6-39.5,90.7c-1.2,32,8.9,63.4,28.3,88.6c4.8,6.3,9.3,12.7,13.5,19.4l-55.7,30.9
	c-1.2,0.6-2.2,1.6-2.8,2.8l-34.4,58.7c-2.4,4.1-3,8.8-1.8,13.4c1.2,4.6,4.2,8.3,8.3,10.6l26.8,14.9v52.8c0,2.7,1.5,5.2,3.9,6.6
	l146.6,81.2c2.2,1.2,5,1.2,7.3,0l91.8-50.9c3.6-2,4.9-6.6,2.9-10.2c-2-3.6-6.6-4.9-10.2-2.9l-80.7,44.7V385.5l20.7,35.3
	c3.2,5.5,9,8.6,14.9,8.6c2.9,0,5.8-0.7,8.5-2.2l87.5-48.4v40.1l-20.5,11.4c-3.6,2-4.9,6.6-2.9,10.2c1.4,2.5,3.9,3.9,6.6,3.9
	c1.2,0,2.5-0.3,3.6-0.9l24.4-13.5c2.4-1.3,3.9-3.8,3.9-6.6v-52.8l26.8-14.9c4.1-2.3,7.1-6.1,8.3-10.6c1.3-4.6,0.6-9.3-1.8-13.4
	L405,272.9z M251.9,349.3l-21.1-11.7H273L251.9,349.3z M383.1,276.7l-66.7,36.9c4.6-21.1,12.3-41.8,22.7-61.3L383.1,276.7z
	 M164.9,252.2c10.4,19.3,18,40,22.6,61.4l-66.7-37L164.9,252.2z M112.8,378.8l14.1,7.8c1.2,0.6,2.4,0.9,3.6,0.9
	c2.6,0,5.2-1.4,6.6-3.9c2-3.6,0.7-8.2-2.9-10.2l-55.9-31c-0.8-0.4-1-1.1-1.1-1.5s-0.2-1.1,0.2-1.8l30.7-52.4l133.5,74l-30.8,52.5
	c-0.7,1.1-2.1,1.5-3.2,0.9l-44.7-24.8c-3.6-2-8.2-0.7-10.2,2.9c-2,3.6-0.7,8.2,2.9,10.2l44.7,24.8c2.7,1.5,5.6,2.2,8.5,2.2
	c6,0,11.7-3.1,15-8.6l20.7-35.3v106.3l-131.6-72.9V378.8z M426.8,341c-0.1,0.4-0.4,1-1.1,1.5l-129.3,71.6c-1.1,0.6-2.6,0.2-3.2-0.9
	l-30.8-52.5l133.5-74l30.7,52.4C427,339.9,426.9,340.7,426.8,341z"/>
<path class="st0" d="M96.1,217.3L96.1,217.3c4.2,0,7.5-3.4,7.5-7.5l0-1.9c0-4.1-3.4-7.5-7.5-7.5c0,0,0,0,0,0c-4.1,0-7.5,3.4-7.5,7.5
	l0,1.9C88.6,214,92,217.3,96.1,217.3z"/>
<path class="st0" d="M88.7,237.4c0,4.1,3.4,7.5,7.5,7.5h0c4.1,0,7.5-3.4,7.5-7.5l0-1.9c0-4.1-3.4-7.5-7.5-7.5c0,0,0,0,0,0
	c-4.1,0-7.5,3.4-7.5,7.5L88.7,237.4z"/>
<path class="st0" d="M109,230.1L109,230.1l1.9,0c4.1,0,7.5-3.4,7.5-7.5c0-4.1-3.4-7.5-7.5-7.5c0,0,0,0,0,0l-1.9,0
	c-4.1,0-7.5,3.4-7.5,7.5C101.5,226.8,104.8,230.1,109,230.1z"/>
<path class="st0" d="M81.4,230.2L81.4,230.2l1.9,0c4.1,0,7.5-3.4,7.5-7.5c0-4.1-3.4-7.5-7.5-7.5c0,0,0,0,0,0l-1.9,0
	c-4.1,0-7.5,3.4-7.5,7.5C74,226.9,77.3,230.2,81.4,230.2z"/>
<path class="st0" d="M419.4,159.1l0,1.9c0,4.1,3.4,7.5,7.5,7.5h0c4.1,0,7.5-3.4,7.5-7.5l0-1.9c0-4.1-3.4-7.5-7.5-7.5c0,0,0,0,0,0
	C422.7,151.6,419.4,154.9,419.4,159.1z"/>
<path class="st0" d="M427,195.9L427,195.9c4.2,0,7.5-3.4,7.5-7.5l0-1.9c0-4.1-3.4-7.5-7.5-7.5c0,0,0,0,0,0c-4.1,0-7.5,3.4-7.5,7.5
	l0,1.9C419.5,192.6,422.9,195.9,427,195.9z"/>
<path class="st0" d="M441.7,166.2C441.6,166.2,441.6,166.2,441.7,166.2l-1.9,0c-4.1,0-7.5,3.4-7.5,7.5c0,4.1,3.4,7.5,7.5,7.5h0
	l1.9,0c4.1,0,7.5-3.4,7.5-7.5C449.1,169.5,445.8,166.2,441.7,166.2z"/>
<path class="st0" d="M412.2,181.3L412.2,181.3l1.9,0c4.1,0,7.5-3.4,7.5-7.5c0-4.1-3.4-7.5-7.5-7.5c0,0,0,0,0,0l-1.9,0
	c-4.1,0-7.5,3.4-7.5,7.5C404.8,177.9,408.1,181.3,412.2,181.3z"/>
<path class="st0" d="M109,39L109,39c4.2,0,7.5-3.4,7.5-7.5l0-1.9c0-4.1-3.4-7.5-7.5-7.5c0,0,0,0,0,0c-4.1,0-7.5,3.4-7.5,7.5l0,1.9
	C101.5,35.6,104.8,39,109,39z"/>
<path class="st0" d="M116.5,57.1c0-4.1-3.4-7.5-7.5-7.5c0,0,0,0,0,0c-4.1,0-7.5,3.4-7.5,7.5l0,1.9c0,4.1,3.4,7.5,7.5,7.5h0
	c4.1,0,7.5-3.4,7.5-7.5L116.5,57.1z"/>
<path class="st0" d="M121.8,51.8L121.8,51.8l1.9,0c4.1,0,7.5-3.4,7.5-7.5c0-4.1-3.4-7.5-7.5-7.5c0,0,0,0,0,0l-1.9,0
	c-4.1,0-7.5,3.4-7.5,7.5C114.3,48.4,117.7,51.8,121.8,51.8z"/>
<path class="st0" d="M94.3,51.8L94.3,51.8l1.9,0c4.1,0,7.5-3.4,7.5-7.5c0-4.1-3.4-7.5-7.5-7.5c0,0,0,0,0,0l-1.9,0
	c-4.1,0-7.5,3.4-7.5,7.5C86.8,48.5,90.1,51.8,94.3,51.8z"/>
<path class="st0" d="M398.5,202.2c-4.1,0-7.5,3.4-7.5,7.5l0,1.9c0,4.1,3.4,7.5,7.5,7.5h0c4.1,0,7.5-3.4,7.5-7.5l0-1.9
	C406,205.5,402.6,202.2,398.5,202.2z"/>
<path class="st0" d="M398.6,246.6L398.6,246.6c4.2,0,7.5-3.4,7.5-7.5l0-1.9c0-4.1-3.4-7.5-7.5-7.5c0,0,0,0,0,0
	c-4.1,0-7.5,3.4-7.5,7.5l0,1.9C391.1,243.2,394.4,246.6,398.6,246.6z"/>
<path class="st0" d="M411.4,231.8L411.4,231.8l1.9,0c4.1,0,7.5-3.4,7.5-7.5c0-4.1-3.4-7.5-7.5-7.5c0,0,0,0,0,0l-1.9,0
	c-4.1,0-7.5,3.4-7.5,7.5C403.9,228.5,407.2,231.8,411.4,231.8z"/>
<path class="st0" d="M385.7,216.9l-1.9,0c-4.1,0-7.5,3.4-7.5,7.5c0,4.1,3.4,7.5,7.5,7.5h0l1.9,0c4.1,0,7.5-3.4,7.5-7.5
	C393.2,220.2,389.9,216.9,385.7,216.9z"/>
<path class="st0" d="M398.8,86.2c0.9,3.3,3.9,5.4,7.2,5.4c0.7,0,1.4-0.1,2.1-0.3l7.7-2.2c4-1.1,6.3-5.3,5.1-9.3
	c-1.1-4-5.3-6.3-9.3-5.1l-7.7,2.2C399.9,78.1,397.6,82.2,398.8,86.2z"/>
<path class="st0" d="M397.4,74.3c2,0,3.9-0.8,5.4-2.3l5.5-5.7c2.9-3,2.8-7.7-0.2-10.6c-3-2.9-7.7-2.8-10.6,0.2l-5.5,5.7
	c-2.9,3-2.8,7.7,0.2,10.6C393.6,73.6,395.5,74.3,397.4,74.3z"/>
<path class="st0" d="M417.5,98.1l-7.7-1.9c-4-1-8.1,1.5-9.1,5.5c-1,4,1.5,8.1,5.5,9.1l7.7,1.9c0.6,0.1,1.2,0.2,1.8,0.2
	c3.4,0,6.4-2.3,7.3-5.7C424,103.1,421.5,99,417.5,98.1z"/>
<path class="st0" d="M83.7,156.8c0.1,0,0.3,0,0.4,0l8-0.4c4.1-0.2,7.3-3.7,7.1-7.9c-0.2-4.1-3.7-7.4-7.9-7.1l-8,0.4
	c-4.1,0.2-7.3,3.7-7.1,7.9C76.5,153.7,79.8,156.8,83.7,156.8z"/>
<path class="st0" d="M83.6,132.7l7.1,3.6c1.1,0.6,2.3,0.8,3.4,0.8c2.7,0,5.4-1.5,6.7-4.1c1.9-3.7,0.4-8.2-3.3-10.1l-7.1-3.6
	c-3.7-1.9-8.2-0.4-10.1,3.3C78.5,126.3,80,130.9,83.6,132.7z"/>
<path class="st0" d="M100.2,174.1c3.5-2.3,4.5-6.9,2.2-10.4c-2.3-3.5-6.9-4.5-10.4-2.2l-6.7,4.3c-3.5,2.3-4.5,6.9-2.2,10.4
	c1.4,2.2,3.8,3.4,6.3,3.4c1.4,0,2.8-0.4,4.1-1.2L100.2,174.1z"/>
</svg>
