<?xml version="1.0" encoding="utf-8"?>
<!-- Generator: Adobe Illustrator 16.0.3, SVG Export Plug-In . SVG Version: 6.00 Build 0)  -->
<!DOCTYPE svg PUBLIC "-//W3C//DTD SVG 1.1//EN" "http://www.w3.org/Graphics/SVG/1.1/DTD/svg11.dtd">
<svg version="1.1" id="Layer_1" xmlns="http://www.w3.org/2000/svg" xmlns:xlink="http://www.w3.org/1999/xlink" x="0px" y="0px"
	 width="212.836px" height="67.708px" viewBox="-14.712 -4.144 212.836 67.708"
	 enable-background="new -14.712 -4.144 212.836 67.708" xml:space="preserve">
<path fill="#0F2D52" d="M-4.047,28.754v4.04c0,0.165-0.134,0.3-0.3,0.3H-9.4v6.616c0,1.378,0.26,2.305,0.78,2.78
	c0.52,0.478,1.497,0.717,2.93,0.717h1.344c0.166,0,0.3,0.134,0.3,0.3v4.082c-0.003,0.163-0.137,0.294-0.3,0.293h-1.936
	c-0.842,0-1.56-0.021-2.148-0.063c-0.59-0.04-1.11-0.109-1.56-0.21c-0.43-0.091-0.847-0.232-1.244-0.423
	c-0.395-0.192-0.769-0.424-1.117-0.691c-0.403-0.318-0.771-0.68-1.097-1.076c-0.316-0.393-0.565-0.834-0.737-1.309
	c-0.195-0.545-0.33-1.111-0.4-1.687c-0.089-0.72-0.132-1.444-0.127-2.17v-18.09c0-0.163,0.132-0.294,0.297-0.294H-9.7
	c0.163,0,0.296,0.13,0.296,0.296v6.29h5.053c0.165,0,0.298,0.132,0.3,0.297 M27.6,30.88c-0.917-0.973-2.03-1.74-3.265-2.252
	c-1.263-0.532-2.64-0.802-4.13-0.802c-1.46,0-2.83,0.27-4.107,0.802c-1.28,0.535-2.39,1.27-3.33,2.212
	c-0.948,0.949-1.706,2.071-2.233,3.306c-0.551,1.277-0.832,2.656-0.823,4.047c0,1.405,0.252,2.729,0.76,3.963
	c0.483,1.203,1.191,2.304,2.084,3.244c0.883,0.927,1.934,1.677,3.096,2.212c1.175,0.548,2.457,0.83,3.753,0.824
	c0.9,0,1.678-0.106,2.337-0.317c0.563-0.181,1.163-0.487,1.797-0.924c0.207-0.139,0.331-0.371,0.332-0.619v-4.413
	c0-0.164-0.134-0.297-0.298-0.297c-0.064,0-0.126,0.021-0.177,0.06c-0.54,0.392-1.036,0.683-1.484,0.873
	c-0.565,0.244-1.174,0.37-1.79,0.37c-0.647,0.006-1.289-0.132-1.877-0.402c-0.574-0.265-1.095-0.631-1.54-1.08
	c-0.45-0.45-0.8-0.979-1.054-1.588c-0.256-0.624-0.384-1.293-0.378-1.968c0-0.677,0.126-1.324,0.376-1.945
	c0.24-0.601,0.597-1.147,1.05-1.607c0.447-0.451,0.972-0.817,1.55-1.08c0.594-0.269,1.24-0.405,1.892-0.4
	c1.594,0,2.825,0.543,3.692,1.622c0.866,1.08,1.302,2.59,1.302,4.526v8.344c0,0.163,0.132,0.296,0.298,0.296h4.798
	c0.164,0.001,0.297-0.131,0.298-0.295v-8.97c0-1.544-0.26-2.98-0.78-4.301c-0.518-1.319-1.235-2.466-2.147-3.436 M41.556,28.04
	c-2.78,0-4.948,0.795-6.51,2.382c-1.558,1.59-2.337,3.813-2.337,6.68v10.49c0,0.163,0.135,0.296,0.298,0.296h4.716
	c0.163,0,0.296-0.132,0.297-0.295V37.86c0-3.032,1.175-4.55,3.52-4.55c2.32,0,3.477,1.488,3.477,4.466v9.817
	c0,0.16,0.133,0.294,0.298,0.294h4.8c0.163,0,0.296-0.132,0.297-0.295V37.056c0-2.84-0.78-5.05-2.34-6.638
	c-1.562-1.588-3.732-2.385-6.513-2.385 M63.4,37.22l-3.878-2.103c-0.646-0.339-1.068-0.604-1.264-0.803
	c-0.198-0.193-0.294-0.404-0.294-0.63c0-0.253,0.104-0.43,0.315-0.527c0.21-0.099,0.57-0.146,1.074-0.146h6.277
	c0.165-0.001,0.298-0.135,0.298-0.3v-4.037c-0.001-0.164-0.134-0.297-0.298-0.298h-7.163c-1.937,0-3.433,0.463-4.49,1.396
	c-1.05,0.931-1.578,2.25-1.578,3.971c0,1.045,0.235,1.925,0.712,2.643c0.478,0.718,1.28,1.388,2.402,2.007l3.96,2.196
	c0.872,0.479,1.42,0.81,1.645,0.992c0.224,0.184,0.336,0.401,0.336,0.654c0,0.426-0.253,0.715-0.758,0.866
	c-0.506,0.154-1.448,0.23-2.825,0.23H52.84c-0.165,0-0.297,0.134-0.297,0.299v0.001v3.956c0,0.163,0.132,0.295,0.296,0.295h7.056
	c0.815,0,1.51-0.024,2.086-0.082c0.52-0.047,1.034-0.14,1.538-0.276c0.417-0.11,0.809-0.295,1.16-0.546
	c0.323-0.24,0.64-0.525,0.948-0.862c0.423-0.478,0.76-1.07,1.01-1.772c0.254-0.7,0.38-1.416,0.38-2.147
	c0-1.121-0.26-2.043-0.778-2.76c-0.52-0.715-1.47-1.453-2.844-2.214 M96.478,28.376H91.68c-0.165,0-0.299,0.133-0.3,0.298v10.943
	c0,2.365-0.954,3.552-2.864,3.552c-0.984,0-1.736-0.317-2.255-0.95c-0.52-0.635-0.78-1.543-0.78-2.726V28.67
	c-0.001-0.163-0.134-0.296-0.297-0.297H80.47c-0.165,0.001-0.297,0.134-0.298,0.298v10.86c0,2.42-0.998,3.636-2.993,3.636
	c-0.982,0-1.726-0.303-2.232-0.908c-0.505-0.61-0.757-1.49-0.757-2.645v-10.94c0-0.165-0.132-0.299-0.297-0.3H69.18
	c-0.165,0.001-0.298,0.135-0.298,0.3v11.754c0,1.21,0.19,2.302,0.57,3.288c0.354,0.943,0.9,1.804,1.604,2.525
	c0.688,0.704,1.52,1.241,2.49,1.623c0.97,0.38,2.046,0.569,3.23,0.569c2.53,0,4.614-0.983,6.246-2.95
	c0.872,1.096,1.757,1.862,2.66,2.298c0.9,0.433,2.04,0.652,3.416,0.652c2.42,0,4.308-0.74,5.658-2.214
	c1.347-1.479,2.022-3.52,2.022-6.133V28.67C96.776,28.506,96.642,28.374,96.478,28.376 M118.425,34.127
	c0.551,1.25,0.822,2.592,0.822,4.023c0.008,1.371-0.271,2.728-0.822,3.983c-0.527,1.223-1.285,2.331-2.234,3.265
	c-0.953,0.938-2.074,1.689-3.305,2.214c-1.277,0.551-2.654,0.832-4.045,0.824c-1.411,0.009-2.81-0.271-4.109-0.822
	c-1.238-0.521-2.367-1.272-3.326-2.214c-0.947-0.936-1.706-2.043-2.235-3.265c-0.552-1.27-0.833-2.64-0.823-4.024
	c0-1.43,0.274-2.772,0.822-4.022c0.528-1.222,1.287-2.33,2.234-3.264c0.953-0.937,2.076-1.681,3.308-2.193
	c1.281-0.537,2.657-0.81,4.045-0.802c1.405-0.011,2.797,0.27,4.088,0.822c1.234,0.53,2.363,1.28,3.33,2.215
	c0.955,0.932,1.721,2.042,2.253,3.267 M113.686,38.224c0-0.707-0.127-1.37-0.377-1.99c-0.245-0.605-0.604-1.159-1.058-1.63
	c-0.445-0.462-0.973-0.835-1.557-1.1c-0.598-0.268-1.245-0.404-1.9-0.4c-0.669,0-1.304,0.132-1.895,0.4
	c-0.581,0.263-1.109,0.629-1.56,1.08c-0.45,0.45-0.8,0.979-1.05,1.587c-0.256,0.623-0.385,1.292-0.38,1.966
	c0,0.706,0.126,1.36,0.38,1.967c0.243,0.594,0.6,1.134,1.05,1.59c0.452,0.452,0.98,0.811,1.584,1.078
	c0.603,0.27,1.256,0.406,1.916,0.402c0.675,0,1.297-0.133,1.875-0.402c0.568-0.264,1.088-0.621,1.537-1.058
	c0.456-0.444,0.815-0.977,1.057-1.565c0.25-0.607,0.376-1.25,0.376-1.925 M139.216,21.88h-4.713c-0.166,0-0.301,0.13-0.301,0.295
	v25.42c0.002,0.165,0.136,0.297,0.301,0.297h4.713c0.164,0.001,0.297-0.131,0.299-0.295v-25.43c0-0.162-0.131-0.295-0.293-0.295
	c-0.002,0-0.004,0-0.006,0 M162.072,21.872h-4.714c-0.165,0-0.3,0.13-0.3,0.295V36.62c0,2.109-0.445,3.729-1.348,4.855
	c-0.894,1.126-2.145,1.69-3.746,1.69c-0.652,0.005-1.298-0.124-1.897-0.38c-0.579-0.247-1.102-0.607-1.538-1.061
	c-0.442-0.458-0.793-0.996-1.031-1.587c-0.26-0.638-0.389-1.321-0.381-2.01c0-0.706,0.127-1.37,0.381-1.99
	c0.234-0.595,0.577-1.141,1.012-1.61c0.426-0.452,0.941-0.812,1.514-1.056c0.602-0.255,1.248-0.384,1.9-0.38
	c0.642-0.004,1.277,0.117,1.873,0.356c0.445,0.188,0.927,0.465,1.442,0.84c0.134,0.097,0.321,0.067,0.419-0.067
	c0.036-0.05,0.057-0.108,0.057-0.17V29.59c0-0.266-0.141-0.511-0.369-0.646c-0.559-0.338-1.156-0.606-1.78-0.8
	c-0.739-0.217-1.505-0.323-2.274-0.315c-1.32,0-2.57,0.274-3.75,0.822c-1.165,0.535-2.217,1.288-3.101,2.217
	c-0.895,0.942-1.608,2.042-2.106,3.242c-0.521,1.241-0.785,2.574-0.779,3.921c0,1.456,0.268,2.819,0.8,4.085
	c0.518,1.24,1.278,2.364,2.235,3.307c0.957,0.944,2.086,1.696,3.326,2.215c1.266,0.532,2.643,0.8,4.129,0.8
	c1.52,0,2.91-0.268,4.172-0.8c1.235-0.514,2.35-1.282,3.27-2.254c0.908-0.97,1.62-2.12,2.126-3.455
	c0.505-1.336,0.761-2.803,0.761-4.406V22.167c0-0.162-0.131-0.295-0.293-0.295c-0.002,0-0.004,0-0.006,0 M132.276,28.035h-0.444
	c-1.149,0-2.33,0.343-2.985,0.718c-0.46,0.262-0.896,0.59-1.288,1.013c-0.393,0.418-0.785,0.952-1.18,1.601V28.67
	c-0.002-0.163-0.135-0.295-0.297-0.296h-4.545c-0.165,0-0.299,0.132-0.301,0.297v18.92c0,0.162,0.135,0.294,0.301,0.294h4.709
	c0.17,0,0.301-0.132,0.301-0.295v-7.5c0-1.04,0.052-1.86,0.147-2.466c0.097-0.605,0.261-1.188,0.485-1.748
	c0.365-0.873,0.97-1.577,1.813-2.108c0.816-0.525,1.768-0.804,2.739-0.8h0.543c0.165-0.002,0.297-0.136,0.297-0.3v-4.333
	C132.571,28.168,132.439,28.035,132.276,28.035 M9.409,28.035H8.964c-1.15,0-2.33,0.342-2.987,0.717
	c-0.458,0.262-0.892,0.59-1.286,1.013c-0.394,0.418-0.787,0.952-1.18,1.601V28.67c-0.002-0.164-0.134-0.296-0.298-0.297h-4.545
	c-0.164,0-0.297,0.133-0.298,0.297v18.92c0,0.162,0.13,0.294,0.296,0.294H3.38c0.164,0.002,0.298-0.129,0.3-0.292
	c0-0.001,0-0.002,0-0.003v-7.5c0-1.04,0.048-1.86,0.146-2.466c0.096-0.599,0.258-1.186,0.484-1.748
	c0.366-0.873,0.97-1.577,1.812-2.108c0.817-0.525,1.769-0.804,2.74-0.8h0.544c0.165-0.002,0.297-0.136,0.297-0.3v-4.333
	c0.002-0.164-0.128-0.298-0.292-0.3C9.41,28.034,9.409,28.034,9.409,28.035"/>
<path fill="#0063A6" d="M193.483,0.74c-4.753-4.886-12.565-4.925-17.368-0.123c-2.438,2.429-3.73,5.776-3.56,9.214
	c0.01,0.189,0.278,0.215,0.319,0.033c0.404-1.631,1.247-3.119,2.436-4.306c3.73-3.728,9.874-3.606,13.447,0.362
	c3.205,3.556,3.141,9.04-0.133,12.532c-1.217,1.3-2.784,2.22-4.513,2.649c-0.182,0.04-0.157,0.311,0.028,0.318
	c3.514,0.176,6.932-1.179,9.369-3.714c4.557-4.71,4.541-12.271-0.026-16.965"/>
<path fill="#7B868C" d="M189.928,11.09c-0.025-0.17-0.257-0.195-0.313-0.038c-0.261,0.702-0.67,1.34-1.199,1.87
	c-2.041,2.031-5.342,2.023-7.373-0.018c-0.088-0.088-0.172-0.179-0.252-0.272c-1.69-1.962-1.662-4.915,0.06-6.85
	c0.565-0.637,1.278-1.123,2.075-1.418c0.158-0.061,0.134-0.29-0.034-0.313c-2.614-0.338-5.229,0.617-7.011,2.56
	c-2.834,3.08-2.85,7.879-0.031,10.973c3.021,3.321,8.162,3.565,11.484,0.545C189.294,16.346,190.263,13.719,189.928,11.09"/>
<path fill="#0F2D52" d="M197.8,11.936c-0.521,2.553-1.787,4.894-3.635,6.73c-2.526,2.543-5.978,3.953-9.563,3.906
	c-3.426-0.035-6.707-1.388-9.163-3.775c-2.565-2.5-4-5.85-4.032-9.42c-0.033-3.521,1.323-6.913,3.776-9.44
	c1.856-1.913,4.247-3.223,6.86-3.757c0.189-0.04,0.164-0.32-0.03-0.323c-4.456-0.047-8.734,1.742-11.83,4.947
	c-6.123,6.316-6.075,16.462,0.101,22.725c6.344,6.434,16.699,6.461,23.075,0.08c3.091-3.082,4.808-7.28,4.763-11.645
	c-0.002-0.195-0.283-0.22-0.324-0.03"/>
<path fill="#7B868C" d="M99.653,57.284v-0.037c0-3.476,2.704-6.32,6.404-6.32c2.082,0,3.38,0.53,4.592,1.505
	c0.114,0.092,0.132,0.258,0.04,0.371c-0.002,0.003-0.004,0.005-0.006,0.007l-1.35,1.633c-0.095,0.113-0.263,0.129-0.377,0.035
	c-0.862-0.683-1.68-1.069-2.993-1.069c-1.952,0-3.506,1.726-3.506,3.805v0.035c0,2.234,1.536,3.874,3.7,3.874
	c0.98,0,1.85-0.243,2.53-0.733v-1.747h-2.436c-0.149,0-0.27-0.121-0.27-0.27V56.59c0-0.15,0.12-0.271,0.27-0.271h4.77
	c0.148,0.002,0.269,0.122,0.269,0.271v4.782c0,0.162-0.072,0.316-0.199,0.42c-1.235,0.988-2.899,1.771-5.02,1.771
	c-3.804,0-6.422-2.668-6.422-6.279 M113.535,51.404c0-0.149,0.12-0.27,0.271-0.27h5.317c1.553,0,2.76,0.436,3.56,1.24
	c0.685,0.68,1.05,1.64,1.05,2.793v0.037c0,1.97-1.066,3.21-2.623,3.79l2.7,3.941c0.085,0.121,0.056,0.287-0.065,0.372
	c-0.045,0.031-0.1,0.049-0.154,0.048h-2.49c-0.09,0.001-0.174-0.045-0.225-0.12l-2.539-3.792h-2.11v3.645
	c-0.001,0.147-0.12,0.267-0.269,0.268h-2.151c-0.147,0.001-0.268-0.118-0.269-0.266c0-0.001,0-0.001,0-0.002V51.406L113.535,51.404z
	 M118.949,57.073c1.311,0,2.061-0.698,2.061-1.73v-0.034c0-1.151-0.803-1.743-2.112-1.743h-2.67v3.509h2.724L118.949,57.073z
	 M124.958,57.284v-0.037c0-3.476,2.742-6.32,6.514-6.32s6.477,2.813,6.477,6.285v0.035c0,3.473-2.74,6.316-6.514,6.316
	c-3.77,0-6.479-2.807-6.479-6.279 M135.132,57.284v-0.037c0-2.094-1.532-3.84-3.701-3.84c-2.164,0-3.663,1.71-3.663,3.806v0.034
	c0,2.095,1.535,3.84,3.7,3.84c2.166,0,3.666-1.71,3.666-3.803 M139.654,58.117v-6.71c0-0.147,0.12-0.271,0.27-0.271h2.15
	c0.147,0,0.271,0.123,0.271,0.271v6.642c0,1.99,0.991,3.02,2.636,3.02c1.641,0,2.635-0.998,2.635-2.935v-6.73
	c0-0.146,0.122-0.27,0.273-0.27h2.146c0.148,0,0.27,0.121,0.27,0.27l0,0v6.625c0,3.7-2.077,5.519-5.36,5.519
	C141.662,63.55,139.654,61.715,139.654,58.117 M152.696,51.407c0-0.148,0.122-0.271,0.271-0.271h4.724
	c2.914,0,4.681,1.727,4.681,4.22v0.037c0,2.826-2.201,4.294-4.942,4.294h-2.042v3.396c-0.002,0.148-0.122,0.268-0.27,0.268h-2.15
	c-0.148,0-0.27-0.119-0.271-0.268V51.403V51.407z M157.516,57.297c1.342,0,2.13-0.804,2.13-1.85v-0.035
	c0-1.204-0.84-1.851-2.184-1.851h-2.076v3.734L157.516,57.297L157.516,57.297z"/>
</svg>
